# 3ds Max Wavefront OBJ Exporter v0.97b - (c)2007 guruware
# File Created: 07.12.2017 19:15:41

#
# object TextPlus001
#

v  0.0029 0.4457 1.0001
v  0.0082 0.3339 1.0001
v  0.0240 0.2388 1.0001
v  0.0503 0.1603 1.0001
v  0.0872 0.0984 1.0001
v  0.1256 0.0600 1.0001
v  0.1707 0.0326 1.0001
v  0.2224 0.0162 1.0001
v  0.2807 0.0107 1.0001
v  0.3254 0.0138 1.0001
v  0.3661 0.0232 1.0001
v  0.4028 0.0388 1.0001
v  0.4355 0.0607 1.0001
v  0.4643 0.0883 1.0001
v  0.4892 0.1213 1.0001
v  0.5103 0.1595 1.0001
v  0.5276 0.2031 1.0001
v  0.5411 0.2530 1.0001
v  0.5507 0.3100 1.0001
v  0.5565 0.3742 1.0001
v  0.5584 0.4457 1.0001
v  0.5572 0.5058 1.0001
v  0.5536 0.5594 1.0001
v  0.5476 0.6065 1.0001
v  0.5392 0.6472 1.0001
v  0.5288 0.6831 1.0001
v  0.5165 0.7162 1.0001
v  0.5025 0.7465 1.0001
v  0.4867 0.7739 1.0001
v  0.4688 0.7984 1.0001
v  0.4486 0.8199 1.0001
v  0.4261 0.8382 1.0001
v  0.4013 0.8536 1.0001
v  0.3742 0.8657 1.0001
v  0.3451 0.8743 1.0001
v  0.3139 0.8795 1.0001
v  0.2807 0.8812 1.0001
v  0.2361 0.8781 1.0001
v  0.1956 0.8688 1.0001
v  0.1590 0.8533 1.0001
v  0.1264 0.8315 1.0001
v  0.0976 0.8040 1.0001
v  0.0726 0.7712 1.0001
v  0.0514 0.7329 1.0001
v  0.0340 0.6894 1.0001
v  0.0204 0.6394 1.0001
v  0.0107 0.5822 1.0001
v  0.0048 0.5176 1.0001
v  0.0029 0.4457 1.0000
v  0.0082 0.3339 1.0000
v  0.0240 0.2388 1.0000
v  0.0503 0.1603 1.0000
v  0.0872 0.0984 1.0000
v  0.1256 0.0600 1.0000
v  0.1707 0.0326 1.0000
v  0.2224 0.0162 1.0000
v  0.2807 0.0107 1.0000
v  0.3254 0.0138 1.0000
v  0.3661 0.0232 1.0000
v  0.4028 0.0388 1.0000
v  0.4355 0.0607 1.0000
v  0.4643 0.0883 1.0000
v  0.4892 0.1213 1.0000
v  0.5103 0.1595 1.0000
v  0.5276 0.2031 1.0000
v  0.5411 0.2530 1.0000
v  0.5507 0.3100 1.0000
v  0.5565 0.3742 1.0000
v  0.5584 0.4457 1.0000
v  0.5572 0.5058 1.0000
v  0.5536 0.5594 1.0000
v  0.5476 0.6065 1.0000
v  0.5392 0.6472 1.0000
v  0.5288 0.6831 1.0000
v  0.5165 0.7162 1.0000
v  0.5025 0.7465 1.0000
v  0.4867 0.7739 1.0000
v  0.4688 0.7984 1.0000
v  0.4486 0.8199 1.0000
v  0.4261 0.8382 1.0000
v  0.4013 0.8536 1.0000
v  0.3742 0.8657 1.0000
v  0.3451 0.8743 1.0000
v  0.3139 0.8795 1.0000
v  0.2807 0.8812 1.0000
v  0.2361 0.8781 1.0000
v  0.1956 0.8688 1.0000
v  0.1590 0.8533 1.0000
v  0.1264 0.8315 1.0000
v  0.0976 0.8040 1.0000
v  0.0726 0.7712 1.0000
v  0.0514 0.7329 1.0000
v  0.0340 0.6894 1.0000
v  0.0204 0.6394 1.0000
v  0.0107 0.5822 1.0000
v  0.0048 0.5176 1.0000
v  0.1105 0.4460 1.0001
v  0.1139 0.5427 1.0001
v  0.1240 0.6229 1.0001
v  0.1407 0.6866 1.0001
v  0.1642 0.7338 1.0001
v  0.1876 0.7605 1.0001
v  0.2147 0.7796 1.0001
v  0.2453 0.7910 1.0001
v  0.2795 0.7948 1.0001
v  0.3147 0.7905 1.0001
v  0.3468 0.7775 1.0001
v  0.3759 0.7559 1.0001
v  0.4019 0.7256 1.0001
v  0.4233 0.6822 1.0001
v  0.4385 0.6211 1.0001
v  0.4477 0.5424 1.0001
v  0.4508 0.4460 1.0001
v  0.4477 0.3497 1.0001
v  0.4385 0.2711 1.0001
v  0.4232 0.2100 1.0001
v  0.4017 0.1665 1.0001
v  0.3757 0.1362 1.0001
v  0.3469 0.1145 1.0001
v  0.3152 0.1014 1.0001
v  0.2807 0.0971 1.0001
v  0.2461 0.1014 1.0001
v  0.2144 0.1144 1.0001
v  0.1856 0.1360 1.0001
v  0.1596 0.1662 1.0001
v  0.1381 0.2097 1.0001
v  0.1228 0.2707 1.0001
v  0.1136 0.3495 1.0001
v  0.1105 0.4460 1.0000
v  0.1139 0.5427 1.0000
v  0.1240 0.6229 1.0000
v  0.1407 0.6866 1.0000
v  0.1642 0.7338 1.0000
v  0.1876 0.7605 1.0000
v  0.2147 0.7796 1.0000
v  0.2453 0.7910 1.0000
v  0.2795 0.7948 1.0000
v  0.3147 0.7905 1.0000
v  0.3468 0.7775 1.0000
v  0.3759 0.7559 1.0000
v  0.4019 0.7256 1.0000
v  0.4233 0.6822 1.0000
v  0.4385 0.6211 1.0000
v  0.4477 0.5424 1.0000
v  0.4508 0.4460 1.0000
v  0.4477 0.3497 1.0000
v  0.4385 0.2711 1.0000
v  0.4232 0.2100 1.0000
v  0.4017 0.1665 1.0000
v  0.3757 0.1362 1.0000
v  0.3469 0.1145 1.0000
v  0.3152 0.1014 1.0000
v  0.2807 0.0971 1.0000
v  0.2461 0.1014 1.0000
v  0.2144 0.1144 1.0000
v  0.1856 0.1360 1.0000
v  0.1596 0.1662 1.0000
v  0.1381 0.2097 1.0000
v  0.1228 0.2707 1.0000
v  0.1136 0.3495 1.0000
# 160 vertices

vn -0.9999 -0.0100 -0.0000
vn -0.9944 -0.1056 -0.0000
vn -0.9703 -0.2417 -0.0000
vn -0.9087 -0.4174 -0.0000
vn -0.7888 -0.6147 -0.0000
vn -0.6173 -0.7867 -0.0000
vn -0.4144 -0.9101 -0.0000
vn -0.1996 -0.9799 -0.0000
vn -0.0121 -0.9999 -0.0000
vn 0.1473 -0.9891 -0.0000
vn 0.3090 -0.9511 -0.0000
vn 0.4759 -0.8795 -0.0000
vn 0.6270 -0.7790 -0.0000
vn 0.7476 -0.6642 -0.0000
vn 0.8387 -0.5446 -0.0000
vn 0.9043 -0.4269 -0.0000
vn 0.9489 -0.3155 -0.0000
vn 0.9769 -0.2139 -0.0000
vn 0.9918 -0.1281 -0.0000
vn 0.9983 -0.0583 -0.0000
vn 1.0000 -0.0035 -0.0000
vn 0.9991 0.0434 0.0000
vn 0.9953 0.0966 0.0000
vn 0.9864 0.1644 0.0000
vn 0.9705 0.2413 0.0000
vn 0.9496 0.3136 0.0000
vn 0.9233 0.3840 0.0000
vn 0.8879 0.4601 0.0000
vn 0.8386 0.5447 0.0000
vn 0.7697 0.6385 0.0000
vn 0.6817 0.7316 0.0000
vn 0.5800 0.8146 0.0000
vn 0.4674 0.8840 0.0000
vn 0.3467 0.9380 0.0000
vn 0.2244 0.9745 0.0000
vn 0.1080 0.9942 0.0000
vn -0.0089 1.0000 0.0000
vn -0.1472 0.9891 0.0000
vn -0.3084 0.9513 0.0000
vn -0.4745 0.8803 0.0000
vn -0.4744 0.8803 0.0000
vn -0.6251 0.7805 0.0000
vn -0.7459 0.6660 0.0000
vn -0.8374 0.5466 0.0000
vn -0.9032 0.4292 0.0000
vn -0.9482 0.3177 0.0000
vn -0.9765 0.2153 0.0000
vn -0.9917 0.1287 0.0000
vn -0.9983 0.0585 0.0000
vn 1.0000 -0.0014 -0.0000
vn 0.9968 -0.0796 -0.0000
vn 0.9818 -0.1899 -0.0000
vn 0.9361 -0.3517 -0.0000
vn 0.9361 -0.3518 -0.0000
vn 0.8304 -0.5571 -0.0000
vn 0.6688 -0.7435 -0.0000
vn 0.4673 -0.8841 -0.0000
vn 0.2323 -0.9726 -0.0000
vn -0.0056 -1.0000 -0.0000
vn -0.2503 -0.9682 -0.0000
vn -0.4897 -0.8719 -0.0000
vn -0.6821 -0.7313 -0.0000
vn -0.8345 -0.5510 -0.0000
vn -0.9389 -0.3442 -0.0000
vn -0.9838 -0.1795 -0.0000
vn -0.9973 -0.0737 -0.0000
vn -1.0000 0.0001 0.0000
vn -0.9973 0.0741 0.0000
vn -0.9836 0.1802 0.0000
vn -0.9386 0.3449 0.0000
vn -0.8350 0.5503 0.0000
vn -0.6849 0.7287 0.0000
vn -0.4947 0.8691 0.0000
vn -0.2545 0.9671 0.0000
vn -0.0003 1.0000 0.0000
vn 0.2535 0.9673 0.0000
vn 0.4932 0.8699 0.0000
vn 0.6834 0.7301 0.0000
vn 0.8342 0.5515 0.0000
vn 0.9385 0.3453 0.0000
vn 0.9837 0.1801 0.0000
vn 0.9973 0.0740 0.0000
vn 0.0000 -0.0000 1.0000
vn 0.0000 0.0000 -1.0000
# 84 vertex normals

vt 0.4397 0.5012 1.0000
vt 0.4397 0.5012 0.0000
vt 0.4408 0.3720 0.0000
vt 0.4408 0.3720 1.0000
vt 0.4442 0.2621 0.0000
vt 0.4442 0.2621 1.0000
vt 0.4500 0.1713 0.0000
vt 0.4500 0.1713 1.0000
vt 0.4580 0.0998 0.0000
vt 0.4580 0.0998 1.0000
vt 0.4663 0.0555 0.0000
vt 0.4663 0.0555 1.0000
vt 0.4761 0.0238 0.0000
vt 0.4761 0.0238 1.0000
vt 0.4873 0.0048 0.0000
vt 0.4873 0.0048 1.0000
vt 0.5000 -0.0015 0.0000
vt 0.5000 -0.0015 1.0000
vt 0.5097 0.0021 0.0000
vt 0.5097 0.0021 1.0000
vt 0.5186 0.0129 0.0000
vt 0.5186 0.0129 1.0000
vt 0.5265 0.0309 0.0000
vt 0.5265 0.0309 1.0000
vt 0.5336 0.0562 0.0000
vt 0.5336 0.0562 1.0000
vt 0.5399 0.0882 0.0000
vt 0.5399 0.0882 1.0000
vt 0.5453 0.1263 0.0000
vt 0.5453 0.1263 1.0000
vt 0.5499 0.1705 0.0000
vt 0.5499 0.1705 1.0000
vt 0.5536 0.2209 0.0000
vt 0.5536 0.2209 1.0000
vt 0.5566 0.2785 0.0000
vt 0.5566 0.2785 1.0000
vt 0.5587 0.3444 0.0000
vt 0.5587 0.3444 1.0000
vt 0.5599 0.4187 0.0000
vt 0.5599 0.4187 1.0000
vt 0.5603 0.5012 0.0000
vt 0.5603 0.5012 1.0000
vt 0.5601 0.5707 0.0000
vt 0.5601 0.5707 1.0000
vt 0.5593 0.6327 0.0000
vt 0.5593 0.6327 1.0000
vt 0.5580 0.6871 0.0000
vt 0.5580 0.6871 1.0000
vt 0.5562 0.7341 0.0000
vt 0.5562 0.7341 1.0000
vt 0.5539 0.7756 0.0000
vt 0.5539 0.7756 1.0000
vt 0.5512 0.8139 0.0000
vt 0.5512 0.8139 1.0000
vt 0.5482 0.8489 0.0000
vt 0.5482 0.8489 1.0000
vt 0.5448 0.8806 0.0000
vt 0.5448 0.8806 1.0000
vt 0.5409 0.9089 0.0000
vt 0.5409 0.9089 1.0000
vt 0.5365 0.9337 0.0000
vt 0.5365 0.9337 1.0000
vt 0.5316 0.9550 0.0000
vt 0.5316 0.9550 1.0000
vt 0.5262 0.9727 0.0000
vt 0.5262 0.9727 1.0000
vt 0.5203 0.9867 0.0000
vt 0.5203 0.9867 1.0000
vt 0.5140 0.9966 0.0000
vt 0.5140 0.9966 1.0000
vt 0.5072 1.0026 0.0000
vt 0.5072 1.0026 1.0000
vt 0.5000 1.0046 0.0000
vt 0.5000 1.0046 1.0000
vt 0.4903 1.0010 0.0000
vt 0.4903 1.0010 1.0000
vt 0.4815 0.9903 0.0000
vt 0.4815 0.9903 1.0000
vt 0.4736 0.9723 0.0000
vt 0.4736 0.9723 1.0000
vt 0.4665 0.9472 0.0000
vt 0.4665 0.9472 1.0000
vt 0.4602 0.9154 0.0000
vt 0.4602 0.9154 1.0000
vt 0.4548 0.8774 0.0000
vt 0.4548 0.8774 1.0000
vt 0.4502 0.8332 0.0000
vt 0.4502 0.8332 1.0000
vt 0.4464 0.7829 0.0000
vt 0.4464 0.7829 1.0000
vt 0.4435 0.7252 0.0000
vt 0.4435 0.7252 1.0000
vt 0.4414 0.6590 0.0000
vt 0.4414 0.6590 1.0000
vt 0.4401 0.5843 0.0000
vt 0.4401 0.5843 1.0000
vt 0.4630 0.5015 1.0000
vt 0.4630 0.5015 0.0000
vt 0.4638 0.6133 0.0000
vt 0.4638 0.6133 1.0000
vt 0.4660 0.7060 0.0000
vt 0.4660 0.7060 1.0000
vt 0.4696 0.7796 0.0000
vt 0.4696 0.7796 1.0000
vt 0.4747 0.8342 0.0000
vt 0.4747 0.8342 1.0000
vt 0.4798 0.8651 0.0000
vt 0.4798 0.8651 1.0000
vt 0.4857 0.8871 0.0000
vt 0.4857 0.8871 1.0000
vt 0.4923 0.9004 0.0000
vt 0.4923 0.9004 1.0000
vt 0.4997 0.9048 0.0000
vt 0.4997 0.9048 1.0000
vt 0.5074 0.8998 0.0000
vt 0.5074 0.8998 1.0000
vt 0.5144 0.8848 0.0000
vt 0.5144 0.8848 1.0000
vt 0.5207 0.8598 0.0000
vt 0.5207 0.8598 1.0000
vt 0.5263 0.8248 0.0000
vt 0.5263 0.8248 1.0000
vt 0.5310 0.7746 0.0000
vt 0.5310 0.7746 1.0000
vt 0.5343 0.7040 0.0000
vt 0.5343 0.7040 1.0000
vt 0.5363 0.6130 0.0000
vt 0.5363 0.6130 1.0000
vt 0.5370 0.5015 0.0000
vt 0.5370 0.5015 1.0000
vt 0.5363 0.3903 0.0000
vt 0.5363 0.3903 1.0000
vt 0.5343 0.2994 0.0000
vt 0.5343 0.2994 1.0000
vt 0.5310 0.2289 0.0000
vt 0.5310 0.2289 1.0000
vt 0.5263 0.1786 0.0000
vt 0.5263 0.1786 1.0000
vt 0.5207 0.1435 0.0000
vt 0.5207 0.1435 1.0000
vt 0.5144 0.1184 0.0000
vt 0.5144 0.1184 1.0000
vt 0.5075 0.1033 0.0000
vt 0.5075 0.1033 1.0000
vt 0.5000 0.0983 0.0000
vt 0.5000 0.0983 1.0000
vt 0.4925 0.1033 0.0000
vt 0.4925 0.1033 1.0000
vt 0.4856 0.1183 0.0000
vt 0.4856 0.1183 1.0000
vt 0.4793 0.1433 0.0000
vt 0.4793 0.1433 1.0000
vt 0.4737 0.1782 0.0000
vt 0.4737 0.1782 1.0000
vt 0.4690 0.2284 0.0000
vt 0.4690 0.2284 1.0000
vt 0.4657 0.2990 0.0000
vt 0.4657 0.2990 1.0000
vt 0.4637 0.3901 0.0000
vt 0.4637 0.3901 1.0000
# 160 texture coords

g TextPlus001
f 1/1/1 49/2/1 50/3/2 
f 1/1/1 50/3/2 2/4/2 
f 2/4/2 50/3/2 51/5/3 
f 2/4/2 51/5/3 3/6/3 
f 3/6/3 51/5/3 52/7/4 
f 3/6/3 52/7/4 4/8/4 
f 4/8/4 52/7/4 53/9/5 
f 4/8/4 53/9/5 5/10/5 
f 5/10/5 53/9/5 54/11/6 
f 5/10/5 54/11/6 6/12/6 
f 6/12/6 54/11/6 55/13/7 
f 6/12/6 55/13/7 7/14/7 
f 7/14/7 55/13/7 56/15/8 
f 7/14/7 56/15/8 8/16/8 
f 8/16/8 56/15/8 57/17/9 
f 8/16/8 57/17/9 9/18/9 
f 9/18/9 57/17/9 58/19/10 
f 9/18/9 58/19/10 10/20/10 
f 10/20/10 58/19/10 59/21/11 
f 10/20/10 59/21/11 11/22/11 
f 11/22/11 59/21/11 60/23/12 
f 11/22/11 60/23/12 12/24/12 
f 12/24/12 60/23/12 61/25/13 
f 12/24/12 61/25/13 13/26/13 
f 13/26/13 61/25/13 62/27/14 
f 13/26/13 62/27/14 14/28/14 
f 14/28/14 62/27/14 63/29/15 
f 14/28/14 63/29/15 15/30/15 
f 15/30/15 63/29/15 64/31/16 
f 15/30/15 64/31/16 16/32/16 
f 16/32/16 64/31/16 65/33/17 
f 16/32/16 65/33/17 17/34/17 
f 17/34/17 65/33/17 66/35/18 
f 17/34/17 66/35/18 18/36/18 
f 18/36/18 66/35/18 67/37/19 
f 18/36/18 67/37/19 19/38/19 
f 19/38/19 67/37/19 68/39/20 
f 19/38/19 68/39/20 20/40/20 
f 20/40/20 68/39/20 69/41/21 
f 20/40/20 69/41/21 21/42/21 
f 21/42/21 69/41/21 70/43/22 
f 21/42/21 70/43/22 22/44/22 
f 22/44/22 70/43/22 71/45/23 
f 22/44/22 71/45/23 23/46/23 
f 23/46/23 71/45/23 72/47/24 
f 23/46/23 72/47/24 24/48/24 
f 24/48/24 72/47/24 73/49/25 
f 24/48/24 73/49/25 25/50/25 
f 25/50/25 73/49/25 74/51/26 
f 25/50/25 74/51/26 26/52/26 
f 26/52/26 74/51/26 75/53/27 
f 26/52/26 75/53/27 27/54/27 
f 27/54/27 75/53/27 76/55/28 
f 27/54/27 76/55/28 28/56/28 
f 28/56/28 76/55/28 77/57/29 
f 28/56/28 77/57/29 29/58/29 
f 29/58/29 77/57/29 78/59/30 
f 29/58/29 78/59/30 30/60/30 
f 30/60/30 78/59/30 79/61/31 
f 30/60/30 79/61/31 31/62/31 
f 31/62/31 79/61/31 80/63/32 
f 31/62/31 80/63/32 32/64/32 
f 32/64/32 80/63/32 81/65/33 
f 32/64/32 81/65/33 33/66/33 
f 33/66/33 81/65/33 82/67/34 
f 33/66/33 82/67/34 34/68/34 
f 34/68/34 82/67/34 83/69/35 
f 34/68/34 83/69/35 35/70/35 
f 35/70/35 83/69/35 84/71/36 
f 35/70/35 84/71/36 36/72/36 
f 36/72/36 84/71/36 85/73/37 
f 36/72/36 85/73/37 37/74/37 
f 37/74/37 85/73/37 86/75/38 
f 37/74/37 86/75/38 38/76/38 
f 38/76/38 86/75/38 87/77/39 
f 38/76/38 87/77/39 39/78/39 
f 39/78/39 87/77/39 88/79/40 
f 39/78/39 88/79/40 40/80/41 
f 40/80/41 88/79/40 89/81/42 
f 40/80/41 89/81/42 41/82/42 
f 41/82/42 89/81/42 90/83/43 
f 41/82/42 90/83/43 42/84/43 
f 42/84/43 90/83/43 91/85/44 
f 42/84/43 91/85/44 43/86/44 
f 43/86/44 91/85/44 92/87/45 
f 43/86/44 92/87/45 44/88/45 
f 44/88/45 92/87/45 93/89/46 
f 44/88/45 93/89/46 45/90/46 
f 45/90/46 93/89/46 94/91/47 
f 45/90/46 94/91/47 46/92/47 
f 46/92/47 94/91/47 95/93/48 
f 46/92/47 95/93/48 47/94/48 
f 47/94/48 95/93/48 96/95/49 
f 47/94/48 96/95/49 48/96/49 
f 48/96/49 96/95/49 49/2/1 
f 48/96/49 49/2/1 1/1/1 
f 97/97/50 129/98/50 130/99/51 
f 97/97/50 130/99/51 98/100/51 
f 98/100/51 130/99/51 131/101/52 
f 98/100/51 131/101/52 99/102/52 
f 99/102/52 131/101/52 132/103/53 
f 99/102/52 132/103/53 100/104/54 
f 100/104/54 132/103/53 133/105/55 
f 100/104/54 133/105/55 101/106/55 
f 101/106/55 133/105/55 134/107/56 
f 101/106/55 134/107/56 102/108/56 
f 102/108/56 134/107/56 135/109/57 
f 102/108/56 135/109/57 103/110/57 
f 103/110/57 135/109/57 136/111/58 
f 103/110/57 136/111/58 104/112/58 
f 104/112/58 136/111/58 137/113/59 
f 104/112/58 137/113/59 105/114/59 
f 105/114/59 137/113/59 138/115/60 
f 105/114/59 138/115/60 106/116/60 
f 106/116/60 138/115/60 139/117/61 
f 106/116/60 139/117/61 107/118/61 
f 107/118/61 139/117/61 140/119/62 
f 107/118/61 140/119/62 108/120/62 
f 108/120/62 140/119/62 141/121/63 
f 108/120/62 141/121/63 109/122/63 
f 109/122/63 141/121/63 142/123/64 
f 109/122/63 142/123/64 110/124/64 
f 110/124/64 142/123/64 143/125/65 
f 110/124/64 143/125/65 111/126/65 
f 111/126/65 143/125/65 144/127/66 
f 111/126/65 144/127/66 112/128/66 
f 112/128/66 144/127/66 145/129/67 
f 112/128/66 145/129/67 113/130/67 
f 113/130/67 145/129/67 146/131/68 
f 113/130/67 146/131/68 114/132/68 
f 114/132/68 146/131/68 147/133/69 
f 114/132/68 147/133/69 115/134/69 
f 115/134/69 147/133/69 148/135/70 
f 115/134/69 148/135/70 116/136/70 
f 116/136/70 148/135/70 149/137/71 
f 116/136/70 149/137/71 117/138/71 
f 117/138/71 149/137/71 150/139/72 
f 117/138/71 150/139/72 118/140/72 
f 118/140/72 150/139/72 151/141/73 
f 118/140/72 151/141/73 119/142/73 
f 119/142/73 151/141/73 152/143/74 
f 119/142/73 152/143/74 120/144/74 
f 120/144/74 152/143/74 153/145/75 
f 120/144/74 153/145/75 121/146/75 
f 121/146/75 153/145/75 154/147/76 
f 121/146/75 154/147/76 122/148/76 
f 122/148/76 154/147/76 155/149/77 
f 122/148/76 155/149/77 123/150/77 
f 123/150/77 155/149/77 156/151/78 
f 123/150/77 156/151/78 124/152/78 
f 124/152/78 156/151/78 157/153/79 
f 124/152/78 157/153/79 125/154/79 
f 125/154/79 157/153/79 158/155/80 
f 125/154/79 158/155/80 126/156/80 
f 126/156/80 158/155/80 159/157/81 
f 126/156/80 159/157/81 127/158/81 
f 127/158/81 159/157/81 160/159/82 
f 127/158/81 160/159/82 128/160/82 
f 128/160/82 160/159/82 129/98/50 
f 128/160/82 129/98/50 97/97/50 
f 97/97/83 1/1/83 2/4/83 
f 128/160/83 97/97/83 2/4/83 
f 127/158/83 128/160/83 2/4/83 
f 127/158/83 2/4/83 3/6/83 
f 126/156/83 127/158/83 3/6/83 
f 126/156/83 3/6/83 4/8/83 
f 125/154/83 126/156/83 4/8/83 
f 125/154/83 4/8/83 5/10/83 
f 124/152/83 125/154/83 5/10/83 
f 124/152/83 5/10/83 6/12/83 
f 124/152/83 6/12/83 7/14/83 
f 123/150/83 124/152/83 7/14/83 
f 123/150/83 7/14/83 8/16/83 
f 122/148/83 123/150/83 8/16/83 
f 122/148/83 8/16/83 9/18/83 
f 121/146/83 122/148/83 9/18/83 
f 121/146/83 9/18/83 10/20/83 
f 120/144/83 121/146/83 10/20/83 
f 120/144/83 10/20/83 11/22/83 
f 119/142/83 120/144/83 11/22/83 
f 119/142/83 11/22/83 12/24/83 
f 48/96/83 1/1/83 97/97/83 
f 48/96/83 97/97/83 98/100/83 
f 47/94/83 48/96/83 98/100/83 
f 47/94/83 98/100/83 99/102/83 
f 46/92/83 47/94/83 99/102/83 
f 45/90/83 46/92/83 99/102/83 
f 45/90/83 99/102/83 100/104/83 
f 44/88/83 45/90/83 100/104/83 
f 43/86/83 44/88/83 100/104/83 
f 43/86/83 100/104/83 101/106/83 
f 42/84/83 43/86/83 101/106/83 
f 42/84/83 101/106/83 102/108/83 
f 41/82/83 42/84/83 102/108/83 
f 40/80/83 41/82/83 102/108/83 
f 40/80/83 102/108/83 103/110/83 
f 39/78/83 40/80/83 103/110/83 
f 39/78/83 103/110/83 104/112/83 
f 38/76/83 39/78/83 104/112/83 
f 37/74/83 38/76/83 104/112/83 
f 37/74/83 104/112/83 105/114/83 
f 36/72/83 37/74/83 105/114/83 
f 36/72/83 105/114/83 106/116/83 
f 35/70/83 36/72/83 106/116/83 
f 118/140/83 119/142/83 12/24/83 
f 118/140/83 12/24/83 13/26/83 
f 118/140/83 13/26/83 14/28/83 
f 117/138/83 118/140/83 14/28/83 
f 117/138/83 14/28/83 15/30/83 
f 116/136/83 117/138/83 15/30/83 
f 116/136/83 15/30/83 16/32/83 
f 116/136/83 16/32/83 17/34/83 
f 115/134/83 116/136/83 17/34/83 
f 115/134/83 17/34/83 18/36/83 
f 115/134/83 18/36/83 19/38/83 
f 114/132/83 115/134/83 19/38/83 
f 114/132/83 19/38/83 20/40/83 
f 113/130/83 114/132/83 20/40/83 
f 113/130/83 20/40/83 21/42/83 
f 113/130/83 21/42/83 22/44/83 
f 112/128/83 113/130/83 22/44/83 
f 112/128/83 22/44/83 23/46/83 
f 111/126/83 112/128/83 23/46/83 
f 111/126/83 23/46/83 24/48/83 
f 111/126/83 24/48/83 25/50/83 
f 111/126/83 25/50/83 26/52/83 
f 110/124/83 111/126/83 26/52/83 
f 110/124/83 26/52/83 27/54/83 
f 110/124/83 27/54/83 28/56/83 
f 109/122/83 110/124/83 28/56/83 
f 109/122/83 28/56/83 29/58/83 
f 109/122/83 29/58/83 30/60/83 
f 108/120/83 109/122/83 30/60/83 
f 108/120/83 30/60/83 31/62/83 
f 108/120/83 31/62/83 32/64/83 
f 107/118/83 108/120/83 32/64/83 
f 107/118/83 32/64/83 33/66/83 
f 107/118/83 33/66/83 34/68/83 
f 106/116/83 107/118/83 34/68/83 
f 35/70/83 106/116/83 34/68/83 
f 129/98/84 50/3/84 49/2/84 
f 160/159/84 50/3/84 129/98/84 
f 159/157/84 50/3/84 160/159/84 
f 159/157/84 51/5/84 50/3/84 
f 158/155/84 51/5/84 159/157/84 
f 158/155/84 52/7/84 51/5/84 
f 157/153/84 52/7/84 158/155/84 
f 157/153/84 53/9/84 52/7/84 
f 156/151/84 53/9/84 157/153/84 
f 156/151/84 54/11/84 53/9/84 
f 156/151/84 55/13/84 54/11/84 
f 155/149/84 55/13/84 156/151/84 
f 155/149/84 56/15/84 55/13/84 
f 154/147/84 56/15/84 155/149/84 
f 154/147/84 57/17/84 56/15/84 
f 153/145/84 57/17/84 154/147/84 
f 153/145/84 58/19/84 57/17/84 
f 152/143/84 58/19/84 153/145/84 
f 152/143/84 59/21/84 58/19/84 
f 151/141/84 59/21/84 152/143/84 
f 151/141/84 60/23/84 59/21/84 
f 96/95/84 129/98/84 49/2/84 
f 96/95/84 130/99/84 129/98/84 
f 95/93/84 130/99/84 96/95/84 
f 95/93/84 131/101/84 130/99/84 
f 94/91/84 131/101/84 95/93/84 
f 93/89/84 131/101/84 94/91/84 
f 93/89/84 132/103/84 131/101/84 
f 92/87/84 132/103/84 93/89/84 
f 91/85/84 132/103/84 92/87/84 
f 91/85/84 133/105/84 132/103/84 
f 90/83/84 133/105/84 91/85/84 
f 90/83/84 134/107/84 133/105/84 
f 89/81/84 134/107/84 90/83/84 
f 88/79/84 134/107/84 89/81/84 
f 88/79/84 135/109/84 134/107/84 
f 87/77/84 135/109/84 88/79/84 
f 87/77/84 136/111/84 135/109/84 
f 86/75/84 136/111/84 87/77/84 
f 85/73/84 136/111/84 86/75/84 
f 85/73/84 137/113/84 136/111/84 
f 84/71/84 137/113/84 85/73/84 
f 84/71/84 138/115/84 137/113/84 
f 83/69/84 138/115/84 84/71/84 
f 150/139/84 60/23/84 151/141/84 
f 150/139/84 61/25/84 60/23/84 
f 150/139/84 62/27/84 61/25/84 
f 149/137/84 62/27/84 150/139/84 
f 149/137/84 63/29/84 62/27/84 
f 148/135/84 63/29/84 149/137/84 
f 148/135/84 64/31/84 63/29/84 
f 148/135/84 65/33/84 64/31/84 
f 147/133/84 65/33/84 148/135/84 
f 147/133/84 66/35/84 65/33/84 
f 147/133/84 67/37/84 66/35/84 
f 146/131/84 67/37/84 147/133/84 
f 146/131/84 68/39/84 67/37/84 
f 145/129/84 68/39/84 146/131/84 
f 145/129/84 69/41/84 68/39/84 
f 145/129/84 70/43/84 69/41/84 
f 144/127/84 70/43/84 145/129/84 
f 144/127/84 71/45/84 70/43/84 
f 143/125/84 71/45/84 144/127/84 
f 143/125/84 72/47/84 71/45/84 
f 143/125/84 73/49/84 72/47/84 
f 143/125/84 74/51/84 73/49/84 
f 142/123/84 74/51/84 143/125/84 
f 142/123/84 75/53/84 74/51/84 
f 142/123/84 76/55/84 75/53/84 
f 141/121/84 76/55/84 142/123/84 
f 141/121/84 77/57/84 76/55/84 
f 141/121/84 78/59/84 77/57/84 
f 140/119/84 78/59/84 141/121/84 
f 140/119/84 79/61/84 78/59/84 
f 140/119/84 80/63/84 79/61/84 
f 139/117/84 80/63/84 140/119/84 
f 139/117/84 81/65/84 80/63/84 
f 139/117/84 82/67/84 81/65/84 
f 138/115/84 82/67/84 139/117/84 
f 83/69/84 82/67/84 138/115/84 
# 320 faces

