# 3ds Max Wavefront OBJ Exporter v0.97b - (c)2007 guruware
# File Created: 07.12.2017 19:17:29

#
# object TextPlus001
#

v  0.5635 0.1263 1.0001
v  0.1446 0.1263 1.0001
v  0.1539 0.1406 1.0001
v  0.1645 0.1547 1.0001
v  0.1761 0.1689 1.0001
v  0.1890 0.1830 1.0001
v  0.2066 0.2003 1.0001
v  0.2327 0.2239 1.0001
v  0.2672 0.2539 1.0001
v  0.3102 0.2903 1.0001
v  0.3626 0.3354 1.0001
v  0.4069 0.3754 1.0001
v  0.4433 0.4104 1.0001
v  0.4716 0.4402 1.0001
v  0.4942 0.4672 1.0001
v  0.5133 0.4935 1.0001
v  0.5290 0.5192 1.0001
v  0.5412 0.5442 1.0001
v  0.5503 0.5690 1.0001
v  0.5569 0.5940 1.0001
v  0.5608 0.6193 1.0001
v  0.5621 0.6447 1.0001
v  0.5576 0.6930 1.0001
v  0.5442 0.7371 1.0001
v  0.5218 0.7772 1.0001
v  0.4905 0.8132 1.0001
v  0.4514 0.8430 1.0001
v  0.4060 0.8642 1.0001
v  0.3541 0.8770 1.0001
v  0.2959 0.8812 1.0001
v  0.2381 0.8773 1.0001
v  0.1865 0.8655 1.0001
v  0.1411 0.8458 1.0001
v  0.1019 0.8183 1.0001
v  0.0696 0.7833 1.0001
v  0.0449 0.7411 1.0001
v  0.0279 0.6918 1.0001
v  0.0186 0.6353 1.0001
v  0.1262 0.6247 1.0001
v  0.1293 0.6625 1.0001
v  0.1380 0.6959 1.0001
v  0.1523 0.7249 1.0001
v  0.1723 0.7497 1.0001
v  0.1969 0.7694 1.0001
v  0.2253 0.7835 1.0001
v  0.2575 0.7920 1.0001
v  0.2935 0.7948 1.0001
v  0.3277 0.7921 1.0001
v  0.3585 0.7841 1.0001
v  0.3859 0.7708 1.0001
v  0.4099 0.7521 1.0001
v  0.4294 0.7295 1.0001
v  0.4433 0.7045 1.0001
v  0.4517 0.6770 1.0001
v  0.4545 0.6471 1.0001
v  0.4514 0.6169 1.0001
v  0.4422 0.5858 1.0001
v  0.4269 0.5538 1.0001
v  0.4055 0.5209 1.0001
v  0.3754 0.4847 1.0001
v  0.3340 0.4424 1.0001
v  0.2814 0.3943 1.0001
v  0.2175 0.3402 1.0001
v  0.1753 0.3048 1.0001
v  0.1383 0.2716 1.0001
v  0.1066 0.2405 1.0001
v  0.0802 0.2116 1.0001
v  0.0580 0.1836 1.0001
v  0.0390 0.1553 1.0001
v  0.0233 0.1268 1.0001
v  0.0109 0.0981 1.0001
v  0.0051 0.0805 1.0001
v  0.0011 0.0625 1.0001
v  -0.0010 0.0441 1.0001
v  -0.0014 0.0253 1.0001
v  0.5635 0.0253 1.0001
v  0.5635 0.1263 1.0000
v  0.1446 0.1263 1.0000
v  0.1539 0.1406 1.0000
v  0.1645 0.1547 1.0000
v  0.1761 0.1689 1.0000
v  0.1890 0.1830 1.0000
v  0.2066 0.2003 1.0000
v  0.2327 0.2239 1.0000
v  0.2672 0.2539 1.0000
v  0.3102 0.2903 1.0000
v  0.3626 0.3354 1.0000
v  0.4069 0.3754 1.0000
v  0.4433 0.4104 1.0000
v  0.4716 0.4402 1.0000
v  0.4942 0.4672 1.0000
v  0.5133 0.4935 1.0000
v  0.5290 0.5192 1.0000
v  0.5412 0.5442 1.0000
v  0.5503 0.5690 1.0000
v  0.5569 0.5940 1.0000
v  0.5608 0.6193 1.0000
v  0.5621 0.6447 1.0000
v  0.5576 0.6930 1.0000
v  0.5442 0.7371 1.0000
v  0.5218 0.7772 1.0000
v  0.4905 0.8132 1.0000
v  0.4514 0.8430 1.0000
v  0.4060 0.8642 1.0000
v  0.3541 0.8770 1.0000
v  0.2959 0.8812 1.0000
v  0.2381 0.8773 1.0000
v  0.1865 0.8655 1.0000
v  0.1411 0.8458 1.0000
v  0.1019 0.8183 1.0000
v  0.0696 0.7833 1.0000
v  0.0449 0.7411 1.0000
v  0.0279 0.6918 1.0000
v  0.0186 0.6353 1.0000
v  0.1262 0.6247 1.0000
v  0.1293 0.6625 1.0000
v  0.1380 0.6959 1.0000
v  0.1523 0.7249 1.0000
v  0.1723 0.7497 1.0000
v  0.1969 0.7694 1.0000
v  0.2253 0.7835 1.0000
v  0.2575 0.7920 1.0000
v  0.2935 0.7948 1.0000
v  0.3277 0.7921 1.0000
v  0.3585 0.7841 1.0000
v  0.3859 0.7708 1.0000
v  0.4099 0.7521 1.0000
v  0.4294 0.7295 1.0000
v  0.4433 0.7045 1.0000
v  0.4517 0.6770 1.0000
v  0.4545 0.6471 1.0000
v  0.4514 0.6169 1.0000
v  0.4422 0.5858 1.0000
v  0.4269 0.5538 1.0000
v  0.4055 0.5209 1.0000
v  0.3754 0.4847 1.0000
v  0.3340 0.4424 1.0000
v  0.2814 0.3943 1.0000
v  0.2175 0.3402 1.0000
v  0.1753 0.3048 1.0000
v  0.1383 0.2716 1.0000
v  0.1066 0.2405 1.0000
v  0.0802 0.2116 1.0000
v  0.0580 0.1836 1.0000
v  0.0390 0.1553 1.0000
v  0.0233 0.1268 1.0000
v  0.0109 0.0981 1.0000
v  0.0051 0.0805 1.0000
v  0.0011 0.0625 1.0000
v  -0.0010 0.0441 1.0000
v  -0.0014 0.0253 1.0000
v  0.5635 0.0253 1.0000
# 152 vertices

vn 0.0000 1.0000 0.0000
vn 0.8360 -0.5487 -0.0000
vn 0.8202 -0.5720 -0.0000
vn 0.7879 -0.6158 -0.0000
vn 0.7559 -0.6547 -0.0000
vn 0.7200 -0.6940 -0.0000
vn 0.6856 -0.7280 -0.0000
vn 0.6635 -0.7482 -0.0000
vn 0.6507 -0.7594 -0.0000
vn 0.6492 -0.7606 -0.0000
vn 0.6614 -0.7500 -0.0000
vn 0.6817 -0.7316 -0.0000
vn 0.7095 -0.7047 -0.0000
vn 0.7466 -0.6653 -0.0000
vn 0.7885 -0.6151 -0.0000
vn 0.8320 -0.5547 -0.0000
vn 0.8771 -0.4802 -0.0000
vn 0.9195 -0.3932 -0.0000
vn 0.9538 -0.3004 -0.0000
vn 0.9790 -0.2038 -0.0000
vn 0.9947 -0.1028 -0.0000
vn 0.9998 0.0206 0.0000
vn 0.9812 0.1928 0.0000
vn 0.9201 0.3916 0.0000
vn 0.8180 0.5752 0.0000
vn 0.6837 0.7298 0.0000
vn 0.5177 0.8556 0.0000
vn 0.3327 0.9430 0.0000
vn 0.1563 0.9877 0.0000
vn 0.0024 1.0000 0.0000
vn -0.1458 0.9893 0.0000
vn -0.3114 0.9503 0.0000
vn -0.4885 0.8726 0.0000
vn -0.6586 0.7525 0.0000
vn -0.8039 0.5947 0.0000
vn -0.9087 0.4174 0.0000
vn -0.9694 0.2457 0.0000
vn -0.9865 0.1636 0.0000
vn -0.0983 -0.9952 -0.0000
vn 0.9967 -0.0818 -0.0000
vn 0.9859 -0.1676 -0.0000
vn 0.9372 -0.3488 -0.0000
vn 0.8430 -0.5379 -0.0000
vn 0.7062 -0.7080 -0.0000
vn 0.5381 -0.8429 -0.0000
vn 0.3511 -0.9363 -0.0000
vn 0.1668 -0.9860 -0.0000
vn 0.0001 -1.0000 -0.0000
vn -0.1656 -0.9862 -0.0000
vn -0.3468 -0.9379 -0.0000
vn -0.5293 -0.8484 -0.0000
vn -0.6890 -0.7248 -0.0000
vn -0.8194 -0.5732 -0.0000
vn -0.9203 -0.3913 -0.0000
vn -0.9812 -0.1931 -0.0000
vn -1.0000 0.0039 0.0000
vn -0.9813 0.1926 0.0000
vn -0.9336 0.3583 0.0000
vn -0.8719 0.4898 0.0000
vn -0.8049 0.5934 0.0000
vn -0.7424 0.6700 0.0000
vn -0.6948 0.7192 0.0000
vn -0.6607 0.7506 0.0000
vn -0.6442 0.7648 0.0000
vn -0.6556 0.7551 0.0000
vn -0.6845 0.7290 0.0000
vn -0.7194 0.6946 0.0000
vn -0.7613 0.6484 0.0000
vn -0.8076 0.5898 0.0000
vn -0.8539 0.5205 0.0000
vn -0.8976 0.4407 0.0000
vn -0.9347 0.3554 0.0000
vn -0.9644 0.2644 0.0000
vn -0.9861 0.1663 0.0000
vn -0.9977 0.0671 0.0000
vn -0.9998 0.0177 0.0000
vn 0.0000 -1.0000 -0.0000
vn 1.0000 0.0000 -0.0000
vn 0.0000 -0.0000 1.0000
vn 0.0000 0.0000 -1.0000
# 80 vertex normals

vt 0.5614 0.1321 1.0000
vt 0.5614 0.1321 0.0000
vt 0.4704 0.1321 0.0000
vt 0.4704 0.1321 1.0000
vt 0.4725 0.1485 0.0000
vt 0.4725 0.1485 1.0000
vt 0.4748 0.1649 0.0000
vt 0.4748 0.1649 1.0000
vt 0.4773 0.1813 0.0000
vt 0.4773 0.1813 1.0000
vt 0.4801 0.1976 0.0000
vt 0.4801 0.1976 1.0000
vt 0.4839 0.2176 0.0000
vt 0.4839 0.2176 1.0000
vt 0.4896 0.2449 0.0000
vt 0.4896 0.2449 1.0000
vt 0.4971 0.2796 0.0000
vt 0.4971 0.2796 1.0000
vt 0.5064 0.3216 0.0000
vt 0.5064 0.3216 1.0000
vt 0.5178 0.3737 0.0000
vt 0.5178 0.3737 1.0000
vt 0.5274 0.4200 0.0000
vt 0.5274 0.4200 1.0000
vt 0.5353 0.4604 0.0000
vt 0.5353 0.4604 1.0000
vt 0.5415 0.4949 0.0000
vt 0.5415 0.4949 1.0000
vt 0.5464 0.5261 0.0000
vt 0.5464 0.5261 1.0000
vt 0.5505 0.5565 0.0000
vt 0.5505 0.5565 1.0000
vt 0.5539 0.5862 0.0000
vt 0.5539 0.5862 1.0000
vt 0.5566 0.6151 0.0000
vt 0.5566 0.6151 1.0000
vt 0.5586 0.6438 0.0000
vt 0.5586 0.6438 1.0000
vt 0.5600 0.6727 0.0000
vt 0.5600 0.6727 1.0000
vt 0.5609 0.7019 0.0000
vt 0.5609 0.7019 1.0000
vt 0.5611 0.7313 0.0000
vt 0.5611 0.7313 1.0000
vt 0.5602 0.7870 0.0000
vt 0.5602 0.7870 1.0000
vt 0.5572 0.8381 0.0000
vt 0.5572 0.8381 1.0000
vt 0.5524 0.8844 0.0000
vt 0.5524 0.8844 1.0000
vt 0.5456 0.9260 0.0000
vt 0.5456 0.9260 1.0000
vt 0.5371 0.9604 0.0000
vt 0.5371 0.9604 1.0000
vt 0.5272 0.9850 0.0000
vt 0.5272 0.9850 1.0000
vt 0.5160 0.9997 0.0000
vt 0.5160 0.9997 1.0000
vt 0.5033 1.0046 0.0000
vt 0.5033 1.0046 1.0000
vt 0.4908 1.0001 0.0000
vt 0.4908 1.0001 1.0000
vt 0.4795 0.9864 0.0000
vt 0.4795 0.9864 1.0000
vt 0.4697 0.9637 0.0000
vt 0.4697 0.9637 1.0000
vt 0.4612 0.9319 0.0000
vt 0.4612 0.9319 1.0000
vt 0.4542 0.8914 0.0000
vt 0.4542 0.8914 1.0000
vt 0.4488 0.8427 0.0000
vt 0.4488 0.8427 1.0000
vt 0.4451 0.7857 0.0000
vt 0.4451 0.7857 1.0000
vt 0.4431 0.7204 0.0000
vt 0.4431 0.7204 1.0000
vt 0.4665 0.7081 0.0000
vt 0.4665 0.7081 1.0000
vt 0.4671 0.7518 0.0000
vt 0.4671 0.7518 1.0000
vt 0.4690 0.7904 0.0000
vt 0.4690 0.7904 1.0000
vt 0.4721 0.8240 0.0000
vt 0.4721 0.8240 1.0000
vt 0.4765 0.8526 0.0000
vt 0.4765 0.8526 1.0000
vt 0.4818 0.8754 0.0000
vt 0.4818 0.8754 1.0000
vt 0.4880 0.8917 0.0000
vt 0.4880 0.8917 1.0000
vt 0.4950 0.9015 0.0000
vt 0.4950 0.9015 1.0000
vt 0.5028 0.9048 0.0000
vt 0.5028 0.9048 1.0000
vt 0.5102 0.9017 0.0000
vt 0.5102 0.9017 1.0000
vt 0.5169 0.8924 0.0000
vt 0.5169 0.8924 1.0000
vt 0.5229 0.8770 0.0000
vt 0.5229 0.8770 1.0000
vt 0.5281 0.8554 0.0000
vt 0.5281 0.8554 1.0000
vt 0.5323 0.8293 0.0000
vt 0.5323 0.8293 1.0000
vt 0.5353 0.8003 0.0000
vt 0.5353 0.8003 1.0000
vt 0.5372 0.7686 0.0000
vt 0.5372 0.7686 1.0000
vt 0.5378 0.7341 0.0000
vt 0.5378 0.7341 1.0000
vt 0.5371 0.6991 0.0000
vt 0.5371 0.6991 1.0000
vt 0.5351 0.6631 0.0000
vt 0.5351 0.6631 1.0000
vt 0.5318 0.6262 0.0000
vt 0.5318 0.6262 1.0000
vt 0.5271 0.5882 0.0000
vt 0.5271 0.5882 1.0000
vt 0.5206 0.5463 0.0000
vt 0.5206 0.5463 1.0000
vt 0.5116 0.4975 0.0000
vt 0.5116 0.4975 1.0000
vt 0.5002 0.4418 0.0000
vt 0.5002 0.4418 1.0000
vt 0.4863 0.3792 0.0000
vt 0.4863 0.3792 1.0000
vt 0.4771 0.3384 0.0000
vt 0.4771 0.3384 1.0000
vt 0.4691 0.3000 0.0000
vt 0.4691 0.3000 1.0000
vt 0.4622 0.2641 0.0000
vt 0.4622 0.2641 1.0000
vt 0.4565 0.2306 0.0000
vt 0.4565 0.2306 1.0000
vt 0.4516 0.1982 0.0000
vt 0.4516 0.1982 1.0000
vt 0.4475 0.1656 0.0000
vt 0.4475 0.1656 1.0000
vt 0.4441 0.1327 0.0000
vt 0.4441 0.1327 1.0000
vt 0.4414 0.0995 0.0000
vt 0.4414 0.0995 1.0000
vt 0.4401 0.0791 0.0000
vt 0.4401 0.0791 1.0000
vt 0.4393 0.0583 0.0000
vt 0.4393 0.0583 1.0000
vt 0.4388 0.0370 0.0000
vt 0.4388 0.0370 1.0000
vt 0.4387 0.0154 0.0000
vt 0.4387 0.0154 1.0000
vt 0.5614 0.0154 0.0000
vt 0.5614 0.0154 1.0000
# 152 texture coords

g TextPlus001
f 1/1/1 77/2/1 78/3/1 
f 1/1/1 78/3/1 2/4/1 
f 2/4/2 78/3/2 79/5/3 
f 2/4/2 79/5/3 3/6/3 
f 3/6/3 79/5/3 80/7/4 
f 3/6/3 80/7/4 4/8/4 
f 4/8/4 80/7/4 81/9/5 
f 4/8/4 81/9/5 5/10/5 
f 5/10/5 81/9/5 82/11/6 
f 5/10/5 82/11/6 6/12/6 
f 6/12/6 82/11/6 83/13/7 
f 6/12/6 83/13/7 7/14/7 
f 7/14/7 83/13/7 84/15/8 
f 7/14/7 84/15/8 8/16/8 
f 8/16/8 84/15/8 85/17/9 
f 8/16/8 85/17/9 9/18/9 
f 9/18/9 85/17/9 86/19/10 
f 9/18/9 86/19/10 10/20/10 
f 10/20/10 86/19/10 87/21/11 
f 10/20/10 87/21/11 11/22/11 
f 11/22/11 87/21/11 88/23/12 
f 11/22/11 88/23/12 12/24/12 
f 12/24/12 88/23/12 89/25/13 
f 12/24/12 89/25/13 13/26/13 
f 13/26/13 89/25/13 90/27/14 
f 13/26/13 90/27/14 14/28/14 
f 14/28/14 90/27/14 91/29/15 
f 14/28/14 91/29/15 15/30/15 
f 15/30/15 91/29/15 92/31/16 
f 15/30/15 92/31/16 16/32/16 
f 16/32/16 92/31/16 93/33/17 
f 16/32/16 93/33/17 17/34/17 
f 17/34/17 93/33/17 94/35/18 
f 17/34/17 94/35/18 18/36/18 
f 18/36/18 94/35/18 95/37/19 
f 18/36/18 95/37/19 19/38/19 
f 19/38/19 95/37/19 96/39/20 
f 19/38/19 96/39/20 20/40/20 
f 20/40/20 96/39/20 97/41/21 
f 20/40/20 97/41/21 21/42/21 
f 21/42/21 97/41/21 98/43/22 
f 21/42/21 98/43/22 22/44/22 
f 22/44/22 98/43/22 99/45/23 
f 22/44/22 99/45/23 23/46/23 
f 23/46/23 99/45/23 100/47/24 
f 23/46/23 100/47/24 24/48/24 
f 24/48/24 100/47/24 101/49/25 
f 24/48/24 101/49/25 25/50/25 
f 25/50/25 101/49/25 102/51/26 
f 25/50/25 102/51/26 26/52/26 
f 26/52/26 102/51/26 103/53/27 
f 26/52/26 103/53/27 27/54/27 
f 27/54/27 103/53/27 104/55/28 
f 27/54/27 104/55/28 28/56/28 
f 28/56/28 104/55/28 105/57/29 
f 28/56/28 105/57/29 29/58/29 
f 29/58/29 105/57/29 106/59/30 
f 29/58/29 106/59/30 30/60/30 
f 30/60/30 106/59/30 107/61/31 
f 30/60/30 107/61/31 31/62/31 
f 31/62/31 107/61/31 108/63/32 
f 31/62/31 108/63/32 32/64/32 
f 32/64/32 108/63/32 109/65/33 
f 32/64/32 109/65/33 33/66/33 
f 33/66/33 109/65/33 110/67/34 
f 33/66/33 110/67/34 34/68/34 
f 34/68/34 110/67/34 111/69/35 
f 34/68/34 111/69/35 35/70/35 
f 35/70/35 111/69/35 112/71/36 
f 35/70/35 112/71/36 36/72/36 
f 36/72/36 112/71/36 113/73/37 
f 36/72/36 113/73/37 37/74/37 
f 37/74/37 113/73/37 114/75/38 
f 37/74/37 114/75/38 38/76/38 
f 38/76/39 114/75/39 115/77/39 
f 38/76/39 115/77/39 39/78/39 
f 39/78/40 115/77/40 116/79/41 
f 39/78/40 116/79/41 40/80/41 
f 40/80/41 116/79/41 117/81/42 
f 40/80/41 117/81/42 41/82/42 
f 41/82/42 117/81/42 118/83/43 
f 41/82/42 118/83/43 42/84/43 
f 42/84/43 118/83/43 119/85/44 
f 42/84/43 119/85/44 43/86/44 
f 43/86/44 119/85/44 120/87/45 
f 43/86/44 120/87/45 44/88/45 
f 44/88/45 120/87/45 121/89/46 
f 44/88/45 121/89/46 45/90/46 
f 45/90/46 121/89/46 122/91/47 
f 45/90/46 122/91/47 46/92/47 
f 46/92/47 122/91/47 123/93/48 
f 46/92/47 123/93/48 47/94/48 
f 47/94/48 123/93/48 124/95/49 
f 47/94/48 124/95/49 48/96/49 
f 48/96/49 124/95/49 125/97/50 
f 48/96/49 125/97/50 49/98/50 
f 49/98/50 125/97/50 126/99/51 
f 49/98/50 126/99/51 50/100/51 
f 50/100/51 126/99/51 127/101/52 
f 50/100/51 127/101/52 51/102/52 
f 51/102/52 127/101/52 128/103/53 
f 51/102/52 128/103/53 52/104/53 
f 52/104/53 128/103/53 129/105/54 
f 52/104/53 129/105/54 53/106/54 
f 53/106/54 129/105/54 130/107/55 
f 53/106/54 130/107/55 54/108/55 
f 54/108/55 130/107/55 131/109/56 
f 54/108/55 131/109/56 55/110/56 
f 55/110/56 131/109/56 132/111/57 
f 55/110/56 132/111/57 56/112/57 
f 56/112/57 132/111/57 133/113/58 
f 56/112/57 133/113/58 57/114/58 
f 57/114/58 133/113/58 134/115/59 
f 57/114/58 134/115/59 58/116/59 
f 58/116/59 134/115/59 135/117/60 
f 58/116/59 135/117/60 59/118/60 
f 59/118/60 135/117/60 136/119/61 
f 59/118/60 136/119/61 60/120/61 
f 60/120/61 136/119/61 137/121/62 
f 60/120/61 137/121/62 61/122/62 
f 61/122/62 137/121/62 138/123/63 
f 61/122/62 138/123/63 62/124/63 
f 62/124/63 138/123/63 139/125/64 
f 62/124/63 139/125/64 63/126/64 
f 63/126/64 139/125/64 140/127/65 
f 63/126/64 140/127/65 64/128/65 
f 64/128/65 140/127/65 141/129/66 
f 64/128/65 141/129/66 65/130/66 
f 65/130/66 141/129/66 142/131/67 
f 65/130/66 142/131/67 66/132/67 
f 66/132/67 142/131/67 143/133/68 
f 66/132/67 143/133/68 67/134/68 
f 67/134/68 143/133/68 144/135/69 
f 67/134/68 144/135/69 68/136/69 
f 68/136/69 144/135/69 145/137/70 
f 68/136/69 145/137/70 69/138/70 
f 69/138/70 145/137/70 146/139/71 
f 69/138/70 146/139/71 70/140/71 
f 70/140/71 146/139/71 147/141/72 
f 70/140/71 147/141/72 71/142/72 
f 71/142/72 147/141/72 148/143/73 
f 71/142/72 148/143/73 72/144/73 
f 72/144/73 148/143/73 149/145/74 
f 72/144/73 149/145/74 73/146/74 
f 73/146/74 149/145/74 150/147/75 
f 73/146/74 150/147/75 74/148/75 
f 74/148/75 150/147/75 151/149/76 
f 74/148/75 151/149/76 75/150/76 
f 75/150/77 151/149/77 152/151/77 
f 75/150/77 152/151/77 76/152/77 
f 76/152/78 152/151/78 77/2/78 
f 76/152/78 77/2/78 1/1/78 
f 37/74/79 38/76/79 39/78/79 
f 37/74/79 39/78/79 40/80/79 
f 36/72/79 37/74/79 40/80/79 
f 36/72/79 40/80/79 41/82/79 
f 35/70/79 36/72/79 41/82/79 
f 35/70/79 41/82/79 42/84/79 
f 34/68/79 35/70/79 42/84/79 
f 34/68/79 42/84/79 43/86/79 
f 33/66/79 34/68/79 43/86/79 
f 33/66/79 43/86/79 44/88/79 
f 32/64/79 33/66/79 44/88/79 
f 32/64/79 44/88/79 45/90/79 
f 31/62/79 32/64/79 45/90/79 
f 31/62/79 45/90/79 46/92/79 
f 30/60/79 31/62/79 46/92/79 
f 30/60/79 46/92/79 47/94/79 
f 29/58/79 30/60/79 47/94/79 
f 29/58/79 47/94/79 48/96/79 
f 29/58/79 48/96/79 49/98/79 
f 28/56/79 29/58/79 49/98/79 
f 28/56/79 49/98/79 50/100/79 
f 27/54/79 28/56/79 50/100/79 
f 27/54/79 50/100/79 51/102/79 
f 26/52/79 27/54/79 51/102/79 
f 26/52/79 51/102/79 52/104/79 
f 25/50/79 26/52/79 52/104/79 
f 25/50/79 52/104/79 53/106/79 
f 24/48/79 25/50/79 53/106/79 
f 74/148/79 75/150/79 76/152/79 
f 73/146/79 74/148/79 76/152/79 
f 72/144/79 73/146/79 76/152/79 
f 71/142/79 72/144/79 76/152/79 
f 70/140/79 71/142/79 76/152/79 
f 23/46/79 24/48/79 53/106/79 
f 23/46/79 53/106/79 54/108/79 
f 22/44/79 23/46/79 54/108/79 
f 22/44/79 54/108/79 55/110/79 
f 21/42/79 22/44/79 55/110/79 
f 21/42/79 55/110/79 56/112/79 
f 20/40/79 21/42/79 56/112/79 
f 19/38/79 20/40/79 56/112/79 
f 19/38/79 56/112/79 57/114/79 
f 18/36/79 19/38/79 57/114/79 
f 17/34/79 18/36/79 57/114/79 
f 17/34/79 57/114/79 58/116/79 
f 16/32/79 17/34/79 58/116/79 
f 16/32/79 58/116/79 59/118/79 
f 15/30/79 16/32/79 59/118/79 
f 14/28/79 15/30/79 59/118/79 
f 14/28/79 59/118/79 60/120/79 
f 13/26/79 14/28/79 60/120/79 
f 13/26/79 60/120/79 61/122/79 
f 12/24/79 13/26/79 61/122/79 
f 11/22/79 12/24/79 61/122/79 
f 11/22/79 61/122/79 62/124/79 
f 10/20/79 11/22/79 62/124/79 
f 10/20/79 62/124/79 63/126/79 
f 9/18/79 10/20/79 63/126/79 
f 9/18/79 63/126/79 64/128/79 
f 8/16/79 9/18/79 64/128/79 
f 8/16/79 64/128/79 65/130/79 
f 7/14/79 8/16/79 65/130/79 
f 7/14/79 65/130/79 66/132/79 
f 6/12/79 7/14/79 66/132/79 
f 5/10/79 6/12/79 66/132/79 
f 5/10/79 66/132/79 67/134/79 
f 4/8/79 5/10/79 67/134/79 
f 3/6/79 4/8/79 67/134/79 
f 3/6/79 67/134/79 68/136/79 
f 2/4/79 3/6/79 68/136/79 
f 76/152/79 1/1/79 2/4/79 
f 70/140/79 76/152/79 2/4/79 
f 70/140/79 2/4/79 68/136/79 
f 70/140/79 68/136/79 69/138/79 
f 113/73/80 115/77/80 114/75/80 
f 113/73/80 116/79/80 115/77/80 
f 112/71/80 116/79/80 113/73/80 
f 112/71/80 117/81/80 116/79/80 
f 111/69/80 117/81/80 112/71/80 
f 111/69/80 118/83/80 117/81/80 
f 110/67/80 118/83/80 111/69/80 
f 110/67/80 119/85/80 118/83/80 
f 109/65/80 119/85/80 110/67/80 
f 109/65/80 120/87/80 119/85/80 
f 108/63/80 120/87/80 109/65/80 
f 108/63/80 121/89/80 120/87/80 
f 107/61/80 121/89/80 108/63/80 
f 107/61/80 122/91/80 121/89/80 
f 106/59/80 122/91/80 107/61/80 
f 106/59/80 123/93/80 122/91/80 
f 105/57/80 123/93/80 106/59/80 
f 105/57/80 124/95/80 123/93/80 
f 105/57/80 125/97/80 124/95/80 
f 104/55/80 125/97/80 105/57/80 
f 104/55/80 126/99/80 125/97/80 
f 103/53/80 126/99/80 104/55/80 
f 103/53/80 127/101/80 126/99/80 
f 102/51/80 127/101/80 103/53/80 
f 102/51/80 128/103/80 127/101/80 
f 101/49/80 128/103/80 102/51/80 
f 101/49/80 129/105/80 128/103/80 
f 100/47/80 129/105/80 101/49/80 
f 150/147/80 152/151/80 151/149/80 
f 149/145/80 152/151/80 150/147/80 
f 148/143/80 152/151/80 149/145/80 
f 147/141/80 152/151/80 148/143/80 
f 146/139/80 152/151/80 147/141/80 
f 99/45/80 129/105/80 100/47/80 
f 99/45/80 130/107/80 129/105/80 
f 98/43/80 130/107/80 99/45/80 
f 98/43/80 131/109/80 130/107/80 
f 97/41/80 131/109/80 98/43/80 
f 97/41/80 132/111/80 131/109/80 
f 96/39/80 132/111/80 97/41/80 
f 95/37/80 132/111/80 96/39/80 
f 95/37/80 133/113/80 132/111/80 
f 94/35/80 133/113/80 95/37/80 
f 93/33/80 133/113/80 94/35/80 
f 93/33/80 134/115/80 133/113/80 
f 92/31/80 134/115/80 93/33/80 
f 92/31/80 135/117/80 134/115/80 
f 91/29/80 135/117/80 92/31/80 
f 90/27/80 135/117/80 91/29/80 
f 90/27/80 136/119/80 135/117/80 
f 89/25/80 136/119/80 90/27/80 
f 89/25/80 137/121/80 136/119/80 
f 88/23/80 137/121/80 89/25/80 
f 87/21/80 137/121/80 88/23/80 
f 87/21/80 138/123/80 137/121/80 
f 86/19/80 138/123/80 87/21/80 
f 86/19/80 139/125/80 138/123/80 
f 85/17/80 139/125/80 86/19/80 
f 85/17/80 140/127/80 139/125/80 
f 84/15/80 140/127/80 85/17/80 
f 84/15/80 141/129/80 140/127/80 
f 83/13/80 141/129/80 84/15/80 
f 83/13/80 142/131/80 141/129/80 
f 82/11/80 142/131/80 83/13/80 
f 81/9/80 142/131/80 82/11/80 
f 81/9/80 143/133/80 142/131/80 
f 80/7/80 143/133/80 81/9/80 
f 79/5/80 143/133/80 80/7/80 
f 79/5/80 144/135/80 143/133/80 
f 78/3/80 144/135/80 79/5/80 
f 152/151/80 78/3/80 77/2/80 
f 146/139/80 78/3/80 152/151/80 
f 146/139/80 144/135/80 78/3/80 
f 146/139/80 145/137/80 144/135/80 
# 300 faces

