# 3ds Max Wavefront OBJ Exporter v0.97b - (c)2007 guruware
# File Created: 07.12.2017 19:18:13

#
# object TextPlus001
#

v  -0.0018 0.2486 1.0001
v  0.0074 0.1975 1.0001
v  0.0245 0.1516 1.0001
v  0.0494 0.1111 1.0001
v  0.0822 0.0759 1.0001
v  0.1216 0.0474 1.0001
v  0.1664 0.0270 1.0001
v  0.2165 0.0148 1.0001
v  0.2719 0.0107 1.0001
v  0.3391 0.0172 1.0001
v  0.3988 0.0366 1.0001
v  0.4509 0.0689 1.0001
v  0.4957 0.1142 1.0001
v  0.5251 0.1583 1.0001
v  0.5462 0.2063 1.0001
v  0.5589 0.2582 1.0001
v  0.5631 0.3141 1.0001
v  0.5583 0.3721 1.0001
v  0.5439 0.4245 1.0001
v  0.5199 0.4714 1.0001
v  0.4863 0.5129 1.0001
v  0.4458 0.5467 1.0001
v  0.4009 0.5708 1.0001
v  0.3516 0.5853 1.0001
v  0.2980 0.5902 1.0001
v  0.2563 0.5868 1.0001
v  0.2156 0.5769 1.0001
v  0.1758 0.5603 1.0001
v  0.1369 0.5371 1.0001
v  0.1830 0.7669 1.0001
v  0.5232 0.7669 1.0001
v  0.5232 0.8666 1.0001
v  0.0992 0.8666 1.0001
v  0.0168 0.4280 1.0001
v  0.1152 0.4147 1.0001
v  0.1279 0.4324 1.0001
v  0.1428 0.4484 1.0001
v  0.1597 0.4627 1.0001
v  0.1789 0.4752 1.0001
v  0.1998 0.4854 1.0001
v  0.2220 0.4926 1.0001
v  0.2456 0.4970 1.0001
v  0.2706 0.4985 1.0001
v  0.3098 0.4952 1.0001
v  0.3449 0.4855 1.0001
v  0.3759 0.4693 1.0001
v  0.4029 0.4467 1.0001
v  0.4247 0.4184 1.0001
v  0.4403 0.3855 1.0001
v  0.4496 0.3478 1.0001
v  0.4528 0.3053 1.0001
v  0.4495 0.2605 1.0001
v  0.4398 0.2204 1.0001
v  0.4236 0.1849 1.0001
v  0.4009 0.1541 1.0001
v  0.3735 0.1292 1.0001
v  0.3429 0.1113 1.0001
v  0.3093 0.1007 1.0001
v  0.2725 0.0971 1.0001
v  0.2420 0.0996 1.0001
v  0.2139 0.1071 1.0001
v  0.1882 0.1196 1.0001
v  0.1649 0.1371 1.0001
v  0.1448 0.1596 1.0001
v  0.1287 0.1870 1.0001
v  0.1166 0.2193 1.0001
v  0.1085 0.2566 1.0001
v  -0.0018 0.2486 1.0000
v  0.0074 0.1975 1.0000
v  0.0245 0.1516 1.0000
v  0.0494 0.1111 1.0000
v  0.0822 0.0759 1.0000
v  0.1216 0.0474 1.0000
v  0.1664 0.0270 1.0000
v  0.2165 0.0148 1.0000
v  0.2719 0.0107 1.0000
v  0.3391 0.0172 1.0000
v  0.3988 0.0366 1.0000
v  0.4509 0.0689 1.0000
v  0.4957 0.1142 1.0000
v  0.5251 0.1583 1.0000
v  0.5462 0.2063 1.0000
v  0.5589 0.2582 1.0000
v  0.5631 0.3141 1.0000
v  0.5583 0.3721 1.0000
v  0.5439 0.4245 1.0000
v  0.5199 0.4714 1.0000
v  0.4863 0.5129 1.0000
v  0.4458 0.5467 1.0000
v  0.4009 0.5708 1.0000
v  0.3516 0.5853 1.0000
v  0.2980 0.5902 1.0000
v  0.2563 0.5868 1.0000
v  0.2156 0.5769 1.0000
v  0.1758 0.5603 1.0000
v  0.1369 0.5371 1.0000
v  0.1830 0.7669 1.0000
v  0.5232 0.7669 1.0000
v  0.5232 0.8666 1.0000
v  0.0992 0.8666 1.0000
v  0.0168 0.4280 1.0000
v  0.1152 0.4147 1.0000
v  0.1279 0.4324 1.0000
v  0.1428 0.4484 1.0000
v  0.1597 0.4627 1.0000
v  0.1789 0.4752 1.0000
v  0.1998 0.4854 1.0000
v  0.2220 0.4926 1.0000
v  0.2456 0.4970 1.0000
v  0.2706 0.4985 1.0000
v  0.3098 0.4952 1.0000
v  0.3449 0.4855 1.0000
v  0.3759 0.4693 1.0000
v  0.4029 0.4467 1.0000
v  0.4247 0.4184 1.0000
v  0.4403 0.3855 1.0000
v  0.4496 0.3478 1.0000
v  0.4528 0.3053 1.0000
v  0.4495 0.2605 1.0000
v  0.4398 0.2204 1.0000
v  0.4236 0.1849 1.0000
v  0.4009 0.1541 1.0000
v  0.3735 0.1292 1.0000
v  0.3429 0.1113 1.0000
v  0.3093 0.1007 1.0000
v  0.2725 0.0971 1.0000
v  0.2420 0.0996 1.0000
v  0.2139 0.1071 1.0000
v  0.1882 0.1196 1.0000
v  0.1649 0.1371 1.0000
v  0.1448 0.1596 1.0000
v  0.1287 0.1870 1.0000
v  0.1166 0.2193 1.0000
v  0.1085 0.2566 1.0000
# 134 vertices

vn -0.9843 -0.1765 -0.0000
vn -0.9646 -0.2636 -0.0000
vn -0.8988 -0.4384 -0.0000
vn -0.7956 -0.6058 -0.0000
vn -0.6619 -0.7496 -0.0000
vn -0.5024 -0.8646 -0.0000
vn -0.3269 -0.9451 -0.0000
vn -0.1556 -0.9878 -0.0000
vn 0.0113 -0.9999 -0.0000
vn 0.2037 -0.9790 -0.0000
vn 0.4209 -0.9071 -0.0000
vn 0.6234 -0.7819 -0.0000
vn 0.7748 -0.6322 -0.0000
vn 0.8769 -0.4807 -0.0000
vn 0.9473 -0.3203 -0.0000
vn 0.9877 -0.1563 -0.0000
vn 1.0000 0.0036 0.0000
vn 0.9847 0.1743 0.0000
vn 0.9323 0.3617 0.0000
vn 0.8382 0.5454 0.0000
vn 0.7120 0.7022 0.0000
vn 0.5599 0.8285 0.0000
vn 0.3800 0.9250 0.0000
vn 0.1869 0.9824 0.0000
vn 0.0052 1.0000 0.0000
vn -0.1588 0.9873 0.0000
vn -0.3119 0.9501 0.0000
vn -0.4500 0.8930 0.0000
vn -0.5130 0.8584 0.0000
vn 0.9805 -0.1964 -0.0000
vn 0.0000 -1.0000 -0.0000
vn 1.0000 0.0000 -0.0000
vn 0.0000 1.0000 0.0000
vn -0.9828 0.1846 0.0000
vn -0.1339 -0.9910 -0.0000
vn 0.8124 -0.5831 -0.0000
vn 0.7740 -0.6332 -0.0000
vn 0.6887 -0.7250 -0.0000
vn 0.5959 -0.8031 -0.0000
vn 0.4938 -0.8696 -0.0000
vn 0.3756 -0.9268 -0.0000
vn 0.2470 -0.9690 -0.0000
vn 0.1203 -0.9927 -0.0000
vn -0.0121 -0.9999 -0.0000
vn -0.1751 -0.9846 -0.0000
vn -0.3663 -0.9305 -0.0000
vn -0.5560 -0.8312 -0.0000
vn -0.7215 -0.6924 -0.0000
vn -0.8528 -0.5222 -0.0000
vn -0.9420 -0.3355 -0.0000
vn -0.9875 -0.1575 -0.0000
vn -1.0000 -0.0005 -0.0000
vn -0.9880 0.1543 0.0000
vn -0.9451 0.3268 0.0000
vn -0.8622 0.5066 0.0000
vn -0.7426 0.6697 0.0000
vn -0.5912 0.8065 0.0000
vn -0.4056 0.9140 0.0000
vn -0.2007 0.9796 0.0000
vn -0.0074 1.0000 0.0000
vn -0.0075 1.0000 0.0000
vn 0.1705 0.9854 0.0000
vn 0.3494 0.9370 0.0000
vn 0.5217 0.8531 0.0000
vn 0.6766 0.7363 0.0000
vn 0.8080 0.5891 0.0000
vn 0.9029 0.4299 0.0000
vn 0.9594 0.2821 0.0000
vn 0.9772 0.2125 0.0000
vn -0.0721 0.9974 0.0000
vn 0.0000 -0.0000 1.0000
vn 0.0000 0.0000 -1.0000
# 72 vertex normals

vt 0.4387 0.2734 1.0000
vt 0.4387 0.2734 0.0000
vt 0.4406 0.2143 0.0000
vt 0.4406 0.2143 1.0000
vt 0.4444 0.1613 0.0000
vt 0.4444 0.1613 1.0000
vt 0.4498 0.1145 0.0000
vt 0.4498 0.1145 1.0000
vt 0.4569 0.0738 0.0000
vt 0.4569 0.0738 1.0000
vt 0.4655 0.0408 0.0000
vt 0.4655 0.0408 1.0000
vt 0.4752 0.0173 0.0000
vt 0.4752 0.0173 1.0000
vt 0.4861 0.0032 0.0000
vt 0.4861 0.0032 1.0000
vt 0.4981 -0.0015 0.0000
vt 0.4981 -0.0015 1.0000
vt 0.5127 0.0059 0.0000
vt 0.5127 0.0059 1.0000
vt 0.5257 0.0284 0.0000
vt 0.5257 0.0284 1.0000
vt 0.5370 0.0657 0.0000
vt 0.5370 0.0657 1.0000
vt 0.5467 0.1180 0.0000
vt 0.5467 0.1180 1.0000
vt 0.5531 0.1690 0.0000
vt 0.5531 0.1690 1.0000
vt 0.5577 0.2245 0.0000
vt 0.5577 0.2245 1.0000
vt 0.5604 0.2846 0.0000
vt 0.5604 0.2846 1.0000
vt 0.5613 0.3491 0.0000
vt 0.5613 0.3491 1.0000
vt 0.5603 0.4161 0.0000
vt 0.5603 0.4161 1.0000
vt 0.5572 0.4768 0.0000
vt 0.5572 0.4768 1.0000
vt 0.5520 0.5310 0.0000
vt 0.5520 0.5310 1.0000
vt 0.5447 0.5789 0.0000
vt 0.5447 0.5789 1.0000
vt 0.5359 0.6179 0.0000
vt 0.5359 0.6179 1.0000
vt 0.5261 0.6459 0.0000
vt 0.5261 0.6459 1.0000
vt 0.5154 0.6626 0.0000
vt 0.5154 0.6626 1.0000
vt 0.5038 0.6682 0.0000
vt 0.5038 0.6682 1.0000
vt 0.4947 0.6644 0.0000
vt 0.4947 0.6644 1.0000
vt 0.4859 0.6529 0.0000
vt 0.4859 0.6529 1.0000
vt 0.4772 0.6337 0.0000
vt 0.4772 0.6337 1.0000
vt 0.4688 0.6069 0.0000
vt 0.4688 0.6069 1.0000
vt 0.4788 0.8725 0.0000
vt 0.4788 0.8725 1.0000
vt 0.5527 0.8725 0.0000
vt 0.5527 0.8725 1.0000
vt 0.5527 0.9877 0.0000
vt 0.5527 0.9877 1.0000
vt 0.4606 0.9877 0.0000
vt 0.4606 0.9877 1.0000
vt 0.4427 0.4808 0.0000
vt 0.4427 0.4808 1.0000
vt 0.4641 0.4654 0.0000
vt 0.4641 0.4654 1.0000
vt 0.4668 0.4859 0.0000
vt 0.4668 0.4859 1.0000
vt 0.4700 0.5044 0.0000
vt 0.4700 0.5044 1.0000
vt 0.4737 0.5208 0.0000
vt 0.4737 0.5208 1.0000
vt 0.4779 0.5353 0.0000
vt 0.4779 0.5353 1.0000
vt 0.4824 0.5471 0.0000
vt 0.4824 0.5471 1.0000
vt 0.4873 0.5555 0.0000
vt 0.4873 0.5555 1.0000
vt 0.4924 0.5605 0.0000
vt 0.4924 0.5605 1.0000
vt 0.4978 0.5622 0.0000
vt 0.4978 0.5622 1.0000
vt 0.5063 0.5585 0.0000
vt 0.5063 0.5585 1.0000
vt 0.5140 0.5473 0.0000
vt 0.5140 0.5473 1.0000
vt 0.5207 0.5286 0.0000
vt 0.5207 0.5286 1.0000
vt 0.5266 0.5024 0.0000
vt 0.5266 0.5024 1.0000
vt 0.5313 0.4697 0.0000
vt 0.5313 0.4697 1.0000
vt 0.5347 0.4316 0.0000
vt 0.5347 0.4316 1.0000
vt 0.5367 0.3880 0.0000
vt 0.5367 0.3880 1.0000
vt 0.5374 0.3390 0.0000
vt 0.5374 0.3390 1.0000
vt 0.5367 0.2872 0.0000
vt 0.5367 0.2872 1.0000
vt 0.5346 0.2408 0.0000
vt 0.5346 0.2408 1.0000
vt 0.5311 0.1998 0.0000
vt 0.5311 0.1998 1.0000
vt 0.5261 0.1642 0.0000
vt 0.5261 0.1642 1.0000
vt 0.5202 0.1354 0.0000
vt 0.5202 0.1354 1.0000
vt 0.5135 0.1148 0.0000
vt 0.5135 0.1148 1.0000
vt 0.5062 0.1024 0.0000
vt 0.5062 0.1024 1.0000
vt 0.4982 0.0983 0.0000
vt 0.4982 0.0983 1.0000
vt 0.4916 0.1012 0.0000
vt 0.4916 0.1012 1.0000
vt 0.4855 0.1099 0.0000
vt 0.4855 0.1099 1.0000
vt 0.4799 0.1243 0.0000
vt 0.4799 0.1243 1.0000
vt 0.4749 0.1446 0.0000
vt 0.4749 0.1446 1.0000
vt 0.4705 0.1705 0.0000
vt 0.4705 0.1705 1.0000
vt 0.4670 0.2022 0.0000
vt 0.4670 0.2022 1.0000
vt 0.4644 0.2396 0.0000
vt 0.4644 0.2396 1.0000
vt 0.4626 0.2826 0.0000
vt 0.4626 0.2826 1.0000
# 134 texture coords

g TextPlus001
f 1/1/1 68/2/1 69/3/2 
f 1/1/1 69/3/2 2/4/2 
f 2/4/2 69/3/2 70/5/3 
f 2/4/2 70/5/3 3/6/3 
f 3/6/3 70/5/3 71/7/4 
f 3/6/3 71/7/4 4/8/4 
f 4/8/4 71/7/4 72/9/5 
f 4/8/4 72/9/5 5/10/5 
f 5/10/5 72/9/5 73/11/6 
f 5/10/5 73/11/6 6/12/6 
f 6/12/6 73/11/6 74/13/7 
f 6/12/6 74/13/7 7/14/7 
f 7/14/7 74/13/7 75/15/8 
f 7/14/7 75/15/8 8/16/8 
f 8/16/8 75/15/8 76/17/9 
f 8/16/8 76/17/9 9/18/9 
f 9/18/9 76/17/9 77/19/10 
f 9/18/9 77/19/10 10/20/10 
f 10/20/10 77/19/10 78/21/11 
f 10/20/10 78/21/11 11/22/11 
f 11/22/11 78/21/11 79/23/12 
f 11/22/11 79/23/12 12/24/12 
f 12/24/12 79/23/12 80/25/13 
f 12/24/12 80/25/13 13/26/13 
f 13/26/13 80/25/13 81/27/14 
f 13/26/13 81/27/14 14/28/14 
f 14/28/14 81/27/14 82/29/15 
f 14/28/14 82/29/15 15/30/15 
f 15/30/15 82/29/15 83/31/16 
f 15/30/15 83/31/16 16/32/16 
f 16/32/16 83/31/16 84/33/17 
f 16/32/16 84/33/17 17/34/17 
f 17/34/17 84/33/17 85/35/18 
f 17/34/17 85/35/18 18/36/18 
f 18/36/18 85/35/18 86/37/19 
f 18/36/18 86/37/19 19/38/19 
f 19/38/19 86/37/19 87/39/20 
f 19/38/19 87/39/20 20/40/20 
f 20/40/20 87/39/20 88/41/21 
f 20/40/20 88/41/21 21/42/21 
f 21/42/21 88/41/21 89/43/22 
f 21/42/21 89/43/22 22/44/22 
f 22/44/22 89/43/22 90/45/23 
f 22/44/22 90/45/23 23/46/23 
f 23/46/23 90/45/23 91/47/24 
f 23/46/23 91/47/24 24/48/24 
f 24/48/24 91/47/24 92/49/25 
f 24/48/24 92/49/25 25/50/25 
f 25/50/25 92/49/25 93/51/26 
f 25/50/25 93/51/26 26/52/26 
f 26/52/26 93/51/26 94/53/27 
f 26/52/26 94/53/27 27/54/27 
f 27/54/27 94/53/27 95/55/28 
f 27/54/27 95/55/28 28/56/28 
f 28/56/28 95/55/28 96/57/29 
f 28/56/28 96/57/29 29/58/29 
f 29/58/30 96/57/30 97/59/30 
f 29/58/30 97/59/30 30/60/30 
f 30/60/31 97/59/31 98/61/31 
f 30/60/31 98/61/31 31/62/31 
f 31/62/32 98/61/32 99/63/32 
f 31/62/32 99/63/32 32/64/32 
f 32/64/33 99/63/33 100/65/33 
f 32/64/33 100/65/33 33/66/33 
f 33/66/34 100/65/34 101/67/34 
f 33/66/34 101/67/34 34/68/34 
f 34/68/35 101/67/35 102/69/35 
f 34/68/35 102/69/35 35/70/35 
f 35/70/36 102/69/36 103/71/37 
f 35/70/36 103/71/37 36/72/37 
f 36/72/37 103/71/37 104/73/38 
f 36/72/37 104/73/38 37/74/38 
f 37/74/38 104/73/38 105/75/39 
f 37/74/38 105/75/39 38/76/39 
f 38/76/39 105/75/39 106/77/40 
f 38/76/39 106/77/40 39/78/40 
f 39/78/40 106/77/40 107/79/41 
f 39/78/40 107/79/41 40/80/41 
f 40/80/41 107/79/41 108/81/42 
f 40/80/41 108/81/42 41/82/42 
f 41/82/42 108/81/42 109/83/43 
f 41/82/42 109/83/43 42/84/43 
f 42/84/43 109/83/43 110/85/44 
f 42/84/43 110/85/44 43/86/44 
f 43/86/44 110/85/44 111/87/45 
f 43/86/44 111/87/45 44/88/45 
f 44/88/45 111/87/45 112/89/46 
f 44/88/45 112/89/46 45/90/46 
f 45/90/46 112/89/46 113/91/47 
f 45/90/46 113/91/47 46/92/47 
f 46/92/47 113/91/47 114/93/48 
f 46/92/47 114/93/48 47/94/48 
f 47/94/48 114/93/48 115/95/49 
f 47/94/48 115/95/49 48/96/49 
f 48/96/49 115/95/49 116/97/50 
f 48/96/49 116/97/50 49/98/50 
f 49/98/50 116/97/50 117/99/51 
f 49/98/50 117/99/51 50/100/51 
f 50/100/51 117/99/51 118/101/52 
f 50/100/51 118/101/52 51/102/52 
f 51/102/52 118/101/52 119/103/53 
f 51/102/52 119/103/53 52/104/53 
f 52/104/53 119/103/53 120/105/54 
f 52/104/53 120/105/54 53/106/54 
f 53/106/54 120/105/54 121/107/55 
f 53/106/54 121/107/55 54/108/55 
f 54/108/55 121/107/55 122/109/56 
f 54/108/55 122/109/56 55/110/56 
f 55/110/56 122/109/56 123/111/57 
f 55/110/56 123/111/57 56/112/57 
f 56/112/57 123/111/57 124/113/58 
f 56/112/57 124/113/58 57/114/58 
f 57/114/58 124/113/58 125/115/59 
f 57/114/58 125/115/59 58/116/59 
f 58/116/59 125/115/59 126/117/60 
f 58/116/59 126/117/60 59/118/61 
f 59/118/61 126/117/60 127/119/62 
f 59/118/61 127/119/62 60/120/62 
f 60/120/62 127/119/62 128/121/63 
f 60/120/62 128/121/63 61/122/63 
f 61/122/63 128/121/63 129/123/64 
f 61/122/63 129/123/64 62/124/64 
f 62/124/64 129/123/64 130/125/65 
f 62/124/64 130/125/65 63/126/65 
f 63/126/65 130/125/65 131/127/66 
f 63/126/65 131/127/66 64/128/66 
f 64/128/66 131/127/66 132/129/67 
f 64/128/66 132/129/67 65/130/67 
f 65/130/67 132/129/67 133/131/68 
f 65/130/67 133/131/68 66/132/68 
f 66/132/68 133/131/68 134/133/69 
f 66/132/68 134/133/69 67/134/69 
f 67/134/70 134/133/70 68/2/70 
f 67/134/70 68/2/70 1/1/70 
f 67/134/71 1/1/71 2/4/71 
f 66/132/71 67/134/71 2/4/71 
f 66/132/71 2/4/71 3/6/71 
f 65/130/71 66/132/71 3/6/71 
f 65/130/71 3/6/71 4/8/71 
f 64/128/71 65/130/71 4/8/71 
f 64/128/71 4/8/71 5/10/71 
f 63/126/71 64/128/71 5/10/71 
f 63/126/71 5/10/71 6/12/71 
f 62/124/71 63/126/71 6/12/71 
f 62/124/71 6/12/71 7/14/71 
f 61/122/71 62/124/71 7/14/71 
f 61/122/71 7/14/71 8/16/71 
f 60/120/71 61/122/71 8/16/71 
f 60/120/71 8/16/71 9/18/71 
f 59/118/71 60/120/71 9/18/71 
f 59/118/71 9/18/71 10/20/71 
f 58/116/71 59/118/71 10/20/71 
f 33/66/71 34/68/71 35/70/71 
f 33/66/71 35/70/71 36/72/71 
f 33/66/71 36/72/71 37/74/71 
f 57/114/71 58/116/71 10/20/71 
f 57/114/71 10/20/71 11/22/71 
f 56/112/71 57/114/71 11/22/71 
f 56/112/71 11/22/71 12/24/71 
f 55/110/71 56/112/71 12/24/71 
f 55/110/71 12/24/71 13/26/71 
f 54/108/71 55/110/71 13/26/71 
f 54/108/71 13/26/71 14/28/71 
f 53/106/71 54/108/71 14/28/71 
f 53/106/71 14/28/71 15/30/71 
f 52/104/71 53/106/71 15/30/71 
f 52/104/71 15/30/71 16/32/71 
f 51/102/71 52/104/71 16/32/71 
f 51/102/71 16/32/71 17/34/71 
f 50/100/71 51/102/71 17/34/71 
f 50/100/71 17/34/71 18/36/71 
f 50/100/71 18/36/71 19/38/71 
f 49/98/71 50/100/71 19/38/71 
f 49/98/71 19/38/71 20/40/71 
f 48/96/71 49/98/71 20/40/71 
f 48/96/71 20/40/71 21/42/71 
f 47/94/71 48/96/71 21/42/71 
f 47/94/71 21/42/71 22/44/71 
f 46/92/71 47/94/71 22/44/71 
f 46/92/71 22/44/71 23/46/71 
f 45/90/71 46/92/71 23/46/71 
f 45/90/71 23/46/71 24/48/71 
f 44/88/71 45/90/71 24/48/71 
f 44/88/71 24/48/71 25/50/71 
f 43/86/71 44/88/71 25/50/71 
f 43/86/71 25/50/71 26/52/71 
f 42/84/71 43/86/71 26/52/71 
f 42/84/71 26/52/71 27/54/71 
f 41/82/71 42/84/71 27/54/71 
f 41/82/71 27/54/71 28/56/71 
f 40/80/71 41/82/71 28/56/71 
f 40/80/71 28/56/71 29/58/71 
f 39/78/71 40/80/71 29/58/71 
f 38/76/71 39/78/71 29/58/71 
f 31/62/71 32/64/71 33/66/71 
f 30/60/71 31/62/71 33/66/71 
f 37/74/71 38/76/71 29/58/71 
f 33/66/71 37/74/71 29/58/71 
f 33/66/71 29/58/71 30/60/71 
f 134/133/72 69/3/72 68/2/72 
f 133/131/72 69/3/72 134/133/72 
f 133/131/72 70/5/72 69/3/72 
f 132/129/72 70/5/72 133/131/72 
f 132/129/72 71/7/72 70/5/72 
f 131/127/72 71/7/72 132/129/72 
f 131/127/72 72/9/72 71/7/72 
f 130/125/72 72/9/72 131/127/72 
f 130/125/72 73/11/72 72/9/72 
f 129/123/72 73/11/72 130/125/72 
f 129/123/72 74/13/72 73/11/72 
f 128/121/72 74/13/72 129/123/72 
f 128/121/72 75/15/72 74/13/72 
f 127/119/72 75/15/72 128/121/72 
f 127/119/72 76/17/72 75/15/72 
f 126/117/72 76/17/72 127/119/72 
f 126/117/72 77/19/72 76/17/72 
f 125/115/72 77/19/72 126/117/72 
f 100/65/72 102/69/72 101/67/72 
f 100/65/72 103/71/72 102/69/72 
f 100/65/72 104/73/72 103/71/72 
f 124/113/72 77/19/72 125/115/72 
f 124/113/72 78/21/72 77/19/72 
f 123/111/72 78/21/72 124/113/72 
f 123/111/72 79/23/72 78/21/72 
f 122/109/72 79/23/72 123/111/72 
f 122/109/72 80/25/72 79/23/72 
f 121/107/72 80/25/72 122/109/72 
f 121/107/72 81/27/72 80/25/72 
f 120/105/72 81/27/72 121/107/72 
f 120/105/72 82/29/72 81/27/72 
f 119/103/72 82/29/72 120/105/72 
f 119/103/72 83/31/72 82/29/72 
f 118/101/72 83/31/72 119/103/72 
f 118/101/72 84/33/72 83/31/72 
f 117/99/72 84/33/72 118/101/72 
f 117/99/72 85/35/72 84/33/72 
f 117/99/72 86/37/72 85/35/72 
f 116/97/72 86/37/72 117/99/72 
f 116/97/72 87/39/72 86/37/72 
f 115/95/72 87/39/72 116/97/72 
f 115/95/72 88/41/72 87/39/72 
f 114/93/72 88/41/72 115/95/72 
f 114/93/72 89/43/72 88/41/72 
f 113/91/72 89/43/72 114/93/72 
f 113/91/72 90/45/72 89/43/72 
f 112/89/72 90/45/72 113/91/72 
f 112/89/72 91/47/72 90/45/72 
f 111/87/72 91/47/72 112/89/72 
f 111/87/72 92/49/72 91/47/72 
f 110/85/72 92/49/72 111/87/72 
f 110/85/72 93/51/72 92/49/72 
f 109/83/72 93/51/72 110/85/72 
f 109/83/72 94/53/72 93/51/72 
f 108/81/72 94/53/72 109/83/72 
f 108/81/72 95/55/72 94/53/72 
f 107/79/72 95/55/72 108/81/72 
f 107/79/72 96/57/72 95/55/72 
f 106/77/72 96/57/72 107/79/72 
f 105/75/72 96/57/72 106/77/72 
f 98/61/72 100/65/72 99/63/72 
f 97/59/72 100/65/72 98/61/72 
f 104/73/72 96/57/72 105/75/72 
f 100/65/72 96/57/72 104/73/72 
f 100/65/72 97/59/72 96/57/72 
# 264 faces

