# 3ds Max Wavefront OBJ Exporter v0.97b - (c)2007 guruware
# File Created: 07.12.2017 20:24:41

#
# object TextPlus001
#

v  0.5026 0.8772 1.0001
v  0.5026 0.3851 1.0001
v  0.4993 0.3113 1.0001
v  0.4894 0.2506 1.0001
v  0.4729 0.2029 1.0001
v  0.4498 0.1681 1.0001
v  0.4189 0.1435 1.0001
v  0.3791 0.1258 1.0001
v  0.3304 0.1152 1.0001
v  0.2728 0.1117 1.0001
v  0.2380 0.1135 1.0001
v  0.2059 0.1188 1.0001
v  0.1766 0.1277 1.0001
v  0.1501 0.1402 1.0001
v  0.1269 0.1560 1.0001
v  0.1073 0.1748 1.0001
v  0.0915 0.1965 1.0001
v  0.0793 0.2214 1.0001
v  0.0703 0.2513 1.0001
v  0.0639 0.2886 1.0001
v  0.0600 0.3332 1.0001
v  0.0587 0.3851 1.0001
v  0.0587 0.8772 1.0001
v  -0.0543 0.8772 1.0001
v  -0.0543 0.3850 1.0001
v  -0.0522 0.3208 1.0001
v  -0.0461 0.2639 1.0001
v  -0.0360 0.2141 1.0001
v  -0.0217 0.1714 1.0001
v  -0.0027 0.1346 1.0001
v  0.0217 0.1025 1.0001
v  0.0516 0.0749 1.0001
v  0.0869 0.0520 1.0001
v  0.1277 0.0339 1.0001
v  0.1739 0.0210 1.0001
v  0.2256 0.0133 1.0001
v  0.2827 0.0107 1.0001
v  0.3413 0.0137 1.0001
v  0.3940 0.0226 1.0001
v  0.4408 0.0374 1.0001
v  0.4817 0.0581 1.0001
v  0.5166 0.0835 1.0001
v  0.5458 0.1125 1.0001
v  0.5691 0.1450 1.0001
v  0.5865 0.1810 1.0001
v  0.5992 0.2221 1.0001
v  0.6083 0.2698 1.0001
v  0.6137 0.3241 1.0001
v  0.6156 0.3850 1.0001
v  0.6156 0.8772 1.0001
v  0.5026 0.8772 1.0000
v  0.5026 0.3851 1.0000
v  0.4993 0.3113 1.0000
v  0.4894 0.2506 1.0000
v  0.4729 0.2029 1.0000
v  0.4498 0.1681 1.0000
v  0.4189 0.1435 1.0000
v  0.3791 0.1258 1.0000
v  0.3304 0.1152 1.0000
v  0.2728 0.1117 1.0000
v  0.2380 0.1135 1.0000
v  0.2059 0.1188 1.0000
v  0.1766 0.1277 1.0000
v  0.1501 0.1402 1.0000
v  0.1269 0.1560 1.0000
v  0.1073 0.1748 1.0000
v  0.0915 0.1965 1.0000
v  0.0793 0.2214 1.0000
v  0.0703 0.2513 1.0000
v  0.0639 0.2886 1.0000
v  0.0600 0.3332 1.0000
v  0.0587 0.3851 1.0000
v  0.0587 0.8772 1.0000
v  -0.0543 0.8772 1.0000
v  -0.0543 0.3850 1.0000
v  -0.0522 0.3208 1.0000
v  -0.0461 0.2639 1.0000
v  -0.0360 0.2141 1.0000
v  -0.0217 0.1714 1.0000
v  -0.0027 0.1346 1.0000
v  0.0217 0.1025 1.0000
v  0.0516 0.0749 1.0000
v  0.0869 0.0520 1.0000
v  0.1277 0.0339 1.0000
v  0.1739 0.0210 1.0000
v  0.2256 0.0133 1.0000
v  0.2827 0.0107 1.0000
v  0.3413 0.0137 1.0000
v  0.3940 0.0226 1.0000
v  0.4408 0.0374 1.0000
v  0.4817 0.0581 1.0000
v  0.5166 0.0835 1.0000
v  0.5458 0.1125 1.0000
v  0.5691 0.1450 1.0000
v  0.5865 0.1810 1.0000
v  0.5992 0.2221 1.0000
v  0.6083 0.2698 1.0000
v  0.6137 0.3241 1.0000
v  0.6156 0.3850 1.0000
v  0.6156 0.8772 1.0000
# 100 vertices

vn -1.0000 0.0000 -0.0000
vn -0.9998 0.0224 0.0000
vn -0.9998 0.0223 0.0000
vn -0.9947 0.1029 0.0000
vn -0.9696 0.2447 0.0000
vn -0.8961 0.4439 0.0000
vn -0.7373 0.6755 0.0000
vn -0.5192 0.8547 0.0000
vn -0.3103 0.9506 0.0000
vn -0.1371 0.9906 0.0000
vn -0.0050 1.0000 0.0000
vn 0.1078 0.9942 0.0000
vn 0.2281 0.9736 0.0000
vn 0.3594 0.9332 0.0000
vn 0.4950 0.8689 0.0000
vn 0.6292 0.7772 0.0000
vn 0.7537 0.6572 0.0000
vn 0.8567 0.5159 0.0000
vn 0.9310 0.3651 0.0000
vn 0.9733 0.2295 0.0000
vn 0.9917 0.1283 0.0000
vn 0.9985 0.0556 0.0000
vn 0.9999 0.0124 0.0000
vn 1.0000 0.0000 -0.0000
vn 0.0000 1.0000 0.0000
vn -0.9999 -0.0158 -0.0000
vn -0.9976 -0.0691 -0.0000
vn -0.9882 -0.1534 -0.0000
vn -0.9660 -0.2587 -0.0000
vn -0.9213 -0.3888 -0.0000
vn -0.8456 -0.5339 -0.0000
vn -0.7399 -0.6727 -0.0000
vn -0.6134 -0.7898 -0.0000
vn -0.4762 -0.8793 -0.0000
vn -0.3376 -0.9413 -0.0000
vn -0.2088 -0.9780 -0.0000
vn -0.0967 -0.9953 -0.0000
vn 0.0027 -1.0000 -0.0000
vn 0.1085 -0.9941 -0.0000
vn 0.2345 -0.9721 -0.0000
vn 0.3782 -0.9257 -0.0000
vn 0.5219 -0.8530 -0.0000
vn 0.6486 -0.7612 -0.0000
vn 0.7615 -0.6481 -0.0000
vn 0.8595 -0.5112 -0.0000
vn 0.9303 -0.3668 -0.0000
vn 0.9704 -0.2417 -0.0000
vn 0.9896 -0.1435 -0.0000
vn 0.9896 -0.1436 -0.0000
vn 0.9979 -0.0648 -0.0000
vn 0.9999 -0.0149 -0.0000
vn 0.0000 -0.0000 1.0000
vn 0.0000 0.0000 -1.0000
# 53 vertex normals

vt 0.5482 1.0000 1.0000
vt 0.5482 1.0000 0.0000
vt 0.5482 0.4312 0.0000
vt 0.5482 0.4312 1.0000
vt 0.5475 0.3459 0.0000
vt 0.5475 0.3459 1.0000
vt 0.5453 0.2757 0.0000
vt 0.5453 0.2757 1.0000
vt 0.5418 0.2205 0.0000
vt 0.5418 0.2205 1.0000
vt 0.5367 0.1804 0.0000
vt 0.5367 0.1804 1.0000
vt 0.5300 0.1519 0.0000
vt 0.5300 0.1519 1.0000
vt 0.5214 0.1315 0.0000
vt 0.5214 0.1315 1.0000
vt 0.5108 0.1193 0.0000
vt 0.5108 0.1193 1.0000
vt 0.4983 0.1152 0.0000
vt 0.4983 0.1152 1.0000
vt 0.4907 0.1173 0.0000
vt 0.4907 0.1173 1.0000
vt 0.4838 0.1234 0.0000
vt 0.4838 0.1234 1.0000
vt 0.4774 0.1337 0.0000
vt 0.4774 0.1337 1.0000
vt 0.4716 0.1481 0.0000
vt 0.4716 0.1481 1.0000
vt 0.4666 0.1664 0.0000
vt 0.4666 0.1664 1.0000
vt 0.4623 0.1881 0.0000
vt 0.4623 0.1881 1.0000
vt 0.4589 0.2133 0.0000
vt 0.4589 0.2133 1.0000
vt 0.4563 0.2419 0.0000
vt 0.4563 0.2419 1.0000
vt 0.4543 0.2766 0.0000
vt 0.4543 0.2766 1.0000
vt 0.4529 0.3197 0.0000
vt 0.4529 0.3197 1.0000
vt 0.4521 0.3712 0.0000
vt 0.4521 0.3712 1.0000
vt 0.4518 0.4312 0.0000
vt 0.4518 0.4312 1.0000
vt 0.4518 1.0000 0.0000
vt 0.4518 1.0000 1.0000
vt 0.4273 1.0000 0.0000
vt 0.4273 1.0000 1.0000
vt 0.4273 0.4310 0.0000
vt 0.4273 0.4310 1.0000
vt 0.4277 0.3569 0.0000
vt 0.4277 0.3569 1.0000
vt 0.4290 0.2911 0.0000
vt 0.4290 0.2911 1.0000
vt 0.4312 0.2335 0.0000
vt 0.4312 0.2335 1.0000
vt 0.4343 0.1842 0.0000
vt 0.4343 0.1842 1.0000
vt 0.4384 0.1417 0.0000
vt 0.4384 0.1417 1.0000
vt 0.4438 0.1045 0.0000
vt 0.4438 0.1045 1.0000
vt 0.4502 0.0727 0.0000
vt 0.4502 0.0727 1.0000
vt 0.4579 0.0462 0.0000
vt 0.4579 0.0462 1.0000
vt 0.4668 0.0253 0.0000
vt 0.4668 0.0253 1.0000
vt 0.4768 0.0104 0.0000
vt 0.4768 0.0104 1.0000
vt 0.4880 0.0014 0.0000
vt 0.4880 0.0014 1.0000
vt 0.5004 -0.0015 0.0000
vt 0.5004 -0.0015 1.0000
vt 0.5132 0.0019 0.0000
vt 0.5132 0.0019 1.0000
vt 0.5246 0.0122 0.0000
vt 0.5246 0.0122 1.0000
vt 0.5348 0.0293 0.0000
vt 0.5348 0.0293 1.0000
vt 0.5437 0.0532 0.0000
vt 0.5437 0.0532 1.0000
vt 0.5513 0.0826 0.0000
vt 0.5513 0.0826 1.0000
vt 0.5576 0.1161 0.0000
vt 0.5576 0.1161 1.0000
vt 0.5626 0.1537 0.0000
vt 0.5626 0.1537 1.0000
vt 0.5664 0.1953 0.0000
vt 0.5664 0.1953 1.0000
vt 0.5692 0.2428 0.0000
vt 0.5692 0.2428 1.0000
vt 0.5712 0.2979 0.0000
vt 0.5712 0.2979 1.0000
vt 0.5724 0.3606 0.0000
vt 0.5724 0.3606 1.0000
vt 0.5727 0.4310 0.0000
vt 0.5727 0.4310 1.0000
vt 0.5727 1.0000 0.0000
vt 0.5727 1.0000 1.0000
# 100 texture coords

g TextPlus001
f 1/1/1 51/2/1 52/3/2 
f 1/1/1 52/3/2 2/4/3 
f 2/4/3 52/3/2 53/5/4 
f 2/4/3 53/5/4 3/6/4 
f 3/6/4 53/5/4 54/7/5 
f 3/6/4 54/7/5 4/8/5 
f 4/8/5 54/7/5 55/9/6 
f 4/8/5 55/9/6 5/10/6 
f 5/10/6 55/9/6 56/11/7 
f 5/10/6 56/11/7 6/12/7 
f 6/12/7 56/11/7 57/13/8 
f 6/12/7 57/13/8 7/14/8 
f 7/14/8 57/13/8 58/15/9 
f 7/14/8 58/15/9 8/16/9 
f 8/16/9 58/15/9 59/17/10 
f 8/16/9 59/17/10 9/18/10 
f 9/18/10 59/17/10 60/19/11 
f 9/18/10 60/19/11 10/20/11 
f 10/20/11 60/19/11 61/21/12 
f 10/20/11 61/21/12 11/22/12 
f 11/22/12 61/21/12 62/23/13 
f 11/22/12 62/23/13 12/24/13 
f 12/24/13 62/23/13 63/25/14 
f 12/24/13 63/25/14 13/26/14 
f 13/26/14 63/25/14 64/27/15 
f 13/26/14 64/27/15 14/28/15 
f 14/28/15 64/27/15 65/29/16 
f 14/28/15 65/29/16 15/30/16 
f 15/30/16 65/29/16 66/31/17 
f 15/30/16 66/31/17 16/32/17 
f 16/32/17 66/31/17 67/33/18 
f 16/32/17 67/33/18 17/34/18 
f 17/34/18 67/33/18 68/35/19 
f 17/34/18 68/35/19 18/36/19 
f 18/36/19 68/35/19 69/37/20 
f 18/36/19 69/37/20 19/38/20 
f 19/38/20 69/37/20 70/39/21 
f 19/38/20 70/39/21 20/40/21 
f 20/40/21 70/39/21 71/41/22 
f 20/40/21 71/41/22 21/42/22 
f 21/42/22 71/41/22 72/43/23 
f 21/42/22 72/43/23 22/44/23 
f 22/44/23 72/43/23 73/45/24 
f 22/44/23 73/45/24 23/46/24 
f 23/46/25 73/45/25 74/47/25 
f 23/46/25 74/47/25 24/48/25 
f 24/48/1 74/47/1 75/49/26 
f 24/48/1 75/49/26 25/50/26 
f 25/50/26 75/49/26 76/51/27 
f 25/50/26 76/51/27 26/52/27 
f 26/52/27 76/51/27 77/53/28 
f 26/52/27 77/53/28 27/54/28 
f 27/54/28 77/53/28 78/55/29 
f 27/54/28 78/55/29 28/56/29 
f 28/56/29 78/55/29 79/57/30 
f 28/56/29 79/57/30 29/58/30 
f 29/58/30 79/57/30 80/59/31 
f 29/58/30 80/59/31 30/60/31 
f 30/60/31 80/59/31 81/61/32 
f 30/60/31 81/61/32 31/62/32 
f 31/62/32 81/61/32 82/63/33 
f 31/62/32 82/63/33 32/64/33 
f 32/64/33 82/63/33 83/65/34 
f 32/64/33 83/65/34 33/66/34 
f 33/66/34 83/65/34 84/67/35 
f 33/66/34 84/67/35 34/68/35 
f 34/68/35 84/67/35 85/69/36 
f 34/68/35 85/69/36 35/70/36 
f 35/70/36 85/69/36 86/71/37 
f 35/70/36 86/71/37 36/72/37 
f 36/72/37 86/71/37 87/73/38 
f 36/72/37 87/73/38 37/74/38 
f 37/74/38 87/73/38 88/75/39 
f 37/74/38 88/75/39 38/76/39 
f 38/76/39 88/75/39 89/77/40 
f 38/76/39 89/77/40 39/78/40 
f 39/78/40 89/77/40 90/79/41 
f 39/78/40 90/79/41 40/80/41 
f 40/80/41 90/79/41 91/81/42 
f 40/80/41 91/81/42 41/82/42 
f 41/82/42 91/81/42 92/83/43 
f 41/82/42 92/83/43 42/84/43 
f 42/84/43 92/83/43 93/85/44 
f 42/84/43 93/85/44 43/86/44 
f 43/86/44 93/85/44 94/87/45 
f 43/86/44 94/87/45 44/88/45 
f 44/88/45 94/87/45 95/89/46 
f 44/88/45 95/89/46 45/90/46 
f 45/90/46 95/89/46 96/91/47 
f 45/90/46 96/91/47 46/92/47 
f 46/92/47 96/91/47 97/93/48 
f 46/92/47 97/93/48 47/94/49 
f 47/94/49 97/93/48 98/95/50 
f 47/94/49 98/95/50 48/96/50 
f 48/96/50 98/95/50 99/97/51 
f 48/96/50 99/97/51 49/98/51 
f 49/98/51 99/97/51 100/99/24 
f 49/98/51 100/99/24 50/100/24 
f 50/100/25 100/99/25 51/2/25 
f 50/100/25 51/2/25 1/1/25 
f 49/98/52 50/100/52 1/1/52 
f 49/98/52 1/1/52 2/4/52 
f 48/96/52 49/98/52 2/4/52 
f 48/96/52 2/4/52 3/6/52 
f 47/94/52 48/96/52 3/6/52 
f 47/94/52 3/6/52 4/8/52 
f 46/92/52 47/94/52 4/8/52 
f 45/90/52 46/92/52 4/8/52 
f 45/90/52 4/8/52 5/10/52 
f 44/88/52 45/90/52 5/10/52 
f 43/86/52 44/88/52 5/10/52 
f 43/86/52 5/10/52 6/12/52 
f 42/84/52 43/86/52 6/12/52 
f 41/82/52 42/84/52 6/12/52 
f 41/82/52 6/12/52 7/14/52 
f 40/80/52 41/82/52 7/14/52 
f 40/80/52 7/14/52 8/16/52 
f 39/78/52 40/80/52 8/16/52 
f 39/78/52 8/16/52 9/18/52 
f 38/76/52 39/78/52 9/18/52 
f 37/74/52 38/76/52 9/18/52 
f 37/74/52 9/18/52 10/20/52 
f 36/72/52 37/74/52 10/20/52 
f 36/72/52 10/20/52 11/22/52 
f 35/70/52 36/72/52 11/22/52 
f 35/70/52 11/22/52 12/24/52 
f 35/70/52 12/24/52 13/26/52 
f 34/68/52 35/70/52 13/26/52 
f 34/68/52 13/26/52 14/28/52 
f 33/66/52 34/68/52 14/28/52 
f 33/66/52 14/28/52 15/30/52 
f 32/64/52 33/66/52 15/30/52 
f 23/46/52 24/48/52 25/50/52 
f 22/44/52 23/46/52 25/50/52 
f 22/44/52 25/50/52 26/52/52 
f 21/42/52 22/44/52 26/52/52 
f 20/40/52 21/42/52 26/52/52 
f 20/40/52 26/52/52 27/54/52 
f 19/38/52 20/40/52 27/54/52 
f 19/38/52 27/54/52 28/56/52 
f 18/36/52 19/38/52 28/56/52 
f 18/36/52 28/56/52 29/58/52 
f 18/36/52 29/58/52 30/60/52 
f 17/34/52 18/36/52 30/60/52 
f 17/34/52 30/60/52 31/62/52 
f 16/32/52 17/34/52 31/62/52 
f 16/32/52 31/62/52 32/64/52 
f 16/32/52 32/64/52 15/30/52 
f 99/97/53 51/2/53 100/99/53 
f 99/97/53 52/3/53 51/2/53 
f 98/95/53 52/3/53 99/97/53 
f 98/95/53 53/5/53 52/3/53 
f 97/93/53 53/5/53 98/95/53 
f 97/93/53 54/7/53 53/5/53 
f 96/91/53 54/7/53 97/93/53 
f 95/89/53 54/7/53 96/91/53 
f 95/89/53 55/9/53 54/7/53 
f 94/87/53 55/9/53 95/89/53 
f 93/85/53 55/9/53 94/87/53 
f 93/85/53 56/11/53 55/9/53 
f 92/83/53 56/11/53 93/85/53 
f 91/81/53 56/11/53 92/83/53 
f 91/81/53 57/13/53 56/11/53 
f 90/79/53 57/13/53 91/81/53 
f 90/79/53 58/15/53 57/13/53 
f 89/77/53 58/15/53 90/79/53 
f 89/77/53 59/17/53 58/15/53 
f 88/75/53 59/17/53 89/77/53 
f 87/73/53 59/17/53 88/75/53 
f 87/73/53 60/19/53 59/17/53 
f 86/71/53 60/19/53 87/73/53 
f 86/71/53 61/21/53 60/19/53 
f 85/69/53 61/21/53 86/71/53 
f 85/69/53 62/23/53 61/21/53 
f 85/69/53 63/25/53 62/23/53 
f 84/67/53 63/25/53 85/69/53 
f 84/67/53 64/27/53 63/25/53 
f 83/65/53 64/27/53 84/67/53 
f 83/65/53 65/29/53 64/27/53 
f 82/63/53 65/29/53 83/65/53 
f 73/45/53 75/49/53 74/47/53 
f 72/43/53 75/49/53 73/45/53 
f 72/43/53 76/51/53 75/49/53 
f 71/41/53 76/51/53 72/43/53 
f 70/39/53 76/51/53 71/41/53 
f 70/39/53 77/53/53 76/51/53 
f 69/37/53 77/53/53 70/39/53 
f 69/37/53 78/55/53 77/53/53 
f 68/35/53 78/55/53 69/37/53 
f 68/35/53 79/57/53 78/55/53 
f 68/35/53 80/59/53 79/57/53 
f 67/33/53 80/59/53 68/35/53 
f 67/33/53 81/61/53 80/59/53 
f 66/31/53 81/61/53 67/33/53 
f 66/31/53 82/63/53 81/61/53 
f 66/31/53 65/29/53 82/63/53 
# 196 faces

