# 3ds Max Wavefront OBJ Exporter v0.97b - (c)2007 guruware
# File Created: 03.12.2017 09:25:44

#
# object Cylinder001
#

v  0.0142 0.1757 0.0872
v  0.0142 0.2204 0.1647
v  0.0142 0.2889 0.2222
v  0.0142 0.3730 0.2528
v  0.0142 0.4624 0.2528
v  0.0142 0.5465 0.2222
v  0.0142 0.6150 0.1647
v  0.0142 0.6597 0.0872
v  -0.0000 0.1757 0.0872
v  -0.0000 0.2204 0.1647
v  -0.0000 0.2889 0.2222
v  -0.0000 0.3730 0.2528
v  -0.0000 0.4624 0.2528
v  -0.0000 0.5465 0.2222
v  -0.0000 0.6150 0.1647
v  -0.0000 0.6597 0.0872
v  -0.0091 0.1830 0.0846
v  -0.0091 0.2264 0.1597
v  -0.0091 0.2928 0.2154
v  -0.0091 0.3743 0.2451
v  -0.0091 0.4610 0.2451
v  -0.0091 0.5426 0.2154
v  -0.0091 0.6090 0.1597
v  -0.0091 0.6524 0.0846
v  -0.0091 0.2060 0.0762
v  -0.0091 0.2451 0.1440
v  -0.0091 0.3050 0.1943
v  -0.0091 0.3786 0.2210
v  -0.0091 0.4568 0.2210
v  -0.0091 0.5303 0.1943
v  -0.0091 0.5903 0.1440
v  -0.0091 0.6294 0.0762
v  -0.0049 0.2133 0.0735
v  -0.0049 0.2511 0.1390
v  -0.0049 0.3089 0.1875
v  -0.0049 0.3799 0.2134
v  -0.0049 0.4555 0.2134
v  -0.0049 0.5264 0.1875
v  -0.0049 0.5843 0.1390
v  -0.0049 0.6221 0.0735
v  0.0142 0.1757 0.0872
v  0.0142 0.1757 0.0872
v  0.0142 0.2204 0.1647
v  0.0142 0.2204 0.1647
v  0.0142 0.2889 0.2222
v  0.0142 0.2889 0.2222
v  0.0142 0.3730 0.2528
v  0.0142 0.3730 0.2528
v  0.0142 0.4624 0.2528
v  0.0142 0.4624 0.2528
v  0.0142 0.5465 0.2222
v  0.0142 0.5465 0.2222
v  0.0142 0.6150 0.1647
v  0.0142 0.6150 0.1647
v  0.0142 0.6597 0.0872
v  0.0142 0.6597 0.0872
v  -0.0000 0.6752 -0.0009
v  -0.0000 0.1757 0.0872
v  -0.0000 0.1757 0.0872
v  -0.0000 0.1757 0.0872
v  -0.0000 0.2204 0.1647
v  -0.0000 0.2204 0.1647
v  -0.0000 0.2204 0.1647
v  -0.0000 0.2889 0.2222
v  -0.0000 0.2889 0.2222
v  -0.0000 0.2889 0.2222
v  -0.0000 0.3730 0.2528
v  -0.0000 0.3730 0.2528
v  -0.0000 0.3730 0.2528
v  -0.0000 0.4624 0.2528
v  -0.0000 0.4624 0.2528
v  -0.0000 0.4624 0.2528
v  -0.0000 0.5465 0.2222
v  -0.0000 0.5465 0.2222
v  -0.0000 0.5465 0.2222
v  -0.0000 0.6150 0.1647
v  -0.0000 0.6150 0.1647
v  -0.0000 0.6150 0.1647
v  -0.0000 0.6597 0.0872
v  -0.0000 0.6597 0.0872
v  -0.0000 0.6597 0.0872
v  -0.0091 0.6674 -0.0009
v  -0.0091 0.1830 0.0846
v  -0.0091 0.1830 0.0846
v  -0.0091 0.1830 0.0846
v  -0.0091 0.2264 0.1597
v  -0.0091 0.2264 0.1597
v  -0.0091 0.2264 0.1597
v  -0.0091 0.2928 0.2154
v  -0.0091 0.2928 0.2154
v  -0.0091 0.2928 0.2154
v  -0.0091 0.3743 0.2451
v  -0.0091 0.3743 0.2451
v  -0.0091 0.3743 0.2451
v  -0.0091 0.4610 0.2451
v  -0.0091 0.4610 0.2451
v  -0.0091 0.4610 0.2451
v  -0.0091 0.5426 0.2154
v  -0.0091 0.5426 0.2154
v  -0.0091 0.5426 0.2154
v  -0.0091 0.6090 0.1597
v  -0.0091 0.6090 0.1597
v  -0.0091 0.6090 0.1597
v  -0.0091 0.6524 0.0846
v  -0.0091 0.6524 0.0846
v  -0.0091 0.6524 0.0846
v  -0.0091 0.2060 0.0762
v  -0.0091 0.2060 0.0762
v  -0.0091 0.2060 0.0762
v  -0.0091 0.2451 0.1440
v  -0.0091 0.2451 0.1440
v  -0.0091 0.2451 0.1440
v  -0.0091 0.3050 0.1943
v  -0.0091 0.3050 0.1943
v  -0.0091 0.3050 0.1943
v  -0.0091 0.3786 0.2210
v  -0.0091 0.3786 0.2210
v  -0.0091 0.3786 0.2210
v  -0.0091 0.4568 0.2210
v  -0.0091 0.4568 0.2210
v  -0.0091 0.4568 0.2210
v  -0.0091 0.5303 0.1943
v  -0.0091 0.5303 0.1943
v  -0.0091 0.5303 0.1943
v  -0.0091 0.5903 0.1440
v  -0.0091 0.5903 0.1440
v  -0.0091 0.5903 0.1440
v  -0.0091 0.6294 0.0762
v  -0.0091 0.6294 0.0762
v  -0.0091 0.6294 0.0762
v  -0.0049 0.2133 0.0735
v  -0.0049 0.2133 0.0735
v  -0.0049 0.2511 0.1390
v  -0.0049 0.2511 0.1390
v  -0.0049 0.3089 0.1875
v  -0.0049 0.3089 0.1875
v  -0.0049 0.3799 0.2134
v  -0.0049 0.3799 0.2134
v  -0.0049 0.4555 0.2134
v  -0.0049 0.4555 0.2134
v  -0.0049 0.5264 0.1875
v  -0.0049 0.5264 0.1875
v  -0.0049 0.5843 0.1390
v  -0.0049 0.5843 0.1390
v  -0.0049 0.6221 0.0735
v  -0.0049 0.6221 0.0735
v  0.0142 0.1757 -0.0889
v  -0.0000 0.1757 -0.0889
v  -0.0000 0.1601 -0.0009
v  0.0142 0.1757 -0.0889
v  0.0142 0.2204 -0.1664
v  -0.0000 0.2204 -0.1664
v  -0.0000 0.1757 -0.0889
v  0.0142 0.2204 -0.1664
v  0.0142 0.2889 -0.2239
v  -0.0000 0.2889 -0.2239
v  -0.0000 0.2204 -0.1664
v  0.0142 0.2889 -0.2239
v  0.0142 0.3730 -0.2545
v  -0.0000 0.3730 -0.2545
v  -0.0000 0.2889 -0.2239
v  0.0142 0.3730 -0.2545
v  0.0142 0.4624 -0.2545
v  -0.0000 0.4624 -0.2545
v  -0.0000 0.3730 -0.2545
v  0.0142 0.4624 -0.2545
v  0.0142 0.5465 -0.2239
v  -0.0000 0.5465 -0.2239
v  -0.0000 0.4624 -0.2545
v  0.0142 0.5465 -0.2239
v  0.0142 0.6150 -0.1664
v  -0.0000 0.6150 -0.1664
v  -0.0000 0.5465 -0.2239
v  0.0142 0.6150 -0.1664
v  0.0142 0.6597 -0.0889
v  -0.0000 0.6597 -0.0889
v  -0.0000 0.6150 -0.1664
v  0.0142 0.6597 -0.0889
v  -0.0000 0.6597 -0.0889
v  0.0142 0.6597 -0.0889
v  0.0142 0.6150 -0.1664
v  0.0142 0.5465 -0.2239
v  0.0142 0.4624 -0.2545
v  0.0142 0.3730 -0.2545
v  0.0142 0.2889 -0.2239
v  0.0142 0.2204 -0.1664
v  0.0142 0.1757 -0.0889
v  0.0142 0.1601 -0.0009
v  0.0142 0.6752 -0.0009
v  -0.0049 0.6352 -0.0009
v  -0.0049 0.2133 -0.0752
v  -0.0049 0.2511 -0.1407
v  -0.0049 0.3089 -0.1892
v  -0.0049 0.3799 -0.2151
v  -0.0049 0.4555 -0.2151
v  -0.0049 0.5264 -0.1892
v  -0.0049 0.5843 -0.1407
v  -0.0049 0.6221 -0.0752
v  -0.0000 0.1757 -0.0889
v  -0.0091 0.1830 -0.0863
v  -0.0091 0.1679 -0.0009
v  -0.0000 0.1757 -0.0889
v  -0.0000 0.2204 -0.1664
v  -0.0091 0.2264 -0.1614
v  -0.0091 0.1830 -0.0863
v  -0.0000 0.2204 -0.1664
v  -0.0000 0.2889 -0.2239
v  -0.0091 0.2928 -0.2171
v  -0.0091 0.2264 -0.1614
v  -0.0000 0.2889 -0.2239
v  -0.0000 0.3730 -0.2545
v  -0.0091 0.3743 -0.2468
v  -0.0091 0.2928 -0.2171
v  -0.0000 0.3730 -0.2545
v  -0.0000 0.4624 -0.2545
v  -0.0091 0.4610 -0.2468
v  -0.0091 0.3743 -0.2468
v  -0.0000 0.4624 -0.2545
v  -0.0000 0.5465 -0.2239
v  -0.0091 0.5426 -0.2171
v  -0.0091 0.4610 -0.2468
v  -0.0000 0.5465 -0.2239
v  -0.0000 0.6150 -0.1664
v  -0.0091 0.6090 -0.1614
v  -0.0091 0.5426 -0.2171
v  -0.0000 0.6150 -0.1664
v  -0.0000 0.6597 -0.0889
v  -0.0091 0.6524 -0.0863
v  -0.0091 0.6090 -0.1614
v  -0.0000 0.6597 -0.0889
v  -0.0091 0.6524 -0.0863
v  -0.0091 0.1830 -0.0863
v  -0.0091 0.2060 -0.0779
v  -0.0091 0.1830 -0.0863
v  -0.0091 0.2264 -0.1614
v  -0.0091 0.2451 -0.1457
v  -0.0091 0.2060 -0.0779
v  -0.0091 0.2264 -0.1614
v  -0.0091 0.2928 -0.2171
v  -0.0091 0.3050 -0.1960
v  -0.0091 0.2451 -0.1457
v  -0.0091 0.2928 -0.2171
v  -0.0091 0.3743 -0.2468
v  -0.0091 0.3786 -0.2227
v  -0.0091 0.3050 -0.1960
v  -0.0091 0.3743 -0.2468
v  -0.0091 0.4610 -0.2468
v  -0.0091 0.4568 -0.2227
v  -0.0091 0.3786 -0.2227
v  -0.0091 0.4610 -0.2468
v  -0.0091 0.5426 -0.2171
v  -0.0091 0.5303 -0.1960
v  -0.0091 0.4568 -0.2227
v  -0.0091 0.5426 -0.2171
v  -0.0091 0.6090 -0.1614
v  -0.0091 0.5903 -0.1457
v  -0.0091 0.5303 -0.1960
v  -0.0091 0.6090 -0.1614
v  -0.0091 0.6524 -0.0863
v  -0.0091 0.6294 -0.0779
v  -0.0091 0.5903 -0.1457
v  -0.0091 0.6524 -0.0863
v  -0.0091 0.6294 -0.0779
v  -0.0091 0.1924 -0.0009
v  -0.0091 0.2060 -0.0779
v  -0.0049 0.2133 -0.0752
v  -0.0049 0.2002 -0.0009
v  -0.0091 0.2060 -0.0779
v  -0.0091 0.2451 -0.1457
v  -0.0049 0.2511 -0.1407
v  -0.0049 0.2133 -0.0752
v  -0.0091 0.2451 -0.1457
v  -0.0091 0.3050 -0.1960
v  -0.0049 0.3089 -0.1892
v  -0.0049 0.2511 -0.1407
v  -0.0091 0.3050 -0.1960
v  -0.0091 0.3786 -0.2227
v  -0.0049 0.3799 -0.2151
v  -0.0049 0.3089 -0.1892
v  -0.0091 0.3786 -0.2227
v  -0.0091 0.4568 -0.2227
v  -0.0049 0.4555 -0.2151
v  -0.0049 0.3799 -0.2151
v  -0.0091 0.4568 -0.2227
v  -0.0091 0.5303 -0.1960
v  -0.0049 0.5264 -0.1892
v  -0.0049 0.4555 -0.2151
v  -0.0091 0.5303 -0.1960
v  -0.0091 0.5903 -0.1457
v  -0.0049 0.5843 -0.1407
v  -0.0049 0.5264 -0.1892
v  -0.0091 0.5903 -0.1457
v  -0.0091 0.6294 -0.0779
v  -0.0049 0.6221 -0.0752
v  -0.0049 0.5843 -0.1407
v  -0.0091 0.6294 -0.0779
v  -0.0091 0.6430 -0.0009
v  -0.0049 0.6221 -0.0752
# 298 vertices

vn 0.0000 -1.0000 -0.0000
vn 0.0000 -0.9848 0.1736
vn 0.0000 -0.8660 0.5000
vn 0.0000 -0.6428 0.7660
vn 0.0000 -0.3420 0.9397
vn 0.0000 -0.0000 1.0000
vn -0.0000 0.3420 0.9397
vn -0.0000 0.6428 0.7660
vn -0.0000 0.8660 0.5000
vn -0.0000 0.9848 0.1736
vn -0.0000 1.0000 -0.0000
vn 1.0000 0.0000 -0.0000
vn -1.0000 -0.0000 -0.0000
vn -0.6452 -0.7524 0.1327
vn -0.6452 -0.6617 0.3820
vn -0.6452 -0.4911 0.5853
vn -0.6452 -0.2613 0.7180
vn -0.6452 -0.0000 0.7640
vn -0.6452 0.2613 0.7180
vn -0.6452 0.4911 0.5853
vn -0.6452 0.6617 0.3820
vn -0.6452 0.7524 0.1327
vn -0.8752 0.4763 -0.0840
vn -0.8752 0.4189 -0.2418
vn -0.8752 0.3109 -0.3705
vn -0.8752 0.1654 -0.4545
vn -0.8752 0.0000 -0.4837
vn -0.8752 -0.1654 -0.4545
vn -0.8752 -0.3109 -0.3705
vn -0.8752 -0.4189 -0.2418
vn -0.8752 -0.4763 -0.0840
vn 0.0000 -0.9848 -0.1736
vn 0.0000 -0.8660 -0.5000
vn 0.0000 -0.6428 -0.7660
vn 0.0000 -0.3420 -0.9397
vn 0.0000 -0.0000 -1.0000
vn -0.0000 0.3420 -0.9397
vn -0.0000 0.6428 -0.7660
vn -0.0000 0.8660 -0.5000
vn -0.0000 0.9848 -0.1736
vn -0.6452 -0.7524 -0.1327
vn -0.6452 -0.6617 -0.3820
vn -0.6452 -0.4911 -0.5853
vn -0.6452 -0.2613 -0.7180
vn -0.6452 -0.0000 -0.7640
vn -0.6452 0.2613 -0.7180
vn -0.6452 0.4911 -0.5853
vn -0.6452 0.6617 -0.3820
vn -0.6452 0.7524 -0.1327
vn -0.8752 0.4763 0.0840
vn -0.8752 0.4189 0.2418
vn -0.8752 0.3109 0.3705
vn -0.8752 0.1654 0.4545
vn -0.8752 0.0000 0.4837
vn -0.8752 -0.1654 0.4545
vn -0.8752 -0.3109 0.3705
vn -0.8752 -0.4189 0.2418
vn -0.8752 -0.4763 0.0840
# 58 vertex normals

vt 0.2500 0.0000 1.0154
vt 0.3048 0.0000 1.0136
vt 0.3048 0.6099 1.0136
vt 0.2500 0.6099 1.0154
vt 0.3599 0.0000 1.0091
vt 0.3599 0.6099 1.0091
vt 0.4156 0.0000 1.0039
vt 0.4156 0.6099 1.0039
vt 0.4718 0.0000 1.0005
vt 0.4718 0.6099 1.0005
vt 0.5282 0.0000 1.0005
vt 0.5282 0.6099 1.0005
vt 0.5844 0.0000 1.0039
vt 0.5844 0.6099 1.0039
vt 0.6401 0.0000 1.0091
vt 0.6401 0.6099 1.0091
vt 0.6952 0.0000 1.0136
vt 0.6952 0.6099 1.0136
vt 0.7500 0.0000 1.0154
vt 0.7500 0.6099 1.0154
vt 0.8214 0.8889 -0.2500
vt 0.9330 0.7539 -0.2500
vt 0.9924 0.5882 -0.2500
vt 0.9924 0.4118 -0.2500
vt 0.9330 0.2461 -0.2500
vt 0.8214 0.1111 -0.2500
vt 0.6710 0.0229 -0.2500
vt 0.5000 -0.0077 -0.2500
vt 0.5000 1.0077 -0.2500
vt 0.6710 0.9771 -0.2500
vt 0.5000 0.0712 0.1590
vt 0.6444 0.0971 0.1590
vt 0.7714 0.1715 0.1590
vt 0.8657 0.2856 0.1590
vt 0.9159 0.4255 0.1590
vt 0.9159 0.5745 0.1590
vt 0.8657 0.7144 0.1590
vt 0.7714 0.8285 0.1590
vt 0.6444 0.9029 0.1590
vt 0.5000 0.9288 0.1590
vt 0.5000 -0.0077 0.0549
vt 0.6710 0.0229 0.0549
vt 0.6658 0.0374 0.2500
vt 0.5000 0.0077 0.2500
vt 0.8214 0.1111 0.0549
vt 0.8117 0.1228 0.2500
vt 0.9330 0.2461 0.0549
vt 0.9199 0.2538 0.2500
vt 0.9924 0.4118 0.0549
vt 0.9775 0.4145 0.2500
vt 0.9924 0.5882 0.0549
vt 0.9775 0.5855 0.2500
vt 0.9330 0.7539 0.0549
vt 0.9199 0.7462 0.2500
vt 0.8214 0.8889 0.0549
vt 0.8117 0.8772 0.2500
vt 0.6710 0.9771 0.0549
vt 0.6658 0.9626 0.2500
vt 0.5000 1.0077 0.0549
vt 0.5000 0.9923 0.2500
vt 0.6496 0.0826 0.2500
vt 0.5000 0.0558 0.2500
vt 0.7812 0.1597 0.2500
vt 0.8788 0.2779 0.2500
vt 0.9308 0.4229 0.2500
vt 0.9308 0.5771 0.2500
vt 0.8788 0.7221 0.2500
vt 0.7812 0.8403 0.2500
vt 0.6496 0.9174 0.2500
vt 0.5000 0.9442 0.2500
# 70 texture coords

g Cylinder001
f 188/1/1 42/2/2 60/3/2 
f 60/3/2 149/4/1 188/1/1 
f 41/2/3 44/5/3 63/6/3 
f 63/6/3 9/3/3 41/2/3 
f 43/5/4 46/7/4 66/8/4 
f 66/8/4 10/6/4 43/5/4 
f 45/7/5 48/9/5 69/10/5 
f 69/10/5 11/8/5 45/7/5 
f 47/9/6 50/11/6 72/12/6 
f 72/12/6 12/10/6 47/9/6 
f 49/11/7 52/13/7 75/14/7 
f 75/14/7 13/12/7 49/11/7 
f 51/13/8 54/15/8 78/16/8 
f 78/16/8 14/14/8 51/13/8 
f 53/15/9 55/17/9 81/18/9 
f 81/18/9 15/16/9 53/15/9 
f 8/17/10 189/19/11 57/20/11 
f 57/20/11 16/18/10 8/17/10 
f 7/21/12 6/22/12 5/23/12 
f 5/23/12 4/24/12 3/25/12 
f 3/25/12 2/26/12 1/27/12 
f 5/23/12 3/25/12 1/27/12 
f 1/27/12 188/28/12 189/29/12 
f 5/23/12 1/27/12 189/29/12 
f 7/21/12 5/23/12 189/29/12 
f 56/30/12 7/21/12 189/29/12 
f 267/31/13 131/32/13 133/33/13 
f 133/33/13 135/34/13 137/35/13 
f 137/35/13 139/36/13 141/37/13 
f 141/37/13 143/38/13 145/39/13 
f 137/35/13 141/37/13 145/39/13 
f 133/33/13 137/35/13 145/39/13 
f 267/31/13 133/33/13 145/39/13 
f 190/40/13 267/31/13 145/39/13 
f 149/41/14 59/42/14 85/43/14 
f 85/43/14 201/44/14 149/41/14 
f 58/42/15 62/45/15 88/46/15 
f 88/46/15 17/43/15 58/42/15 
f 61/45/16 65/47/16 91/48/16 
f 91/48/16 18/46/16 61/45/16 
f 64/47/17 68/49/17 94/50/17 
f 94/50/17 19/48/17 64/47/17 
f 67/49/18 71/51/18 97/52/18 
f 97/52/18 20/50/18 67/49/18 
f 70/51/19 74/53/19 100/54/19 
f 100/54/19 21/52/19 70/51/19 
f 73/53/20 77/55/20 103/56/20 
f 103/56/20 22/54/20 73/53/20 
f 76/55/21 80/57/21 106/58/21 
f 106/58/21 23/56/21 76/55/21 
f 79/57/22 57/59/22 82/60/22 
f 82/60/22 24/58/22 79/57/22 
f 201/44/13 84/43/13 109/61/13 
f 109/61/13 264/62/13 201/44/13 
f 83/43/13 87/46/13 112/63/13 
f 112/63/13 25/61/13 83/43/13 
f 86/46/13 90/48/13 115/64/13 
f 115/64/13 26/63/13 86/46/13 
f 89/48/13 93/50/13 118/65/13 
f 118/65/13 27/64/13 89/48/13 
f 92/50/13 96/52/13 121/66/13 
f 121/66/13 28/65/13 92/50/13 
f 95/52/13 99/54/13 124/67/13 
f 124/67/13 29/66/13 95/52/13 
f 98/54/13 102/56/13 127/68/13 
f 127/68/13 30/67/13 98/54/13 
f 101/56/13 105/58/13 130/69/13 
f 130/69/13 31/68/13 101/56/13 
f 104/58/13 82/60/13 297/70/13 
f 297/70/13 32/69/13 104/58/13 
f 264/62/23 108/61/23 132/32/23 
f 132/32/23 267/31/23 264/62/23 
f 107/61/24 111/63/24 134/33/24 
f 134/33/24 33/32/24 107/61/24 
f 110/63/25 114/64/25 136/34/25 
f 136/34/25 34/33/25 110/63/25 
f 113/64/26 117/65/26 138/35/26 
f 138/35/26 35/34/26 113/64/26 
f 116/65/27 120/66/27 140/36/27 
f 140/36/27 36/35/27 116/65/27 
f 119/66/28 123/67/28 142/37/28 
f 142/37/28 37/36/28 119/66/28 
f 122/67/29 126/68/29 144/38/29 
f 144/38/29 38/37/29 122/67/29 
f 125/68/30 129/69/30 146/39/30 
f 146/39/30 39/38/30 125/68/30 
f 128/69/31 297/70/31 190/40/31 
f 190/40/31 40/39/31 128/69/31 
f 188/1/1 149/4/1 148/3/32 
f 148/3/32 147/2/32 188/1/1 
f 150/2/33 153/3/33 152/6/33 
f 152/6/33 151/5/33 150/2/33 
f 154/5/34 157/6/34 156/8/34 
f 156/8/34 155/7/34 154/5/34 
f 158/7/35 161/8/35 160/10/35 
f 160/10/35 159/9/35 158/7/35 
f 162/9/36 165/10/36 164/12/36 
f 164/12/36 163/11/36 162/9/36 
f 166/11/37 169/12/37 168/14/37 
f 168/14/37 167/13/37 166/11/37 
f 170/13/38 173/14/38 172/16/38 
f 172/16/38 171/15/38 170/13/38 
f 174/15/39 177/16/39 176/18/39 
f 176/18/39 175/17/39 174/15/39 
f 178/17/40 179/18/40 57/20/11 
f 57/20/11 189/19/11 178/17/40 
f 189/29/12 188/28/12 187/27/12 
f 187/27/12 186/26/12 185/25/12 
f 185/25/12 184/24/12 183/23/12 
f 187/27/12 185/25/12 183/23/12 
f 189/29/12 187/27/12 183/23/12 
f 183/23/12 182/22/12 181/21/12 
f 189/29/12 183/23/12 181/21/12 
f 180/30/12 189/29/12 181/21/12 
f 198/39/13 197/38/13 196/37/13 
f 196/37/13 195/36/13 194/35/13 
f 198/39/13 196/37/13 194/35/13 
f 194/35/13 193/34/13 192/33/13 
f 198/39/13 194/35/13 192/33/13 
f 192/33/13 191/32/13 267/31/13 
f 198/39/13 192/33/13 267/31/13 
f 190/40/13 198/39/13 267/31/13 
f 149/41/41 201/44/41 200/43/41 
f 200/43/41 199/42/41 149/41/41 
f 202/42/42 205/43/42 204/46/42 
f 204/46/42 203/45/42 202/42/42 
f 206/45/43 209/46/43 208/48/43 
f 208/48/43 207/47/43 206/45/43 
f 210/47/44 213/48/44 212/50/44 
f 212/50/44 211/49/44 210/47/44 
f 214/49/45 217/50/45 216/52/45 
f 216/52/45 215/51/45 214/49/45 
f 218/51/46 221/52/46 220/54/46 
f 220/54/46 219/53/46 218/51/46 
f 222/53/47 225/54/47 224/56/47 
f 224/56/47 223/55/47 222/53/47 
f 226/55/48 229/56/48 228/58/48 
f 228/58/48 227/57/48 226/55/48 
f 230/57/49 231/58/49 82/60/49 
f 82/60/49 57/59/49 230/57/49 
f 201/44/13 264/62/13 233/61/13 
f 233/61/13 232/43/13 201/44/13 
f 234/43/13 237/61/13 236/63/13 
f 236/63/13 235/46/13 234/43/13 
f 238/46/13 241/63/13 240/64/13 
f 240/64/13 239/48/13 238/46/13 
f 242/48/13 245/64/13 244/65/13 
f 244/65/13 243/50/13 242/48/13 
f 246/50/13 249/65/13 248/66/13 
f 248/66/13 247/52/13 246/50/13 
f 250/52/13 253/66/13 252/67/13 
f 252/67/13 251/54/13 250/52/13 
f 254/54/13 257/67/13 256/68/13 
f 256/68/13 255/56/13 254/54/13 
f 258/56/13 261/68/13 260/69/13 
f 260/69/13 259/58/13 258/56/13 
f 262/58/13 263/69/13 297/70/13 
f 297/70/13 82/60/13 262/58/13 
f 264/62/50 267/31/50 266/32/50 
f 266/32/50 265/61/50 264/62/50 
f 268/61/51 271/32/51 270/33/51 
f 270/33/51 269/63/51 268/61/51 
f 272/63/52 275/33/52 274/34/52 
f 274/34/52 273/64/52 272/63/52 
f 276/64/53 279/34/53 278/35/53 
f 278/35/53 277/65/53 276/64/53 
f 280/65/54 283/35/54 282/36/54 
f 282/36/54 281/66/54 280/65/54 
f 284/66/55 287/36/55 286/37/55 
f 286/37/55 285/67/55 284/66/55 
f 288/67/56 291/37/56 290/38/56 
f 290/38/56 289/68/56 288/67/56 
f 292/68/57 295/38/57 294/39/57 
f 294/39/57 293/69/57 292/68/57 
f 296/69/58 298/39/58 190/40/58 
f 190/40/58 297/70/58 296/69/58 
# 176 faces

