# 3ds Max Wavefront OBJ Exporter v0.97b - (c)2007 guruware
# File Created: 12.12.2017 15:57:07

#
# object Cylinder004
#

v  0.5992 1.0000 0.4987
v  0.5805 1.0000 0.4535
v  0.5353 1.0000 0.4348
v  0.4901 1.0000 0.4535
v  0.4714 1.0000 0.4987
v  0.4901 1.0000 0.5439
v  0.5353 1.0000 0.5626
v  0.5805 1.0000 0.5439
v  0.5992 3.7037 0.4987
v  0.5805 3.7037 0.4535
v  0.5353 3.7037 0.4348
v  0.4901 3.7037 0.4535
v  0.4714 3.7037 0.4987
v  0.4901 3.7037 0.5439
v  0.5353 3.7037 0.5626
v  0.5805 3.7037 0.5439
v  0.5992 1.0000 0.4987
v  0.5992 1.0000 0.4987
v  0.5805 1.0000 0.4535
v  0.5805 1.0000 0.4535
v  0.5353 1.0000 0.4348
v  0.5353 1.0000 0.4348
v  0.4901 1.0000 0.4535
v  0.4901 1.0000 0.4535
v  0.4714 1.0000 0.4987
v  0.4714 1.0000 0.4987
v  0.4901 1.0000 0.5439
v  0.4901 1.0000 0.5439
v  0.5353 1.0000 0.5626
v  0.5353 1.0000 0.5626
v  0.5805 1.0000 0.5439
v  0.5805 1.0000 0.5439
v  0.5992 3.7037 0.4987
v  0.5992 3.7037 0.4987
v  0.5805 3.7037 0.4535
v  0.5805 3.7037 0.4535
v  0.5353 3.7037 0.4348
v  0.5353 3.7037 0.4348
v  0.4901 3.7037 0.4535
v  0.4901 3.7037 0.4535
v  0.4714 3.7037 0.4987
v  0.4714 3.7037 0.4987
v  0.4901 3.7037 0.5439
v  0.4901 3.7037 0.5439
v  0.5353 3.7037 0.5626
v  0.5353 3.7037 0.5626
v  0.5805 3.7037 0.5439
v  0.5805 3.7037 0.5439
v  0.0000 0.0000 1.0000
v  1.0000 0.0000 1.0000
v  0.0000 0.0000 -0.0000
v  1.0000 0.0000 -0.0000
v  0.0000 1.0000 1.0000
v  1.0000 1.0000 1.0000
v  0.0000 1.0000 -0.0000
v  1.0000 1.0000 -0.0000
v  0.0000 0.0000 1.0000
v  0.0000 0.0000 1.0000
v  1.0000 0.0000 1.0000
v  1.0000 0.0000 1.0000
v  0.0000 0.0000 -0.0000
v  0.0000 0.0000 -0.0000
v  1.0000 0.0000 -0.0000
v  1.0000 0.0000 -0.0000
v  0.0000 1.0000 1.0000
v  0.0000 1.0000 1.0000
v  1.0000 1.0000 1.0000
v  1.0000 1.0000 1.0000
v  0.0000 1.0000 -0.0000
v  0.0000 1.0000 -0.0000
v  1.0000 1.0000 -0.0000
v  1.0000 1.0000 -0.0000
v  0.0000 -9.8660 1.0000
v  0.0000 -9.8660 -0.0000
v  1.0000 -9.8660 1.0000
v  1.0000 -9.8660 -0.0000
# 76 vertices

vn 0.9239 0.0000 -0.3827
vn 0.3827 0.0000 -0.9239
vn -0.3827 0.0000 -0.9239
vn -0.9239 0.0000 -0.3827
vn -0.9239 0.0000 0.3827
vn -0.3827 0.0000 0.9239
vn 0.3827 0.0000 0.9239
vn 0.9239 0.0000 0.3827
vn 0.0000 -1.0000 -0.0000
vn 0.0000 1.0000 -0.0000
vn 0.0000 0.0000 1.0000
vn 1.0000 0.0000 -0.0000
vn 0.0000 0.0000 -1.0000
vn -1.0000 0.0000 -0.0000
# 14 vertex normals

vt 0.5009 0.4226 29.7437
vt 0.5007 0.4226 29.0363
vt 0.5007 0.5774 29.0363
vt 0.5009 0.5774 29.7437
vt 0.5000 0.4226 28.7432
vt 0.5000 0.5774 28.7432
vt 0.4993 0.4226 29.0363
vt 0.4993 0.5774 29.0363
vt 0.4991 0.4226 29.7437
vt 0.4991 0.5774 29.7437
vt 0.4994 0.4226 30.4505
vt 0.4994 0.5774 30.4505
vt 0.5000 0.4226 30.7432
vt 0.5000 0.5774 30.7432
vt 0.5006 0.4226 30.4505
vt 0.5006 0.5774 30.4505
vt 1.0000 0.5000 -0.2500
vt 0.8536 0.1464 -0.2500
vt 0.5000 0.0000 -0.2500
vt 0.1464 0.1464 -0.2500
vt 0.0000 0.5000 -0.2500
vt 0.1464 0.8536 -0.2500
vt 0.5000 1.0000 -0.2500
vt 0.8536 0.8536 -0.2500
vt 0.9987 0.3348 0.0000
vt 0.9987 0.6607 0.0000
vt 0.7486 0.6607 0.0000
vt 0.7486 0.3348 0.0000
vt 0.2494 0.3348 1.0000
vt 0.4939 0.3348 1.0000
vt 0.4939 0.6652 1.0000
vt 0.2494 0.6652 1.0000
vt 0.2554 0.6690 0.0000
vt 0.4978 0.6690 0.0000
vt 0.4978 1.0034 0.0000
vt 0.2554 1.0034 0.0000
vt 0.0057 0.6584 1.0000
vt 0.0060 0.3393 1.0000
vt 0.2471 0.3388 1.0000
vt 0.2468 0.6578 1.0000
vt 0.2547 0.0071 1.0000
vt 0.4974 0.0071 1.0000
vt 0.4974 0.3300 1.0000
vt 0.2547 0.3300 1.0000
vt 0.5039 0.6605 0.0000
vt 0.5047 0.3371 0.0000
vt 0.7461 0.3379 0.0000
vt 0.7453 0.6613 0.0000
# 48 texture coords

g Cylinder004
f 1/1/1 20/2/1 36/3/1 
f 36/3/1 9/4/1 1/1/1 
f 19/2/2 22/5/2 38/6/2 
f 38/6/2 10/3/2 19/2/2 
f 21/5/3 24/7/3 40/8/3 
f 40/8/3 11/6/3 21/5/3 
f 23/7/4 26/9/4 42/10/4 
f 42/10/4 12/8/4 23/7/4 
f 25/9/5 28/11/5 44/12/5 
f 44/12/5 13/10/5 25/9/5 
f 27/11/6 30/13/6 46/14/6 
f 46/14/6 14/12/6 27/11/6 
f 29/13/7 31/15/7 48/16/7 
f 48/16/7 15/14/7 29/13/7 
f 8/15/8 17/1/8 34/4/8 
f 34/4/8 16/16/8 8/15/8 
f 7/17/9 6/18/9 5/19/9 
f 5/19/9 4/20/9 3/21/9 
f 3/21/9 2/22/9 18/23/9 
f 5/19/9 3/21/9 18/23/9 
f 7/17/9 5/19/9 18/23/9 
f 32/24/9 7/17/9 18/23/9 
f 35/3/10 37/6/10 39/8/10 
f 39/8/10 41/10/10 43/12/10 
f 43/12/10 45/14/10 47/16/10 
f 39/8/10 43/12/10 47/16/10 
f 35/3/10 39/8/10 47/16/10 
f 33/4/10 35/3/10 47/16/10 
f 58/25/9 62/26/9 52/27/9 
f 52/27/9 50/28/9 58/25/9 
f 65/29/10 67/30/10 71/31/10 
f 71/31/10 69/32/10 65/29/10 
f 49/33/11 60/34/11 68/35/11 
f 68/35/11 53/36/11 49/33/11 
f 59/37/12 64/38/12 72/39/12 
f 72/39/12 54/40/12 59/37/12 
f 63/41/13 61/42/13 70/43/13 
f 70/43/13 56/44/13 63/41/13 
f 51/45/14 57/46/14 66/47/14 
f 66/47/14 55/48/14 51/45/14 
f 75/25/10 76/26/10 74/27/10 
f 74/27/10 73/28/10 75/25/10 
# 42 faces

