# 3ds Max Wavefront OBJ Exporter v0.97b - (c)2007 guruware
# File Created: 13.12.2017 12:08:15

#
# object Box144
#

v  0.0000 0.0351 -0.0665
v  0.0000 0.5096 -0.0301
v  -0.0312 -0.0057 -0.0301
v  -0.0312 0.4689 -0.0665
v  -0.0312 0.1871 -0.0665
v  0.0000 0.1871 -0.0665
v  -0.0312 0.3179 -0.0665
v  0.0000 0.3179 -0.0665
v  0.0000 0.3179 -0.2247
v  0.0000 0.1871 -0.2247
v  -0.0312 0.1871 -0.2247
v  -0.0312 0.3179 -0.2247
v  0.0000 -0.0057 -0.0059
v  0.0000 0.1871 -0.0059
v  -0.0312 0.3179 -0.0059
v  -0.0312 -0.0057 -0.0059
v  -0.0312 0.1871 -0.0059
v  0.0000 0.3179 -0.0059
v  0.0000 0.5096 -0.0059
v  -0.0312 0.5096 -0.0059
v  0.0000 0.0015 -0.0456
v  0.0000 0.4863 -0.0600
v  -0.0312 0.0177 -0.0600
v  -0.0312 0.5024 -0.0456
v  0.0000 0.2946 -0.2546
v  0.0000 0.2105 -0.2546
v  -0.0312 0.2105 -0.2546
v  -0.0312 0.2946 -0.2546
v  0.0000 0.0177 -0.0600
v  0.0000 0.5024 -0.0456
v  -0.0312 0.0015 -0.0456
v  -0.0312 0.4863 -0.0600
v  0.0000 0.3107 -0.2402
v  0.0000 0.1943 -0.2402
v  -0.0312 0.1943 -0.2402
v  -0.0312 0.3107 -0.2402
v  0.0000 -0.0057 -0.0301
v  0.0000 0.4689 -0.0665
v  -0.0312 0.0351 -0.0665
v  -0.0312 0.5096 -0.0301
v  0.0000 0.2772 -0.2611
v  0.0000 0.2279 -0.2611
v  -0.0312 0.2279 -0.2611
v  -0.0312 0.2772 -0.2611
v  -0.0312 0.1871 0.0007
v  0.0000 -0.0057 0.0315
v  0.0000 0.0015 0.0471
v  0.0000 0.0177 0.0615
v  0.0000 0.0351 0.0679
v  0.0000 0.1871 0.0679
v  0.0000 0.1871 0.0073
v  0.0000 -0.0057 0.0073
v  -0.0312 0.0351 0.0679
v  -0.0312 0.0177 0.0615
v  -0.0312 0.0015 0.0471
v  -0.0312 -0.0057 0.0315
v  -0.0312 -0.0057 0.0073
v  -0.0312 0.1871 0.0073
v  -0.0312 0.1871 0.0679
v  0.0000 0.4689 0.0679
v  0.0000 0.3179 0.0679
v  -0.0312 0.3179 0.0679
v  -0.0312 0.4689 0.0679
v  0.0000 0.3179 0.0073
v  0.0000 0.2772 0.2625
v  0.0000 0.2279 0.2625
v  -0.0312 0.2279 0.2625
v  -0.0312 0.2772 0.2625
v  0.0000 0.4863 0.0615
v  0.0000 0.5024 0.0471
v  0.0000 0.5096 0.0315
v  0.0000 0.5096 0.0073
v  0.0000 0.1871 0.2261
v  0.0000 0.1943 0.2417
v  0.0000 0.2105 0.2561
v  0.0000 0.2946 0.2561
v  0.0000 0.3107 0.2417
v  0.0000 0.3179 0.2261
v  -0.0312 0.1871 0.2261
v  -0.0312 0.3179 0.2261
v  -0.0312 0.3107 0.2417
v  -0.0312 0.2946 0.2561
v  -0.0312 0.2105 0.2561
v  -0.0312 0.1943 0.2417
v  -0.0312 0.5096 0.0315
v  -0.0312 0.5096 0.0073
v  -0.0312 0.3179 0.0073
v  -0.0312 0.5024 0.0471
v  -0.0312 0.4863 0.0615
v  -0.0312 0.5096 0.0007
v  0.0000 0.5096 0.0007
v  -0.0312 0.3179 0.0007
v  0.0000 -0.0057 0.0007
v  0.0000 0.1871 0.0007
v  -0.0312 -0.0057 0.0007
v  0.0000 0.3179 0.0007
v  0.0000 0.0351 -0.0665
v  0.0000 0.0351 -0.0665
v  0.0000 0.5096 -0.0301
v  0.0000 0.5096 -0.0301
v  -0.0312 -0.0057 -0.0301
v  -0.0312 -0.0057 -0.0301
v  -0.0312 0.4689 -0.0665
v  -0.0312 0.4689 -0.0665
v  -0.0312 0.1871 -0.0665
v  -0.0312 0.1871 -0.0665
v  -0.0312 0.1871 -0.0665
v  -0.0312 0.1871 -0.0665
v  0.0000 0.1871 -0.0665
v  0.0000 0.1871 -0.0665
v  0.0000 0.1871 -0.0665
v  0.0000 0.1871 -0.0665
v  -0.0312 0.3179 -0.0665
v  -0.0312 0.3179 -0.0665
v  -0.0312 0.3179 -0.0665
v  -0.0312 0.3179 -0.0665
v  0.0000 0.3179 -0.0665
v  0.0000 0.3179 -0.0665
v  0.0000 0.3179 -0.0665
v  0.0000 0.3179 -0.0665
v  0.0000 0.3179 -0.2247
v  0.0000 0.3179 -0.2247
v  0.0000 0.1871 -0.2247
v  0.0000 0.1871 -0.2247
v  -0.0312 0.1871 -0.2247
v  -0.0312 0.1871 -0.2247
v  -0.0312 0.3179 -0.2247
v  -0.0312 0.3179 -0.2247
v  0.0000 -0.0057 -0.0059
v  0.0000 -0.0057 -0.0059
v  0.0000 -0.0057 -0.0059
v  0.0000 0.1871 -0.0059
v  0.0000 0.1871 -0.0059
v  0.0000 0.1871 -0.0059
v  -0.0312 0.3179 -0.0059
v  -0.0312 0.3179 -0.0059
v  -0.0312 0.3179 -0.0059
v  -0.0312 -0.0057 -0.0059
v  -0.0312 -0.0057 -0.0059
v  -0.0312 -0.0057 -0.0059
v  -0.0312 0.1871 -0.0059
v  -0.0312 0.1871 -0.0059
v  -0.0312 0.1871 -0.0059
v  0.0000 0.3179 -0.0059
v  0.0000 0.3179 -0.0059
v  0.0000 0.3179 -0.0059
v  0.0000 0.5096 -0.0059
v  0.0000 0.5096 -0.0059
v  0.0000 0.5096 -0.0059
v  -0.0312 0.5096 -0.0059
v  -0.0312 0.5096 -0.0059
v  -0.0312 0.5096 -0.0059
v  0.0000 0.0015 -0.0456
v  0.0000 0.0015 -0.0456
v  0.0000 0.4863 -0.0600
v  0.0000 0.4863 -0.0600
v  -0.0312 0.0177 -0.0600
v  -0.0312 0.0177 -0.0600
v  -0.0312 0.5024 -0.0456
v  -0.0312 0.5024 -0.0456
v  0.0000 0.2946 -0.2546
v  0.0000 0.2946 -0.2546
v  0.0000 0.2105 -0.2546
v  0.0000 0.2105 -0.2546
v  -0.0312 0.2105 -0.2546
v  -0.0312 0.2105 -0.2546
v  -0.0312 0.2946 -0.2546
v  -0.0312 0.2946 -0.2546
v  0.0000 0.0177 -0.0600
v  0.0000 0.0177 -0.0600
v  0.0000 0.5024 -0.0456
v  0.0000 0.5024 -0.0456
v  -0.0312 0.0015 -0.0456
v  -0.0312 0.0015 -0.0456
v  -0.0312 0.4863 -0.0600
v  -0.0312 0.4863 -0.0600
v  0.0000 0.3107 -0.2402
v  0.0000 0.3107 -0.2402
v  0.0000 0.1943 -0.2402
v  0.0000 0.1943 -0.2402
v  -0.0312 0.1943 -0.2402
v  -0.0312 0.1943 -0.2402
v  -0.0312 0.3107 -0.2402
v  -0.0312 0.3107 -0.2402
v  0.0000 -0.0057 -0.0301
v  0.0000 -0.0057 -0.0301
v  0.0000 0.4689 -0.0665
v  0.0000 0.4689 -0.0665
v  -0.0312 0.0351 -0.0665
v  -0.0312 0.0351 -0.0665
v  -0.0312 0.5096 -0.0301
v  -0.0312 0.5096 -0.0301
v  0.0000 0.2772 -0.2611
v  0.0000 0.2772 -0.2611
v  0.0000 0.2279 -0.2611
v  0.0000 0.2279 -0.2611
v  -0.0312 0.2279 -0.2611
v  -0.0312 0.2279 -0.2611
v  -0.0312 0.2772 -0.2611
v  -0.0312 0.2772 -0.2611
v  -0.0312 0.1871 0.0007
v  -0.0312 0.1871 0.0007
v  -0.0312 0.1871 0.0007
v  0.0000 -0.0057 0.0315
v  0.0000 -0.0057 0.0315
v  0.0000 0.0015 0.0471
v  0.0000 0.0015 0.0471
v  0.0000 0.0177 0.0615
v  0.0000 0.0177 0.0615
v  0.0000 0.0351 0.0679
v  0.0000 0.0351 0.0679
v  0.0000 0.1871 0.0679
v  0.0000 0.1871 0.0679
v  0.0000 0.1871 0.0679
v  0.0000 0.1871 0.0679
v  0.0000 0.1871 0.0073
v  0.0000 0.1871 0.0073
v  0.0000 0.1871 0.0073
v  0.0000 -0.0057 0.0073
v  0.0000 -0.0057 0.0073
v  0.0000 -0.0057 0.0073
v  -0.0312 0.0351 0.0679
v  -0.0312 0.0351 0.0679
v  -0.0312 0.0177 0.0615
v  -0.0312 0.0177 0.0615
v  -0.0312 0.0015 0.0471
v  -0.0312 0.0015 0.0471
v  -0.0312 -0.0057 0.0315
v  -0.0312 -0.0057 0.0315
v  -0.0312 -0.0057 0.0073
v  -0.0312 -0.0057 0.0073
v  -0.0312 -0.0057 0.0073
v  -0.0312 0.1871 0.0073
v  -0.0312 0.1871 0.0073
v  -0.0312 0.1871 0.0073
v  -0.0312 0.1871 0.0679
v  -0.0312 0.1871 0.0679
v  -0.0312 0.1871 0.0679
v  -0.0312 0.1871 0.0679
v  0.0000 0.4689 0.0679
v  0.0000 0.4689 0.0679
v  0.0000 0.3179 0.0679
v  0.0000 0.3179 0.0679
v  0.0000 0.3179 0.0679
v  0.0000 0.3179 0.0679
v  -0.0312 0.3179 0.0679
v  -0.0312 0.3179 0.0679
v  -0.0312 0.3179 0.0679
v  -0.0312 0.3179 0.0679
v  -0.0312 0.4689 0.0679
v  -0.0312 0.4689 0.0679
v  0.0000 0.3179 0.0073
v  0.0000 0.3179 0.0073
v  0.0000 0.3179 0.0073
v  0.0000 0.2772 0.2625
v  0.0000 0.2772 0.2625
v  0.0000 0.2279 0.2625
v  0.0000 0.2279 0.2625
v  -0.0312 0.2279 0.2625
v  -0.0312 0.2279 0.2625
v  -0.0312 0.2772 0.2625
v  -0.0312 0.2772 0.2625
v  0.0000 0.4863 0.0615
v  0.0000 0.4863 0.0615
v  0.0000 0.5024 0.0471
v  0.0000 0.5024 0.0471
v  0.0000 0.5096 0.0315
v  0.0000 0.5096 0.0315
v  0.0000 0.5096 0.0073
v  0.0000 0.5096 0.0073
v  0.0000 0.5096 0.0073
v  0.0000 0.1871 0.2261
v  0.0000 0.1871 0.2261
v  0.0000 0.1943 0.2417
v  0.0000 0.1943 0.2417
v  0.0000 0.2105 0.2561
v  0.0000 0.2105 0.2561
v  0.0000 0.2946 0.2561
v  0.0000 0.2946 0.2561
v  0.0000 0.3107 0.2417
v  0.0000 0.3107 0.2417
v  0.0000 0.3179 0.2261
v  0.0000 0.3179 0.2261
v  -0.0312 0.1871 0.2261
v  -0.0312 0.1871 0.2261
v  -0.0312 0.3179 0.2261
v  -0.0312 0.3179 0.2261
v  -0.0312 0.3107 0.2417
v  -0.0312 0.3107 0.2417
v  -0.0312 0.2946 0.2561
v  -0.0312 0.2946 0.2561
v  -0.0312 0.2105 0.2561
v  -0.0312 0.2105 0.2561
v  -0.0312 0.1943 0.2417
v  -0.0312 0.1943 0.2417
v  -0.0312 0.5096 0.0315
v  -0.0312 0.5096 0.0315
v  -0.0312 0.5096 0.0073
v  -0.0312 0.5096 0.0073
v  -0.0312 0.5096 0.0073
v  -0.0312 0.3179 0.0073
v  -0.0312 0.3179 0.0073
v  -0.0312 0.3179 0.0073
v  -0.0312 0.5024 0.0471
v  -0.0312 0.5024 0.0471
v  -0.0312 0.4863 0.0615
v  -0.0312 0.4863 0.0615
v  -0.0312 0.5096 0.0007
v  -0.0312 0.5096 0.0007
v  -0.0312 0.5096 0.0007
v  0.0000 0.5096 0.0007
v  0.0000 0.5096 0.0007
v  0.0000 0.5096 0.0007
v  -0.0312 0.3179 0.0007
v  -0.0312 0.3179 0.0007
v  -0.0312 0.3179 0.0007
v  0.0000 -0.0057 0.0007
v  0.0000 -0.0057 0.0007
v  0.0000 -0.0057 0.0007
v  0.0000 0.1871 0.0007
v  0.0000 0.1871 0.0007
v  0.0000 0.1871 0.0007
v  -0.0312 -0.0057 0.0007
v  -0.0312 -0.0057 0.0007
v  -0.0312 -0.0057 0.0007
v  0.0000 0.3179 0.0007
v  0.0000 0.3179 0.0007
v  0.0000 0.3179 0.0007
# 328 vertices

vn 1.0000 0.0000 0.0000
vn -1.0000 -0.0000 -0.0000
vn 0.0000 -1.0000 0.0000
vn 0.0000 -0.0000 -1.0000
vn 0.0000 0.0000 -1.0000
vn -1.0000 0.0000 -0.0000
vn -0.0000 1.0000 0.0000
vn -0.0000 1.0000 -0.0000
vn 0.0000 1.0000 -0.0000
vn 0.0000 1.0000 0.0000
vn 0.0000 -0.7071 -0.7071
vn 0.0000 0.7071 -0.7071
vn -0.0000 0.7071 -0.7071
vn 0.0000 -0.9239 -0.3827
vn 0.0000 0.9239 -0.3827
vn 0.0000 -0.3827 -0.9239
vn 0.0000 0.3827 -0.9239
vn -0.0000 0.9239 -0.3827
vn -0.0000 -0.0000 1.0000
vn 0.0000 0.0000 1.0000
vn 0.0000 -0.0000 1.0000
vn -0.0000 0.0000 1.0000
vn 1.0000 0.0000 -0.0000
vn -1.0000 -0.0000 0.0000
vn -1.0000 0.0000 0.0000
vn -0.0000 -0.7071 0.7071
vn 0.0000 0.7071 0.7071
vn 0.0000 -0.7071 0.7071
vn -0.0000 0.7071 0.7071
vn 0.0000 -0.9239 0.3827
vn -0.0000 0.9239 0.3827
vn -0.0000 -0.3827 0.9239
vn -0.0000 0.3827 0.9239
vn 0.0000 0.3827 0.9239
# 34 vertex normals

vt 0.5885 0.0140 0.0000
vt 0.6160 0.0453 0.0000
vt 0.6283 0.0791 0.0000
vt 0.6283 0.3741 0.0000
vt 0.5126 0.3741 0.0000
vt 0.5126 0.0000 0.0000
vt 0.5588 0.0000 0.0000
vt 0.3840 0.0453 1.0000
vt 0.4115 0.0140 1.0000
vt 0.4412 0.0000 1.0000
vt 0.4874 0.0000 1.0000
vt 0.4874 0.3741 1.0000
vt 0.3717 0.3741 1.0000
vt 0.3717 0.0791 1.0000
vt 0.4874 0.0000 0.0000
vt 0.4874 1.0000 0.0000
vt 0.4412 1.0000 0.0000
vt 0.4412 0.0000 0.0000
vt 0.3720 0.0000 0.3717
vt 0.3720 1.0000 0.3717
vt 0.0791 1.0000 0.3717
vt 0.0791 0.0000 0.3717
vt 0.6283 0.6280 0.0000
vt 0.5126 0.6280 0.0000
vt 0.9209 0.0000 0.3717
vt 0.9209 1.0000 0.3717
vt 0.6259 1.0000 0.3717
vt 0.6259 0.0000 0.3717
vt 0.5468 -0.0000 -0.0000
vt 0.5468 1.0000 -0.0000
vt 0.4511 1.0000 -0.0000
vt 0.4511 0.0000 -0.0000
vt 0.6283 0.9209 0.0000
vt 0.6160 0.9547 0.0000
vt 0.5885 0.9860 0.0000
vt 0.5588 1.0000 0.0000
vt 0.5126 1.0000 0.0000
vt 0.9305 0.3741 0.0000
vt 0.9602 0.3881 0.0000
vt 0.9877 0.4195 0.0000
vt 1.0000 0.4532 -0.0000
vt 1.0000 0.5489 0.0000
vt 0.9877 0.5827 0.0000
vt 0.9602 0.6140 0.0000
vt 0.9305 0.6280 0.0000
vt 0.3717 0.0000 0.3741
vt 0.3717 1.0000 0.3741
vt 0.0695 1.0000 0.3741
vt 0.0695 0.0000 0.3741
vt 0.3717 0.6280 1.0000
vt 0.0695 0.6280 1.0000
vt 0.0398 0.6140 1.0000
vt 0.0123 0.5827 1.0000
vt -0.0000 0.5489 1.0000
vt -0.0000 0.4532 1.0000
vt 0.0123 0.4195 1.0000
vt 0.0398 0.3881 1.0000
vt 0.0695 0.3741 1.0000
vt 0.6283 1.0000 0.6280
vt 0.6283 0.0000 0.6280
vt 0.9305 0.0000 0.6280
vt 0.9305 1.0000 0.6280
vt 0.5588 0.0000 1.0000
vt 0.5588 1.0000 1.0000
vt 0.5126 1.0000 1.0000
vt 0.5126 0.0000 1.0000
vt 0.4874 0.6280 1.0000
vt 0.4874 1.0000 1.0000
vt 0.4412 1.0000 1.0000
vt 0.4115 0.9860 1.0000
vt 0.3840 0.9547 1.0000
vt 0.3717 0.9209 1.0000
vt 0.5000 1.0000 1.0000
vt 0.5000 0.0000 1.0000
vt 0.5000 0.3741 1.0000
vt 0.5000 0.6280 1.0000
vt 0.4115 1.0000 0.0140
vt 0.3840 1.0000 0.0453
vt 0.3840 0.0000 0.0453
vt 0.4115 0.0000 0.0140
vt 0.5885 0.0000 0.9860
vt 0.6160 0.0000 0.9547
vt 0.6160 1.0000 0.9547
vt 0.5885 1.0000 0.9860
vt 0.0123 0.0000 0.4195
vt 0.0398 0.0000 0.3881
vt 0.0398 1.0000 0.3881
vt 0.0123 1.0000 0.4195
vt 0.9877 1.0000 0.5827
vt 0.9602 1.0000 0.6140
vt 0.9602 0.0000 0.6140
vt 0.9877 0.0000 0.5827
vt 0.5805 0.0000 0.0123
vt 0.5805 1.0000 0.0123
vt 0.4173 1.0000 0.0123
vt 0.4173 0.0000 0.0123
vt 0.9547 1.0000 0.3840
vt 0.9547 0.0000 0.3840
vt 0.0453 0.0000 0.3840
vt 0.0453 1.0000 0.3840
vt 0.5000 0.3741 0.0000
vt 0.5000 0.0000 0.0000
vt 0.5000 1.0000 0.0000
vt 0.5000 0.6280 0.0000
vt 0.4874 0.3741 0.0000
vt 0.3717 0.3741 0.0000
vt 0.3717 0.0791 0.0000
vt 0.3840 0.0453 0.0000
vt 0.4115 0.0140 0.0000
vt 0.6283 0.3741 1.0000
vt 0.5126 0.3741 1.0000
vt 0.5885 0.0140 1.0000
vt 0.6160 0.0453 1.0000
vt 0.6283 0.0791 1.0000
vt 0.6280 0.0000 0.6283
vt 0.9209 0.0000 0.6283
vt 0.9209 1.0000 0.6283
vt 0.6280 1.0000 0.6283
vt 0.3717 0.6280 0.0000
vt 0.4874 0.6280 0.0000
vt 0.0791 0.0000 0.6283
vt 0.3741 0.0000 0.6283
vt 0.3741 1.0000 0.6283
vt 0.0791 1.0000 0.6283
vt 0.4532 0.0000 1.0000
vt 0.5489 0.0000 1.0000
vt 0.5489 1.0000 1.0000
vt 0.4532 1.0000 1.0000
vt 0.4115 0.9860 0.0000
vt 0.3840 0.9547 0.0000
vt 0.3717 0.9209 0.0000
vt 0.0695 0.6280 0.0000
vt 0.0398 0.6140 0.0000
vt 0.0123 0.5827 0.0000
vt -0.0000 0.5489 0.0000
vt 0.0000 0.4532 0.0000
vt 0.0123 0.4195 0.0000
vt 0.0398 0.3881 0.0000
vt 0.0695 0.3741 0.0000
vt 0.6283 0.0000 0.3741
vt 0.9305 0.0000 0.3741
vt 0.9305 1.0000 0.3741
vt 0.6283 1.0000 0.3741
vt 0.9305 0.3741 1.0000
vt 0.9602 0.3881 1.0000
vt 0.9877 0.4195 1.0000
vt 1.0000 0.4532 1.0000
vt 1.0000 0.5489 1.0000
vt 0.9877 0.5827 1.0000
vt 0.9602 0.6140 1.0000
vt 0.9305 0.6280 1.0000
vt 0.6283 0.6280 1.0000
vt 0.3717 1.0000 0.6280
vt 0.0695 1.0000 0.6280
vt 0.0695 0.0000 0.6280
vt 0.3717 0.0000 0.6280
vt 0.5126 0.6280 1.0000
vt 0.6283 0.9209 1.0000
vt 0.6160 0.9547 1.0000
vt 0.5885 0.9860 1.0000
vt 0.5885 1.0000 0.0140
vt 0.5885 0.0000 0.0140
vt 0.6160 0.0000 0.0453
vt 0.6160 1.0000 0.0453
vt 0.4115 0.0000 0.9860
vt 0.4115 1.0000 0.9860
vt 0.3840 1.0000 0.9547
vt 0.3840 0.0000 0.9547
vt 0.9877 0.0000 0.4195
vt 0.9877 1.0000 0.4195
vt 0.9602 1.0000 0.3881
vt 0.9602 0.0000 0.3881
vt 0.0123 1.0000 0.5827
vt 0.0123 0.0000 0.5827
vt 0.0398 0.0000 0.6140
vt 0.0398 1.0000 0.6140
vt 0.4195 1.0000 0.9877
vt 0.4195 0.0000 0.9877
vt 0.5827 0.0000 0.9877
vt 0.5827 1.0000 0.9877
vt 0.0453 1.0000 0.6160
vt 0.0453 0.0000 0.6160
vt 0.9547 0.0000 0.6160
vt 0.9547 1.0000 0.6160
# 184 texture coords

g Box144
f 21/1/1 29/2/1 1/3/1 
f 112/4/1 134/5/1 131/6/1 
f 1/3/1 112/4/1 131/6/1 
f 21/1/1 1/3/1 131/6/1 
f 185/7/1 21/1/1 131/6/1 
f 157/8/2 31/9/2 3/10/2 
f 140/11/2 17/12/2 105/13/2 
f 3/10/2 140/11/2 105/13/2 
f 157/8/2 3/10/2 105/13/2 
f 189/14/2 157/8/2 105/13/2 
f 130/15/3 16/16/3 102/17/3 
f 102/17/3 186/18/3 130/15/3 
f 118/19/4 7/20/4 104/21/4 
f 104/21/4 188/22/5 118/19/4 
f 120/23/1 146/24/1 14/5/1 
f 14/5/1 111/4/1 120/23/1 
f 98/25/5 190/26/5 5/27/5 
f 5/27/5 6/28/5 98/25/5 
f 195/29/5 197/30/5 199/31/5 
f 199/31/5 193/32/5 195/29/5 
f 119/23/1 187/33/1 22/34/1 
f 22/34/1 30/35/1 2/36/1 
f 119/23/1 22/34/1 2/36/1 
f 2/36/1 149/37/1 18/24/1 
f 119/23/1 2/36/1 18/24/1 
f 110/4/1 124/38/1 180/39/1 
f 180/39/1 163/40/1 196/41/1 
f 110/4/1 180/39/1 196/41/1 
f 8/23/1 110/4/1 196/41/1 
f 196/41/1 41/42/1 161/43/1 
f 161/43/1 33/44/1 9/45/1 
f 196/41/1 161/43/1 9/45/1 
f 8/23/1 196/41/1 9/45/1 
f 109/46/3 108/47/3 126/48/3 
f 126/48/3 10/49/3 109/46/3 
f 114/50/2 128/51/2 184/52/2 
f 184/52/2 167/53/6 200/54/2 
f 114/50/2 184/52/2 200/54/2 
f 107/13/2 114/50/2 200/54/2 
f 200/54/2 43/55/2 165/56/2 
f 165/56/2 35/57/6 11/58/2 
f 200/54/2 165/56/2 11/58/2 
f 107/13/2 200/54/2 11/58/2 
f 113/59/7 117/60/7 122/61/8 
f 122/61/8 12/62/8 113/59/7 
f 100/63/8 192/64/8 151/65/8 
f 151/65/8 19/66/8 100/63/8 
f 115/50/2 106/13/2 143/12/2 
f 143/12/2 15/67/2 115/50/2 
f 152/68/2 191/69/2 159/70/2 
f 159/70/2 32/71/2 4/72/2 
f 152/68/2 159/70/2 4/72/2 
f 4/72/2 116/50/2 137/67/2 
f 152/68/2 4/72/2 137/67/2 
f 150/65/9 310/73/9 91/74/10 
f 91/74/10 147/66/7 150/65/9 
f 142/12/2 203/75/2 92/76/2 
f 92/76/2 135/67/2 142/12/2 
f 136/67/2 316/76/2 90/73/2 
f 90/73/2 20/68/2 136/67/2 
f 173/77/11 23/78/11 169/79/11 
f 169/79/11 154/80/11 173/77/11 
f 171/81/12 156/82/12 175/83/12 
f 175/83/12 24/84/12 171/81/12 
f 164/85/11 179/86/11 181/87/11 
f 181/87/11 27/88/11 164/85/11 
f 168/89/13 183/90/13 177/91/13 
f 177/91/13 25/92/13 168/89/13 
f 101/17/14 174/77/14 153/80/14 
f 153/80/14 37/18/14 101/17/14 
f 99/63/15 172/81/15 160/84/15 
f 160/84/15 40/64/15 99/63/15 
f 42/29/16 26/93/16 166/94/16 
f 166/94/16 198/30/16 42/29/16 
f 44/31/17 28/95/17 162/96/17 
f 162/96/17 194/32/17 44/31/17 
f 158/97/16 39/26/16 97/25/16 
f 97/25/16 170/98/16 158/97/16 
f 155/99/17 38/22/17 103/21/17 
f 103/21/17 176/100/17 155/99/17 
f 34/86/14 123/49/14 125/48/14 
f 125/48/14 182/87/14 34/86/14 
f 36/90/18 127/62/18 121/61/18 
f 121/61/18 178/91/18 36/90/18 
f 13/6/1 133/5/1 322/101/1 
f 322/101/1 93/102/1 13/6/1 
f 141/12/2 139/11/2 325/74/2 
f 325/74/2 45/75/2 141/12/2 
f 138/16/3 129/15/3 319/102/3 
f 319/102/3 95/103/3 138/16/3 
f 132/5/1 145/24/1 328/104/1 
f 328/104/1 94/101/1 132/5/1 
f 144/24/1 148/37/1 313/103/1 
f 313/103/1 96/104/1 144/24/1 
f 221/15/1 51/105/1 50/106/1 
f 221/15/1 50/106/1 49/107/1 
f 49/107/1 48/108/1 47/109/1 
f 221/15/1 49/107/1 47/109/1 
f 205/18/1 221/15/1 47/109/1 
f 238/110/2 233/111/2 230/66/2 
f 238/110/2 230/66/2 228/63/2 
f 228/63/2 226/112/2 224/113/2 
f 238/110/2 228/63/2 224/113/2 
f 222/114/2 238/110/2 224/113/2 
f 52/6/3 204/7/3 229/36/3 
f 229/36/3 57/37/3 52/6/3 
f 243/115/19 241/116/20 251/117/21 
f 251/117/21 247/118/19 243/115/19 
f 61/119/1 212/106/1 218/105/1 
f 218/105/1 254/120/1 61/119/1 
f 210/121/22 215/122/22 239/123/22 
f 239/123/22 53/124/22 210/121/22 
f 66/125/22 256/126/22 262/127/22 
f 262/127/22 67/128/22 66/125/22 
f 253/120/1 271/16/1 71/17/1 
f 242/119/1 253/120/1 71/17/1 
f 71/17/1 70/129/1 69/130/1 
f 242/119/1 71/17/1 69/130/1 
f 242/119/1 69/130/1 60/131/1 
f 283/132/1 77/133/1 76/134/1 
f 76/134/1 65/135/23 258/136/23 
f 283/132/1 76/134/1 258/136/23 
f 245/119/1 283/132/1 258/136/23 
f 258/136/23 277/137/23 74/138/23 
f 74/138/23 73/139/23 213/106/23 
f 258/136/23 74/138/23 213/106/23 
f 245/119/1 258/136/23 213/106/23 
f 214/140/3 273/141/3 79/142/3 
f 79/142/3 59/143/3 214/140/3 
f 285/144/24 294/145/6 83/146/24 
f 83/146/24 259/147/2 261/148/24 
f 285/144/24 83/146/24 261/148/24 
f 236/110/2 285/144/24 261/148/24 
f 261/148/24 291/149/25 288/150/24 
f 288/150/24 80/151/2 62/152/2 
f 261/148/24 288/150/24 62/152/2 
f 236/110/2 261/148/24 62/152/2 
f 246/153/8 287/154/8 78/155/8 
f 78/155/8 244/156/8 246/153/8 
f 267/10/8 270/11/8 300/68/8 
f 300/68/8 85/69/8 267/10/8 
f 249/152/2 87/157/2 234/111/2 
f 234/111/2 237/110/2 249/152/2 
f 301/157/2 248/152/2 250/158/2 
f 299/65/2 301/157/2 250/158/2 
f 250/158/2 307/159/2 304/160/2 
f 299/65/2 250/158/2 304/160/2 
f 299/65/2 304/160/2 296/64/2 
f 86/68/9 269/11/8 311/74/9 
f 311/74/9 309/73/10 86/68/9 
f 235/111/2 303/157/2 314/76/2 
f 314/76/2 202/75/2 235/111/2 
f 302/157/2 298/65/2 308/73/2 
f 308/73/2 315/76/2 302/157/2 
f 55/161/26 206/162/26 209/163/26 
f 209/163/26 225/164/26 55/161/26 
f 266/165/27 305/166/27 306/167/27 
f 306/167/27 263/168/27 266/165/27 
f 276/169/28 292/170/28 84/171/28 
f 84/171/28 274/172/28 276/169/28 
f 290/173/29 278/174/29 281/175/29 
f 281/175/29 289/176/29 290/173/29 
f 56/36/30 46/7/30 207/162/30 
f 207/162/30 227/161/30 56/36/30 
f 268/10/31 297/69/31 88/166/31 
f 88/166/31 265/165/31 268/10/31 
f 257/125/32 260/128/32 293/177/32 
f 293/177/32 75/178/32 257/125/32 
f 68/127/33 255/126/33 279/179/33 
f 279/179/33 82/180/33 68/127/33 
f 54/181/32 208/182/32 211/121/32 
f 211/121/32 223/124/32 54/181/32 
f 264/183/34 89/184/34 63/117/34 
f 63/117/34 240/116/34 264/183/34 
f 275/172/30 295/171/30 284/142/30 
f 284/142/30 272/141/30 275/172/30 
f 81/176/31 280/175/31 282/155/31 
f 282/155/31 286/154/31 81/176/31 
f 220/15/1 317/102/1 321/101/1 
f 321/101/1 216/105/1 220/15/1 
f 58/111/2 201/75/2 324/74/2 
f 324/74/2 231/66/2 58/111/2 
f 232/37/3 323/103/3 318/102/3 
f 318/102/3 219/6/3 232/37/3 
f 217/105/1 320/101/1 327/104/1 
f 327/104/1 64/120/1 217/105/1 
f 252/120/1 326/104/1 312/103/1 
f 312/103/1 72/16/1 252/120/1 
# 188 faces

