# 3ds Max Wavefront OBJ Exporter v0.97b - (c)2007 guruware
# File Created: 12.12.2017 16:18:02

#
# object Sphere001
#

v  0.0858 -8.7055 0.0723
v  0.0858 -8.7625 -0.0653
v  -0.0115 -8.7625 -0.0250
v  -0.0517 -8.7625 0.0723
v  -0.0115 -8.7625 0.1696
v  0.0858 -8.7625 0.2099
v  0.1831 -8.7625 0.1696
v  0.2234 -8.7625 0.0723
v  0.1831 -8.7625 -0.0250
v  0.0858 -8.9001 -0.1223
v  -0.0517 -8.9001 -0.0653
v  -0.1087 -8.9001 0.0723
v  -0.0517 -8.9001 0.2099
v  0.0858 -8.9001 0.2669
v  0.2234 -8.9001 0.2099
v  0.2804 -8.9001 0.0723
v  0.2234 -8.9001 -0.0653
v  0.0858 -9.0377 -0.0653
v  -0.0115 -9.0377 -0.0250
v  -0.0517 -9.0377 0.0723
v  -0.0115 -9.0377 0.1696
v  0.0858 -9.0377 0.2099
v  0.1831 -9.0377 0.1696
v  0.2234 -9.0377 0.0723
v  0.1831 -9.0377 -0.0250
v  0.0858 -9.0947 0.0723
v  0.2776 -9.8660 0.0692
v  0.2214 -9.8660 -0.0664
v  0.0857 -9.8660 -0.1226
v  -0.0499 -9.8660 -0.0664
v  -0.1061 -9.8660 0.0692
v  -0.0499 -9.8660 0.2048
v  0.0857 -9.8660 0.2610
v  0.2214 -9.8660 0.2048
v  0.2776 -9.1879 0.0692
v  0.2214 -9.1879 -0.0664
v  0.0857 -9.1879 -0.1226
v  -0.0499 -9.1879 -0.0664
v  -0.1061 -9.1879 0.0692
v  -0.0499 -9.1879 0.2048
v  0.0857 -9.1879 0.2610
v  0.2214 -9.1879 0.2048
v  0.1044 -9.6036 0.4014
v  0.1044 -9.5883 0.4355
v  0.1044 -9.3217 0.2748
v  0.1044 -9.3064 0.3089
v  0.0525 -9.6036 0.4014
v  0.0525 -9.5883 0.4355
v  0.0525 -9.3217 0.2748
v  0.0525 -9.3064 0.3089
v  0.1044 -9.5799 -0.3158
v  0.1044 -9.5984 -0.2834
v  0.1044 -9.3116 -0.1624
v  0.1044 -9.3301 -0.1300
v  0.0525 -9.5799 -0.3158
v  0.0525 -9.5984 -0.2834
v  0.0525 -9.3116 -0.1624
v  0.0525 -9.3301 -0.1300
# 58 vertices

vn 0.0000 1.0000 -0.0000
vn 0.0000 0.6630 -0.7486
vn -0.5294 0.6630 -0.5294
vn -0.7486 0.6630 0.0000
vn -0.5294 0.6630 0.5294
vn 0.0000 0.6630 0.7486
vn 0.5294 0.6630 0.5294
vn 0.7486 0.6630 0.0000
vn 0.5294 0.6630 -0.5294
vn -0.7071 -0.0000 -0.7071
vn 0.0000 -0.0000 -1.0000
vn -1.0000 -0.0000 0.0000
vn -0.7071 -0.0000 0.7071
vn 0.0000 -0.0000 1.0000
vn 0.7071 -0.0000 0.7071
vn 1.0000 -0.0000 0.0000
vn 0.7071 -0.0000 -0.7071
vn -0.5294 -0.6630 -0.5294
vn 0.0000 -0.6630 -0.7486
vn -0.7486 -0.6630 0.0000
vn -0.5294 -0.6630 0.5294
vn -0.0000 -0.6630 0.7486
vn 0.5294 -0.6630 0.5294
vn 0.7486 -0.6630 0.0000
vn 0.5294 -0.6630 -0.5294
vn 0.0000 -1.0000 -0.0000
vn 1.0000 0.0000 0.0000
vn 0.7071 0.0000 -0.7071
vn -0.0000 0.0000 -1.0000
vn -0.7071 0.0000 -0.7071
vn -1.0000 0.0000 0.0000
vn -0.7071 0.0000 0.7071
vn 0.0000 0.0000 1.0000
vn -0.0000 0.0000 1.0000
vn 0.7071 0.0000 0.7071
vn -1.0000 -0.0000 -0.0000
vn -0.0000 -0.9122 0.4098
vn -0.0000 0.4098 0.9122
vn 0.0000 0.4098 0.9122
vn 0.0000 0.9122 -0.4098
vn 0.0000 -0.4098 -0.9122
vn 0.0000 -0.8682 -0.4962
vn -0.0000 -0.4962 0.8682
vn 0.0000 -0.4962 0.8682
vn -0.0000 0.8682 0.4962
vn 0.0000 0.4962 -0.8682
# 46 vertex normals

vt 0.0000 1.0000 0.0000
vt 0.0000 0.7500 0.0000
vt 0.1250 0.7500 0.0000
vt 0.1250 1.0000 0.0000
vt 0.2500 0.7500 0.0000
vt 0.2500 1.0000 0.0000
vt 0.3750 0.7500 0.0000
vt 0.3750 1.0000 0.0000
vt 0.5000 0.7500 0.0000
vt 0.5000 1.0000 0.0000
vt 0.6250 0.7500 0.0000
vt 0.6250 1.0000 0.0000
vt 0.7500 0.7500 0.0000
vt 0.7500 1.0000 0.0000
vt 0.8750 0.7500 0.0000
vt 0.8750 1.0000 0.0000
vt 1.0000 0.7500 0.0000
vt 0.1250 0.5000 0.0000
vt 0.0000 0.5000 0.0000
vt 0.2500 0.5000 0.0000
vt 0.3750 0.5000 0.0000
vt 0.5000 0.5000 0.0000
vt 0.6250 0.5000 0.0000
vt 0.7500 0.5000 0.0000
vt 0.8750 0.5000 0.0000
vt 1.0000 0.5000 0.0000
vt 0.1250 0.2500 0.0000
vt 0.0000 0.2500 0.0000
vt 0.2500 0.2500 0.0000
vt 0.3750 0.2500 0.0000
vt 0.5000 0.2500 0.0000
vt 0.6250 0.2500 0.0000
vt 0.7500 0.2500 0.0000
vt 0.8750 0.2500 0.0000
vt 1.0000 0.2500 0.0000
vt 0.0000 0.0000 0.0000
vt 0.1250 0.0000 0.0000
vt 0.2500 0.0000 0.0000
vt 0.3750 0.0000 0.0000
vt 0.5000 0.0000 0.0000
vt 0.6250 0.0000 0.0000
vt 0.7500 0.0000 0.0000
vt 0.8750 0.0000 0.0000
vt 0.7500 0.0000 1.0000
vt 0.8750 0.0000 1.0000
vt 0.8750 1.0000 1.0000
vt 0.7500 1.0000 1.0000
vt 1.0000 0.0000 1.0000
vt 1.0000 1.0000 1.0000
vt 0.0000 0.0000 1.0000
vt 0.1250 0.0000 1.0000
vt 0.1250 1.0000 1.0000
vt 0.0000 1.0000 1.0000
vt 0.2500 0.0000 1.0000
vt 0.2500 1.0000 1.0000
vt 0.3750 0.0000 1.0000
vt 0.3750 1.0000 1.0000
vt 0.5000 0.0000 1.0000
vt 0.5000 1.0000 1.0000
vt 0.6250 0.0000 1.0000
vt 0.6250 1.0000 1.0000
vt 1.0000 0.5000 -0.2500
vt 0.8536 0.1464 -0.2500
vt 0.5000 0.0000 -0.2500
vt 0.1464 0.1464 -0.2500
vt 0.0000 0.5000 -0.2500
vt 0.1464 0.8536 -0.2500
vt 0.5000 1.0000 -0.2500
vt 0.8536 0.8536 -0.2500
vt 0.1464 0.8536 0.2500
vt 0.0000 0.5000 0.2500
vt 0.1464 0.1464 0.2500
vt 0.5000 0.0000 0.2500
vt 0.8536 0.1464 0.2500
vt 1.0000 0.5000 0.2500
vt 0.8536 0.8536 0.2500
vt 0.5000 1.0000 0.2500
vt 1.0000 0.0000 0.0000
vt 1.0000 1.0000 0.0000
# 79 texture coords

g Sphere001
f 1/1/1 2/2/2 3/3/3 
f 1/4/1 3/3/3 4/5/4 
f 1/6/1 4/5/4 5/7/5 
f 1/8/1 5/7/5 6/9/6 
f 1/10/1 6/9/6 7/11/7 
f 1/12/1 7/11/7 8/13/8 
f 1/14/1 8/13/8 9/15/9 
f 1/16/1 9/15/9 2/17/2 
f 11/18/10 3/3/3 2/2/2 
f 2/2/2 10/19/11 11/18/10 
f 12/20/12 4/5/4 3/3/3 
f 3/3/3 11/18/10 12/20/12 
f 13/21/13 5/7/5 4/5/4 
f 4/5/4 12/20/12 13/21/13 
f 14/22/14 6/9/6 5/7/5 
f 5/7/5 13/21/13 14/22/14 
f 15/23/15 7/11/7 6/9/6 
f 6/9/6 14/22/14 15/23/15 
f 16/24/16 8/13/8 7/11/7 
f 7/11/7 15/23/15 16/24/16 
f 17/25/17 9/15/9 8/13/8 
f 8/13/8 16/24/16 17/25/17 
f 10/26/11 2/17/2 9/15/9 
f 9/15/9 17/25/17 10/26/11 
f 19/27/18 11/18/10 10/19/11 
f 10/19/11 18/28/19 19/27/18 
f 20/29/20 12/20/12 11/18/10 
f 11/18/10 19/27/18 20/29/20 
f 21/30/21 13/21/13 12/20/12 
f 12/20/12 20/29/20 21/30/21 
f 22/31/22 14/22/14 13/21/13 
f 13/21/13 21/30/21 22/31/22 
f 23/32/23 15/23/15 14/22/14 
f 14/22/14 22/31/22 23/32/23 
f 24/33/24 16/24/16 15/23/15 
f 15/23/15 23/32/23 24/33/24 
f 25/34/25 17/25/17 16/24/16 
f 16/24/16 24/33/24 25/34/25 
f 18/35/19 10/26/11 17/25/17 
f 17/25/17 25/34/25 18/35/19 
f 26/36/26 19/27/18 18/28/19 
f 26/37/26 20/29/20 19/27/18 
f 26/38/26 21/30/21 20/29/20 
f 26/39/26 22/31/22 21/30/21 
f 26/40/26 23/32/23 22/31/22 
f 26/41/26 24/33/24 23/32/23 
f 26/42/26 25/34/25 24/33/24 
f 26/43/26 18/35/19 25/34/25 
f 27/44/27 28/45/28 36/46/28 
f 36/46/28 35/47/27 27/44/27 
f 28/45/28 29/48/29 37/49/29 
f 37/49/29 36/46/28 28/45/28 
f 29/50/29 30/51/30 38/52/30 
f 38/52/30 37/53/29 29/50/29 
f 30/51/30 31/54/31 39/55/31 
f 39/55/31 38/52/30 30/51/30 
f 31/54/31 32/56/32 40/57/32 
f 40/57/32 39/55/31 31/54/31 
f 32/56/32 33/58/33 41/59/34 
f 41/59/34 40/57/32 32/56/32 
f 33/58/33 34/60/35 42/61/35 
f 42/61/35 41/59/34 33/58/33 
f 34/60/35 27/44/27 35/47/27 
f 35/47/27 42/61/35 34/60/35 
f 33/62/26 32/63/26 31/64/26 
f 31/64/26 30/65/26 29/66/26 
f 29/66/26 28/67/26 27/68/26 
f 31/64/26 29/66/26 27/68/26 
f 33/62/26 31/64/26 27/68/26 
f 34/69/26 33/62/26 27/68/26 
f 36/70/1 37/71/1 38/72/1 
f 38/72/1 39/73/1 40/74/1 
f 40/74/1 41/75/1 42/76/1 
f 38/72/1 40/74/1 42/76/1 
f 36/70/1 38/72/1 42/76/1 
f 35/77/1 36/70/1 42/76/1 
f 43/78/27 45/79/27 46/1/27 
f 46/1/27 44/36/27 43/78/27 
f 47/36/36 48/78/36 50/79/36 
f 50/79/36 49/1/36 47/36/36 
f 43/36/37 44/78/37 48/79/37 
f 48/79/37 47/1/37 43/36/37 
f 44/36/38 46/78/39 50/79/38 
f 50/79/38 48/1/38 44/36/38 
f 46/36/40 45/78/40 49/79/40 
f 49/79/40 50/1/40 46/36/40 
f 45/36/41 43/78/41 47/79/41 
f 47/79/41 49/1/41 45/36/41 
f 51/78/27 53/79/27 54/1/27 
f 54/1/27 52/36/27 51/78/27 
f 55/36/36 56/78/36 58/79/36 
f 58/79/36 57/1/36 55/36/36 
f 51/36/42 52/78/42 56/79/42 
f 56/79/42 55/1/42 51/36/42 
f 52/36/43 54/78/43 58/79/43 
f 58/79/43 56/1/44 52/36/43 
f 54/36/45 53/78/45 57/79/45 
f 57/79/45 58/1/45 54/36/45 
f 53/36/46 51/78/46 55/79/46 
f 55/79/46 57/1/46 53/36/46 
# 100 faces

