# 3ds Max Wavefront OBJ Exporter v0.97b - (c)2007 guruware
# File Created: 07.12.2017 18:42:18

#
# object TextPlus001
#

v  -0.0001 0.4893 0.2421
v  -0.0001 0.3832 0.2471
v  -0.0001 0.2930 0.2621
v  -0.0001 0.2185 0.2871
v  -0.0001 0.1599 0.3221
v  -0.0001 0.1235 0.3586
v  -0.0001 0.0974 0.4013
v  -0.0001 0.0818 0.4503
v  -0.0001 0.0766 0.5056
v  -0.0001 0.0796 0.5481
v  -0.0001 0.0885 0.5867
v  -0.0001 0.1033 0.6216
v  -0.0001 0.1240 0.6525
v  -0.0001 0.1503 0.6798
v  -0.0001 0.1815 0.7035
v  -0.0001 0.2178 0.7235
v  -0.0001 0.2592 0.7399
v  -0.0001 0.3065 0.7527
v  -0.0001 0.3606 0.7618
v  -0.0001 0.4215 0.7673
v  -0.0001 0.4893 0.7691
v  -0.0001 0.5463 0.7680
v  -0.0001 0.5972 0.7646
v  -0.0001 0.6419 0.7589
v  -0.0001 0.6804 0.7509
v  -0.0001 0.7145 0.7410
v  -0.0001 0.7459 0.7294
v  -0.0001 0.7746 0.7161
v  -0.0001 0.8007 0.7011
v  -0.0001 0.8239 0.6842
v  -0.0001 0.8442 0.6650
v  -0.0001 0.8617 0.6436
v  -0.0001 0.8762 0.6201
v  -0.0001 0.8877 0.5944
v  -0.0001 0.8959 0.5668
v  -0.0001 0.9008 0.5372
v  -0.0001 0.9024 0.5056
v  -0.0001 0.8995 0.4634
v  -0.0001 0.8906 0.4250
v  -0.0001 0.8759 0.3902
v  -0.0001 0.8553 0.3593
v  -0.0001 0.8292 0.3320
v  -0.0001 0.7980 0.3083
v  -0.0001 0.7618 0.2882
v  -0.0001 0.7204 0.2716
v  -0.0001 0.6731 0.2587
v  -0.0001 0.6188 0.2495
v  -0.0001 0.5575 0.2440
v  0.0000 0.4893 0.2421
v  0.0000 0.3832 0.2471
v  0.0000 0.2930 0.2621
v  0.0000 0.2185 0.2871
v  0.0000 0.1599 0.3221
v  0.0000 0.1235 0.3586
v  0.0000 0.0974 0.4013
v  0.0000 0.0818 0.4503
v  0.0000 0.0766 0.5056
v  -0.0000 0.0796 0.5481
v  -0.0000 0.0885 0.5867
v  -0.0000 0.1033 0.6216
v  -0.0000 0.1240 0.6525
v  -0.0000 0.1503 0.6798
v  -0.0000 0.1815 0.7035
v  -0.0000 0.2178 0.7235
v  -0.0000 0.2592 0.7399
v  -0.0000 0.3065 0.7527
v  -0.0000 0.3606 0.7618
v  -0.0000 0.4215 0.7673
v  -0.0000 0.4893 0.7691
v  -0.0000 0.5463 0.7680
v  -0.0000 0.5972 0.7646
v  -0.0000 0.6419 0.7589
v  -0.0000 0.6804 0.7509
v  -0.0000 0.7145 0.7410
v  -0.0000 0.7459 0.7294
v  -0.0000 0.7746 0.7161
v  -0.0000 0.8007 0.7011
v  -0.0000 0.8239 0.6842
v  -0.0000 0.8442 0.6650
v  -0.0000 0.8617 0.6436
v  -0.0000 0.8762 0.6201
v  -0.0000 0.8877 0.5944
v  -0.0000 0.8959 0.5668
v  -0.0000 0.9008 0.5372
v  -0.0000 0.9024 0.5056
v  -0.0000 0.8995 0.4634
v  -0.0000 0.8906 0.4250
v  -0.0000 0.8759 0.3902
v  -0.0000 0.8553 0.3593
v  -0.0000 0.8292 0.3320
v  0.0000 0.7980 0.3083
v  0.0000 0.7618 0.2882
v  0.0000 0.7204 0.2716
v  0.0000 0.6731 0.2587
v  0.0000 0.6188 0.2495
v  0.0000 0.5575 0.2440
v  -0.0001 0.4895 0.3443
v  -0.0001 0.5813 0.3474
v  -0.0001 0.6574 0.3570
v  -0.0001 0.7178 0.3729
v  -0.0001 0.7626 0.3952
v  -0.0001 0.7879 0.4174
v  -0.0001 0.8060 0.4430
v  -0.0001 0.8169 0.4721
v  -0.0001 0.8205 0.5045
v  -0.0001 0.8164 0.5379
v  -0.0001 0.8041 0.5684
v  -0.0001 0.7836 0.5960
v  -0.0001 0.7548 0.6206
v  -0.0001 0.7136 0.6409
v  -0.0001 0.6557 0.6554
v  -0.0001 0.5810 0.6641
v  -0.0001 0.4895 0.6670
v  -0.0001 0.3983 0.6641
v  -0.0001 0.3237 0.6554
v  -0.0001 0.2657 0.6408
v  -0.0001 0.2245 0.6205
v  -0.0001 0.1956 0.5958
v  -0.0001 0.1751 0.5685
v  -0.0001 0.1627 0.5384
v  -0.0001 0.1586 0.5056
v  -0.0001 0.1627 0.4728
v  -0.0001 0.1750 0.4428
v  -0.0001 0.1955 0.4154
v  -0.0001 0.2242 0.3908
v  -0.0001 0.2654 0.3704
v  -0.0001 0.3233 0.3559
v  -0.0001 0.3980 0.3472
v  0.0000 0.4895 0.3443
v  0.0000 0.5813 0.3474
v  0.0000 0.6574 0.3570
v  -0.0000 0.7178 0.3729
v  -0.0000 0.7626 0.3952
v  -0.0000 0.7879 0.4174
v  -0.0000 0.8060 0.4430
v  -0.0000 0.8169 0.4721
v  -0.0000 0.8205 0.5045
v  -0.0000 0.8164 0.5379
v  -0.0000 0.8041 0.5684
v  -0.0000 0.7836 0.5960
v  -0.0000 0.7548 0.6206
v  -0.0000 0.7136 0.6409
v  -0.0000 0.6557 0.6554
v  -0.0000 0.5810 0.6641
v  -0.0000 0.4895 0.6670
v  -0.0000 0.3983 0.6641
v  -0.0000 0.3237 0.6554
v  -0.0000 0.2657 0.6408
v  -0.0000 0.2245 0.6205
v  -0.0000 0.1956 0.5958
v  -0.0000 0.1751 0.5685
v  -0.0000 0.1627 0.5384
v  -0.0000 0.1586 0.5056
v  0.0000 0.1627 0.4728
v  0.0000 0.1750 0.4428
v  0.0000 0.1955 0.4154
v  0.0000 0.2242 0.3908
v  0.0000 0.2654 0.3704
v  0.0000 0.3233 0.3559
v  0.0000 0.3980 0.3472
# 160 vertices

vn 0.0000 -0.0100 -0.9999
vn 0.0000 -0.1056 -0.9944
vn 0.0000 -0.2417 -0.9703
vn 0.0000 -0.4174 -0.9087
vn 0.0000 -0.6147 -0.7888
vn 0.0000 -0.7867 -0.6173
vn 0.0000 -0.9101 -0.4144
vn 0.0000 -0.9799 -0.1996
vn 0.0000 -0.9999 -0.0121
vn 0.0000 -0.9891 0.1473
vn -0.0000 -0.9511 0.3090
vn -0.0000 -0.8795 0.4759
vn -0.0000 -0.7790 0.6270
vn -0.0000 -0.6642 0.7476
vn -0.0000 -0.5446 0.8387
vn -0.0000 -0.4269 0.9043
vn -0.0000 -0.3155 0.9489
vn -0.0000 -0.2139 0.9769
vn -0.0000 -0.1281 0.9918
vn -0.0000 -0.0583 0.9983
vn -0.0000 -0.0035 1.0000
vn -0.0000 0.0434 0.9991
vn -0.0000 0.0966 0.9953
vn -0.0000 0.1644 0.9864
vn -0.0000 0.2413 0.9705
vn -0.0000 0.3136 0.9496
vn -0.0000 0.3840 0.9233
vn -0.0000 0.4601 0.8879
vn -0.0000 0.5447 0.8386
vn -0.0000 0.6385 0.7697
vn -0.0000 0.7316 0.6817
vn -0.0000 0.8146 0.5800
vn -0.0000 0.8840 0.4674
vn -0.0000 0.9380 0.3467
vn -0.0000 0.9745 0.2244
vn -0.0000 0.9942 0.1080
vn -0.0000 1.0000 -0.0089
vn -0.0000 0.9891 -0.1472
vn 0.0000 0.9513 -0.3084
vn 0.0000 0.8803 -0.4745
vn 0.0000 0.8803 -0.4744
vn 0.0000 0.7805 -0.6251
vn 0.0000 0.6660 -0.7459
vn 0.0000 0.5466 -0.8374
vn 0.0000 0.4292 -0.9032
vn 0.0000 0.3177 -0.9482
vn 0.0000 0.2153 -0.9765
vn 0.0000 0.1287 -0.9917
vn 0.0000 0.0585 -0.9983
vn -0.0000 -0.0014 1.0000
vn -0.0000 -0.0796 0.9968
vn -0.0000 -0.1899 0.9818
vn -0.0000 -0.3517 0.9361
vn -0.0000 -0.3518 0.9361
vn -0.0000 -0.5571 0.8304
vn -0.0000 -0.7435 0.6688
vn -0.0000 -0.8841 0.4673
vn 0.0000 -0.9726 0.2323
vn 0.0000 -1.0000 -0.0056
vn 0.0000 -0.9682 -0.2503
vn 0.0000 -0.8719 -0.4897
vn 0.0000 -0.7313 -0.6821
vn 0.0000 -0.5510 -0.8345
vn 0.0000 -0.3442 -0.9389
vn 0.0000 -0.1795 -0.9838
vn 0.0000 -0.0737 -0.9973
vn 0.0000 0.0001 -1.0000
vn 0.0000 0.0741 -0.9973
vn 0.0000 0.1802 -0.9836
vn 0.0000 0.3449 -0.9386
vn 0.0000 0.5503 -0.8350
vn 0.0000 0.7287 -0.6849
vn 0.0000 0.8691 -0.4947
vn -0.0000 0.9671 -0.2545
vn -0.0000 1.0000 -0.0003
vn -0.0000 0.9673 0.2535
vn -0.0000 0.8699 0.4932
vn -0.0000 0.7301 0.6834
vn -0.0000 0.5515 0.8342
vn -0.0000 0.3453 0.9385
vn -0.0000 0.1801 0.9837
vn -0.0000 0.0740 0.9973
vn -1.0000 -0.0000 -0.0000
vn 1.0000 0.0000 0.0000
# 84 vertex normals

vt 0.0000 0.4997 1.0000
vt 0.0000 0.4997 0.0000
vt 0.0095 0.3713 0.0000
vt 0.0095 0.3713 1.0000
vt 0.0379 0.2620 0.0000
vt 0.0379 0.2620 1.0000
vt 0.0853 0.1718 0.0000
vt 0.0853 0.1718 1.0000
vt 0.1517 0.1008 0.0000
vt 0.1517 0.1008 1.0000
vt 0.2209 0.0567 0.0000
vt 0.2209 0.0567 1.0000
vt 0.3021 0.0252 0.0000
vt 0.3021 0.0252 1.0000
vt 0.3951 0.0063 0.0000
vt 0.3951 0.0063 1.0000
vt 0.5000 0.0000 0.0000
vt 0.5000 0.0000 1.0000
vt 0.5806 0.0036 0.0000
vt 0.5806 0.0036 1.0000
vt 0.6539 0.0143 0.0000
vt 0.6539 0.0143 1.0000
vt 0.7200 0.0323 0.0000
vt 0.7200 0.0323 1.0000
vt 0.7788 0.0574 0.0000
vt 0.7788 0.0574 1.0000
vt 0.8305 0.0891 0.0000
vt 0.8305 0.0891 1.0000
vt 0.8754 0.1270 0.0000
vt 0.8754 0.1270 1.0000
vt 0.9134 0.1710 0.0000
vt 0.9134 0.1710 1.0000
vt 0.9446 0.2211 0.0000
vt 0.9446 0.2211 1.0000
vt 0.9688 0.2783 0.0000
vt 0.9688 0.2783 1.0000
vt 0.9861 0.3438 0.0000
vt 0.9861 0.3438 1.0000
vt 0.9965 0.4176 0.0000
vt 0.9965 0.4176 1.0000
vt 1.0000 0.4997 0.0000
vt 1.0000 0.4997 1.0000
vt 0.9978 0.5687 0.0000
vt 0.9978 0.5687 1.0000
vt 0.9914 0.6303 0.0000
vt 0.9914 0.6303 1.0000
vt 0.9806 0.6845 0.0000
vt 0.9806 0.6845 1.0000
vt 0.9655 0.7311 0.0000
vt 0.9655 0.7311 1.0000
vt 0.9466 0.7724 0.0000
vt 0.9466 0.7724 1.0000
vt 0.9246 0.8105 0.0000
vt 0.9246 0.8105 1.0000
vt 0.8993 0.8452 0.0000
vt 0.8993 0.8452 1.0000
vt 0.8709 0.8768 0.0000
vt 0.8709 0.8768 1.0000
vt 0.8388 0.9049 0.0000
vt 0.8388 0.9049 1.0000
vt 0.8024 0.9295 0.0000
vt 0.8024 0.9295 1.0000
vt 0.7619 0.9507 0.0000
vt 0.7619 0.9507 1.0000
vt 0.7171 0.9683 0.0000
vt 0.7171 0.9683 1.0000
vt 0.6684 0.9822 0.0000
vt 0.6684 0.9822 1.0000
vt 0.6160 0.9921 0.0000
vt 0.6160 0.9921 1.0000
vt 0.5599 0.9980 0.0000
vt 0.5599 0.9980 1.0000
vt 0.5000 1.0000 0.0000
vt 0.5000 1.0000 1.0000
vt 0.4199 0.9964 0.0000
vt 0.4199 0.9964 1.0000
vt 0.3469 0.9857 0.0000
vt 0.3469 0.9857 1.0000
vt 0.2810 0.9679 0.0000
vt 0.2810 0.9679 1.0000
vt 0.2223 0.9429 0.0000
vt 0.2223 0.9429 1.0000
vt 0.1705 0.9113 0.0000
vt 0.1705 0.9113 1.0000
vt 0.1255 0.8736 0.0000
vt 0.1255 0.8736 1.0000
vt 0.0873 0.8297 0.0000
vt 0.0873 0.8297 1.0000
vt 0.0560 0.7796 0.0000
vt 0.0560 0.7796 1.0000
vt 0.0315 0.7223 0.0000
vt 0.0315 0.7223 1.0000
vt 0.0140 0.6565 0.0000
vt 0.0140 0.6565 1.0000
vt 0.0035 0.5823 0.0000
vt 0.0035 0.5823 1.0000
vt 0.1938 0.5000 1.0000
vt 0.1938 0.5000 0.0000
vt 0.1998 0.6111 0.0000
vt 0.1998 0.6111 1.0000
vt 0.2179 0.7032 0.0000
vt 0.2179 0.7032 1.0000
vt 0.2481 0.7764 0.0000
vt 0.2481 0.7764 1.0000
vt 0.2904 0.8306 0.0000
vt 0.2904 0.8306 1.0000
vt 0.3326 0.8613 0.0000
vt 0.3326 0.8613 1.0000
vt 0.3812 0.8832 0.0000
vt 0.3812 0.8832 1.0000
vt 0.4363 0.8964 0.0000
vt 0.4363 0.8964 1.0000
vt 0.4979 0.9008 0.0000
vt 0.4979 0.9008 1.0000
vt 0.5613 0.8958 0.0000
vt 0.5613 0.8958 1.0000
vt 0.6191 0.8809 0.0000
vt 0.6191 0.8809 1.0000
vt 0.6714 0.8561 0.0000
vt 0.6714 0.8561 1.0000
vt 0.7182 0.8213 0.0000
vt 0.7182 0.8213 1.0000
vt 0.7567 0.7714 0.0000
vt 0.7567 0.7714 1.0000
vt 0.7842 0.7012 0.0000
vt 0.7842 0.7012 1.0000
vt 0.8007 0.6108 0.0000
vt 0.8007 0.6108 1.0000
vt 0.8062 0.5000 0.0000
vt 0.8062 0.5000 1.0000
vt 0.8007 0.3895 0.0000
vt 0.8007 0.3895 1.0000
vt 0.7841 0.2991 0.0000
vt 0.7841 0.2991 1.0000
vt 0.7565 0.2290 0.0000
vt 0.7565 0.2290 1.0000
vt 0.7179 0.1790 0.0000
vt 0.7179 0.1790 1.0000
vt 0.6712 0.1441 0.0000
vt 0.6712 0.1441 1.0000
vt 0.6193 0.1192 0.0000
vt 0.6193 0.1192 1.0000
vt 0.5622 0.1042 0.0000
vt 0.5622 0.1042 1.0000
vt 0.5000 0.0992 0.0000
vt 0.5000 0.0992 1.0000
vt 0.4378 0.1042 0.0000
vt 0.4378 0.1042 1.0000
vt 0.3807 0.1191 0.0000
vt 0.3807 0.1191 1.0000
vt 0.3288 0.1439 0.0000
vt 0.3288 0.1439 1.0000
vt 0.2821 0.1787 0.0000
vt 0.2821 0.1787 1.0000
vt 0.2435 0.2285 0.0000
vt 0.2435 0.2285 1.0000
vt 0.2159 0.2987 0.0000
vt 0.2159 0.2987 1.0000
vt 0.1993 0.3892 0.0000
vt 0.1993 0.3892 1.0000
# 160 texture coords

g TextPlus001
f 1/1/1 49/2/1 50/3/2 
f 1/1/1 50/3/2 2/4/2 
f 2/4/2 50/3/2 51/5/3 
f 2/4/2 51/5/3 3/6/3 
f 3/6/3 51/5/3 52/7/4 
f 3/6/3 52/7/4 4/8/4 
f 4/8/4 52/7/4 53/9/5 
f 4/8/4 53/9/5 5/10/5 
f 5/10/5 53/9/5 54/11/6 
f 5/10/5 54/11/6 6/12/6 
f 6/12/6 54/11/6 55/13/7 
f 6/12/6 55/13/7 7/14/7 
f 7/14/7 55/13/7 56/15/8 
f 7/14/7 56/15/8 8/16/8 
f 8/16/8 56/15/8 57/17/9 
f 8/16/8 57/17/9 9/18/9 
f 9/18/9 57/17/9 58/19/10 
f 9/18/9 58/19/10 10/20/10 
f 10/20/10 58/19/10 59/21/11 
f 10/20/10 59/21/11 11/22/11 
f 11/22/11 59/21/11 60/23/12 
f 11/22/11 60/23/12 12/24/12 
f 12/24/12 60/23/12 61/25/13 
f 12/24/12 61/25/13 13/26/13 
f 13/26/13 61/25/13 62/27/14 
f 13/26/13 62/27/14 14/28/14 
f 14/28/14 62/27/14 63/29/15 
f 14/28/14 63/29/15 15/30/15 
f 15/30/15 63/29/15 64/31/16 
f 15/30/15 64/31/16 16/32/16 
f 16/32/16 64/31/16 65/33/17 
f 16/32/16 65/33/17 17/34/17 
f 17/34/17 65/33/17 66/35/18 
f 17/34/17 66/35/18 18/36/18 
f 18/36/18 66/35/18 67/37/19 
f 18/36/18 67/37/19 19/38/19 
f 19/38/19 67/37/19 68/39/20 
f 19/38/19 68/39/20 20/40/20 
f 20/40/20 68/39/20 69/41/21 
f 20/40/20 69/41/21 21/42/21 
f 21/42/21 69/41/21 70/43/22 
f 21/42/21 70/43/22 22/44/22 
f 22/44/22 70/43/22 71/45/23 
f 22/44/22 71/45/23 23/46/23 
f 23/46/23 71/45/23 72/47/24 
f 23/46/23 72/47/24 24/48/24 
f 24/48/24 72/47/24 73/49/25 
f 24/48/24 73/49/25 25/50/25 
f 25/50/25 73/49/25 74/51/26 
f 25/50/25 74/51/26 26/52/26 
f 26/52/26 74/51/26 75/53/27 
f 26/52/26 75/53/27 27/54/27 
f 27/54/27 75/53/27 76/55/28 
f 27/54/27 76/55/28 28/56/28 
f 28/56/28 76/55/28 77/57/29 
f 28/56/28 77/57/29 29/58/29 
f 29/58/29 77/57/29 78/59/30 
f 29/58/29 78/59/30 30/60/30 
f 30/60/30 78/59/30 79/61/31 
f 30/60/30 79/61/31 31/62/31 
f 31/62/31 79/61/31 80/63/32 
f 31/62/31 80/63/32 32/64/32 
f 32/64/32 80/63/32 81/65/33 
f 32/64/32 81/65/33 33/66/33 
f 33/66/33 81/65/33 82/67/34 
f 33/66/33 82/67/34 34/68/34 
f 34/68/34 82/67/34 83/69/35 
f 34/68/34 83/69/35 35/70/35 
f 35/70/35 83/69/35 84/71/36 
f 35/70/35 84/71/36 36/72/36 
f 36/72/36 84/71/36 85/73/37 
f 36/72/36 85/73/37 37/74/37 
f 37/74/37 85/73/37 86/75/38 
f 37/74/37 86/75/38 38/76/38 
f 38/76/38 86/75/38 87/77/39 
f 38/76/38 87/77/39 39/78/39 
f 39/78/39 87/77/39 88/79/40 
f 39/78/39 88/79/40 40/80/41 
f 40/80/41 88/79/40 89/81/42 
f 40/80/41 89/81/42 41/82/42 
f 41/82/42 89/81/42 90/83/43 
f 41/82/42 90/83/43 42/84/43 
f 42/84/43 90/83/43 91/85/44 
f 42/84/43 91/85/44 43/86/44 
f 43/86/44 91/85/44 92/87/45 
f 43/86/44 92/87/45 44/88/45 
f 44/88/45 92/87/45 93/89/46 
f 44/88/45 93/89/46 45/90/46 
f 45/90/46 93/89/46 94/91/47 
f 45/90/46 94/91/47 46/92/47 
f 46/92/47 94/91/47 95/93/48 
f 46/92/47 95/93/48 47/94/48 
f 47/94/48 95/93/48 96/95/49 
f 47/94/48 96/95/49 48/96/49 
f 48/96/49 96/95/49 49/2/1 
f 48/96/49 49/2/1 1/1/1 
f 97/97/50 129/98/50 130/99/51 
f 97/97/50 130/99/51 98/100/51 
f 98/100/51 130/99/51 131/101/52 
f 98/100/51 131/101/52 99/102/52 
f 99/102/52 131/101/52 132/103/53 
f 99/102/52 132/103/53 100/104/54 
f 100/104/54 132/103/53 133/105/55 
f 100/104/54 133/105/55 101/106/55 
f 101/106/55 133/105/55 134/107/56 
f 101/106/55 134/107/56 102/108/56 
f 102/108/56 134/107/56 135/109/57 
f 102/108/56 135/109/57 103/110/57 
f 103/110/57 135/109/57 136/111/58 
f 103/110/57 136/111/58 104/112/58 
f 104/112/58 136/111/58 137/113/59 
f 104/112/58 137/113/59 105/114/59 
f 105/114/59 137/113/59 138/115/60 
f 105/114/59 138/115/60 106/116/60 
f 106/116/60 138/115/60 139/117/61 
f 106/116/60 139/117/61 107/118/61 
f 107/118/61 139/117/61 140/119/62 
f 107/118/61 140/119/62 108/120/62 
f 108/120/62 140/119/62 141/121/63 
f 108/120/62 141/121/63 109/122/63 
f 109/122/63 141/121/63 142/123/64 
f 109/122/63 142/123/64 110/124/64 
f 110/124/64 142/123/64 143/125/65 
f 110/124/64 143/125/65 111/126/65 
f 111/126/65 143/125/65 144/127/66 
f 111/126/65 144/127/66 112/128/66 
f 112/128/66 144/127/66 145/129/67 
f 112/128/66 145/129/67 113/130/67 
f 113/130/67 145/129/67 146/131/68 
f 113/130/67 146/131/68 114/132/68 
f 114/132/68 146/131/68 147/133/69 
f 114/132/68 147/133/69 115/134/69 
f 115/134/69 147/133/69 148/135/70 
f 115/134/69 148/135/70 116/136/70 
f 116/136/70 148/135/70 149/137/71 
f 116/136/70 149/137/71 117/138/71 
f 117/138/71 149/137/71 150/139/72 
f 117/138/71 150/139/72 118/140/72 
f 118/140/72 150/139/72 151/141/73 
f 118/140/72 151/141/73 119/142/73 
f 119/142/73 151/141/73 152/143/74 
f 119/142/73 152/143/74 120/144/74 
f 120/144/74 152/143/74 153/145/75 
f 120/144/74 153/145/75 121/146/75 
f 121/146/75 153/145/75 154/147/76 
f 121/146/75 154/147/76 122/148/76 
f 122/148/76 154/147/76 155/149/77 
f 122/148/76 155/149/77 123/150/77 
f 123/150/77 155/149/77 156/151/78 
f 123/150/77 156/151/78 124/152/78 
f 124/152/78 156/151/78 157/153/79 
f 124/152/78 157/153/79 125/154/79 
f 125/154/79 157/153/79 158/155/80 
f 125/154/79 158/155/80 126/156/80 
f 126/156/80 158/155/80 159/157/81 
f 126/156/80 159/157/81 127/158/81 
f 127/158/81 159/157/81 160/159/82 
f 127/158/81 160/159/82 128/160/82 
f 128/160/82 160/159/82 129/98/50 
f 128/160/82 129/98/50 97/97/50 
f 97/97/83 1/1/83 2/4/83 
f 128/160/83 97/97/83 2/4/83 
f 127/158/83 128/160/83 2/4/83 
f 127/158/83 2/4/83 3/6/83 
f 126/156/83 127/158/83 3/6/83 
f 126/156/83 3/6/83 4/8/83 
f 125/154/83 126/156/83 4/8/83 
f 125/154/83 4/8/83 5/10/83 
f 124/152/83 125/154/83 5/10/83 
f 124/152/83 5/10/83 6/12/83 
f 124/152/83 6/12/83 7/14/83 
f 123/150/83 124/152/83 7/14/83 
f 123/150/83 7/14/83 8/16/83 
f 122/148/83 123/150/83 8/16/83 
f 122/148/83 8/16/83 9/18/83 
f 121/146/83 122/148/83 9/18/83 
f 121/146/83 9/18/83 10/20/83 
f 120/144/83 121/146/83 10/20/83 
f 120/144/83 10/20/83 11/22/83 
f 119/142/83 120/144/83 11/22/83 
f 119/142/83 11/22/83 12/24/83 
f 48/96/83 1/1/83 97/97/83 
f 48/96/83 97/97/83 98/100/83 
f 47/94/83 48/96/83 98/100/83 
f 47/94/83 98/100/83 99/102/83 
f 46/92/83 47/94/83 99/102/83 
f 45/90/83 46/92/83 99/102/83 
f 45/90/83 99/102/83 100/104/83 
f 44/88/83 45/90/83 100/104/83 
f 43/86/83 44/88/83 100/104/83 
f 43/86/83 100/104/83 101/106/83 
f 42/84/83 43/86/83 101/106/83 
f 42/84/83 101/106/83 102/108/83 
f 41/82/83 42/84/83 102/108/83 
f 40/80/83 41/82/83 102/108/83 
f 40/80/83 102/108/83 103/110/83 
f 39/78/83 40/80/83 103/110/83 
f 39/78/83 103/110/83 104/112/83 
f 38/76/83 39/78/83 104/112/83 
f 37/74/83 38/76/83 104/112/83 
f 37/74/83 104/112/83 105/114/83 
f 36/72/83 37/74/83 105/114/83 
f 36/72/83 105/114/83 106/116/83 
f 35/70/83 36/72/83 106/116/83 
f 118/140/83 119/142/83 12/24/83 
f 118/140/83 12/24/83 13/26/83 
f 118/140/83 13/26/83 14/28/83 
f 117/138/83 118/140/83 14/28/83 
f 117/138/83 14/28/83 15/30/83 
f 116/136/83 117/138/83 15/30/83 
f 116/136/83 15/30/83 16/32/83 
f 116/136/83 16/32/83 17/34/83 
f 115/134/83 116/136/83 17/34/83 
f 115/134/83 17/34/83 18/36/83 
f 115/134/83 18/36/83 19/38/83 
f 114/132/83 115/134/83 19/38/83 
f 114/132/83 19/38/83 20/40/83 
f 113/130/83 114/132/83 20/40/83 
f 113/130/83 20/40/83 21/42/83 
f 113/130/83 21/42/83 22/44/83 
f 112/128/83 113/130/83 22/44/83 
f 112/128/83 22/44/83 23/46/83 
f 111/126/83 112/128/83 23/46/83 
f 111/126/83 23/46/83 24/48/83 
f 111/126/83 24/48/83 25/50/83 
f 111/126/83 25/50/83 26/52/83 
f 110/124/83 111/126/83 26/52/83 
f 110/124/83 26/52/83 27/54/83 
f 110/124/83 27/54/83 28/56/83 
f 109/122/83 110/124/83 28/56/83 
f 109/122/83 28/56/83 29/58/83 
f 109/122/83 29/58/83 30/60/83 
f 108/120/83 109/122/83 30/60/83 
f 108/120/83 30/60/83 31/62/83 
f 108/120/83 31/62/83 32/64/83 
f 107/118/83 108/120/83 32/64/83 
f 107/118/83 32/64/83 33/66/83 
f 107/118/83 33/66/83 34/68/83 
f 106/116/83 107/118/83 34/68/83 
f 35/70/83 106/116/83 34/68/83 
f 129/98/84 50/3/84 49/2/84 
f 160/159/84 50/3/84 129/98/84 
f 159/157/84 50/3/84 160/159/84 
f 159/157/84 51/5/84 50/3/84 
f 158/155/84 51/5/84 159/157/84 
f 158/155/84 52/7/84 51/5/84 
f 157/153/84 52/7/84 158/155/84 
f 157/153/84 53/9/84 52/7/84 
f 156/151/84 53/9/84 157/153/84 
f 156/151/84 54/11/84 53/9/84 
f 156/151/84 55/13/84 54/11/84 
f 155/149/84 55/13/84 156/151/84 
f 155/149/84 56/15/84 55/13/84 
f 154/147/84 56/15/84 155/149/84 
f 154/147/84 57/17/84 56/15/84 
f 153/145/84 57/17/84 154/147/84 
f 153/145/84 58/19/84 57/17/84 
f 152/143/84 58/19/84 153/145/84 
f 152/143/84 59/21/84 58/19/84 
f 151/141/84 59/21/84 152/143/84 
f 151/141/84 60/23/84 59/21/84 
f 96/95/84 129/98/84 49/2/84 
f 96/95/84 130/99/84 129/98/84 
f 95/93/84 130/99/84 96/95/84 
f 95/93/84 131/101/84 130/99/84 
f 94/91/84 131/101/84 95/93/84 
f 93/89/84 131/101/84 94/91/84 
f 93/89/84 132/103/84 131/101/84 
f 92/87/84 132/103/84 93/89/84 
f 91/85/84 132/103/84 92/87/84 
f 91/85/84 133/105/84 132/103/84 
f 90/83/84 133/105/84 91/85/84 
f 90/83/84 134/107/84 133/105/84 
f 89/81/84 134/107/84 90/83/84 
f 88/79/84 134/107/84 89/81/84 
f 88/79/84 135/109/84 134/107/84 
f 87/77/84 135/109/84 88/79/84 
f 87/77/84 136/111/84 135/109/84 
f 86/75/84 136/111/84 87/77/84 
f 85/73/84 136/111/84 86/75/84 
f 85/73/84 137/113/84 136/111/84 
f 84/71/84 137/113/84 85/73/84 
f 84/71/84 138/115/84 137/113/84 
f 83/69/84 138/115/84 84/71/84 
f 150/139/84 60/23/84 151/141/84 
f 150/139/84 61/25/84 60/23/84 
f 150/139/84 62/27/84 61/25/84 
f 149/137/84 62/27/84 150/139/84 
f 149/137/84 63/29/84 62/27/84 
f 148/135/84 63/29/84 149/137/84 
f 148/135/84 64/31/84 63/29/84 
f 148/135/84 65/33/84 64/31/84 
f 147/133/84 65/33/84 148/135/84 
f 147/133/84 66/35/84 65/33/84 
f 147/133/84 67/37/84 66/35/84 
f 146/131/84 67/37/84 147/133/84 
f 146/131/84 68/39/84 67/37/84 
f 145/129/84 68/39/84 146/131/84 
f 145/129/84 69/41/84 68/39/84 
f 145/129/84 70/43/84 69/41/84 
f 144/127/84 70/43/84 145/129/84 
f 144/127/84 71/45/84 70/43/84 
f 143/125/84 71/45/84 144/127/84 
f 143/125/84 72/47/84 71/45/84 
f 143/125/84 73/49/84 72/47/84 
f 143/125/84 74/51/84 73/49/84 
f 142/123/84 74/51/84 143/125/84 
f 142/123/84 75/53/84 74/51/84 
f 142/123/84 76/55/84 75/53/84 
f 141/121/84 76/55/84 142/123/84 
f 141/121/84 77/57/84 76/55/84 
f 141/121/84 78/59/84 77/57/84 
f 140/119/84 78/59/84 141/121/84 
f 140/119/84 79/61/84 78/59/84 
f 140/119/84 80/63/84 79/61/84 
f 139/117/84 80/63/84 140/119/84 
f 139/117/84 81/65/84 80/63/84 
f 139/117/84 82/67/84 81/65/84 
f 138/115/84 82/67/84 139/117/84 
f 83/69/84 82/67/84 138/115/84 
# 320 faces

